<?xml version="1.0" encoding="UTF-8"?>
<!DOCTYPE svg PUBLIC "-//W3C//DTD SVG 1.1//EN" "http://www.w3.org/Graphics/SVG/1.1/DTD/svg11.dtd">
<svg version="1.2" width="99.1mm" height="25.79mm" viewBox="6462 7889 9910 2579" preserveAspectRatio="xMidYMid" fill-rule="evenodd" stroke-width="28.222" stroke-linejoin="round" xmlns="http://www.w3.org/2000/svg" xmlns:ooo="http://xml.openoffice.org/svg/export" xmlns:xlink="http://www.w3.org/1999/xlink" xmlns:presentation="http://sun.com/xmlns/staroffice/presentation" xmlns:smil="http://www.w3.org/2001/SMIL20/" xmlns:anim="urn:oasis:names:tc:opendocument:xmlns:animation:1.0" xml:space="preserve">
 <defs class="ClipPathGroup">
  <clipPath id="presentation_clip_path" clipPathUnits="userSpaceOnUse">
   <rect x="6462" y="7889" width="9910" height="2579"/>
  </clipPath>
  <clipPath id="presentation_clip_path_shrink" clipPathUnits="userSpaceOnUse">
   <rect x="6471" y="7891" width="9891" height="2574"/>
  </clipPath>
 </defs>
 <defs class="TextShapeIndex">
  <g ooo:slide="id1" ooo:id-list="id3 id4 id5 id6 id7 id8 id9 id10 id11 id12 id13 id14 id15 id16 id17 id18 id19 id20 id21 id22 id23 id24 id25 id26 id27 id28 id29 id30 id31 id32 id33 id34 id35 id36 id37 id38 id39 id40 id41 id42 id43 id44 id45 id46 id47 id48 id49 id50 id51 id52 id53 id54 id55 id56 id57 id58 id59 id60 id61 id62 id63 id64 id65 id66 id67 id68 id69 id70 id71 id72"/>
 </defs>
 <defs class="EmbeddedBulletChars">
  <g id="bullet-char-template-57356" transform="scale(0.00048828125,-0.00048828125)">
   <path d="M 580,1141 L 1163,571 580,0 -4,571 580,1141 Z"/>
  </g>
  <g id="bullet-char-template-57354" transform="scale(0.00048828125,-0.00048828125)">
   <path d="M 8,1128 L 1137,1128 1137,0 8,0 8,1128 Z"/>
  </g>
  <g id="bullet-char-template-10146" transform="scale(0.00048828125,-0.00048828125)">
   <path d="M 174,0 L 602,739 174,1481 1456,739 174,0 Z M 1358,739 L 309,1346 659,739 1358,739 Z"/>
  </g>
  <g id="bullet-char-template-10132" transform="scale(0.00048828125,-0.00048828125)">
   <path d="M 2015,739 L 1276,0 717,0 1260,543 174,543 174,936 1260,936 717,1481 1274,1481 2015,739 Z"/>
  </g>
  <g id="bullet-char-template-10007" transform="scale(0.00048828125,-0.00048828125)">
   <path d="M 0,-2 C -7,14 -16,27 -25,37 L 356,567 C 262,823 215,952 215,954 215,979 228,992 255,992 264,992 276,990 289,987 310,991 331,999 354,1012 L 381,999 492,748 772,1049 836,1024 860,1049 C 881,1039 901,1025 922,1006 886,937 835,863 770,784 769,783 710,716 594,584 L 774,223 C 774,196 753,168 711,139 L 727,119 C 717,90 699,76 672,76 641,76 570,178 457,381 L 164,-76 C 142,-110 111,-127 72,-127 30,-127 9,-110 8,-76 1,-67 -2,-52 -2,-32 -2,-23 -1,-13 0,-2 Z"/>
  </g>
  <g id="bullet-char-template-10004" transform="scale(0.00048828125,-0.00048828125)">
   <path d="M 285,-33 C 182,-33 111,30 74,156 52,228 41,333 41,471 41,549 55,616 82,672 116,743 169,778 240,778 293,778 328,747 346,684 L 369,508 C 377,444 397,411 428,410 L 1163,1116 C 1174,1127 1196,1133 1229,1133 1271,1133 1292,1118 1292,1087 L 1292,965 C 1292,929 1282,901 1262,881 L 442,47 C 390,-6 338,-33 285,-33 Z"/>
  </g>
  <g id="bullet-char-template-9679" transform="scale(0.00048828125,-0.00048828125)">
   <path d="M 813,0 C 632,0 489,54 383,161 276,268 223,411 223,592 223,773 276,916 383,1023 489,1130 632,1184 813,1184 992,1184 1136,1130 1245,1023 1353,916 1407,772 1407,592 1407,412 1353,268 1245,161 1136,54 992,0 813,0 Z"/>
  </g>
  <g id="bullet-char-template-8226" transform="scale(0.00048828125,-0.00048828125)">
   <path d="M 346,457 C 273,457 209,483 155,535 101,586 74,649 74,723 74,796 101,859 155,911 209,963 273,989 346,989 419,989 480,963 531,910 582,859 608,796 608,723 608,648 583,586 532,535 482,483 420,457 346,457 Z"/>
  </g>
  <g id="bullet-char-template-8211" transform="scale(0.00048828125,-0.00048828125)">
   <path d="M -4,459 L 1135,459 1135,606 -4,606 -4,459 Z"/>
  </g>
  <g id="bullet-char-template-61548" transform="scale(0.00048828125,-0.00048828125)">
   <path d="M 173,740 C 173,903 231,1043 346,1159 462,1274 601,1332 765,1332 928,1332 1067,1274 1183,1159 1299,1043 1357,903 1357,740 1357,577 1299,437 1183,322 1067,206 928,148 765,148 601,148 462,206 346,322 231,437 173,577 173,740 Z"/>
  </g>
 </defs>
 <defs class="TextEmbeddedBitmaps"/>
 <g class="SlideGroup">
  <g>
   <g id="container-id1">
    <g id="id1" class="Slide" clip-path="url(#presentation_clip_path)">
     <g class="Page">
      <g class="Group">
       <g class="com.sun.star.drawing.PolyPolygonShape">
        <g id="id3">
         <rect class="BoundingBox" stroke="none" fill="none" x="6462" y="7888" width="9912" height="2581"/>
        </g>
       </g>
       <g class="com.sun.star.drawing.ClosedBezierShape">
        <g id="id4">
         <rect class="BoundingBox" stroke="none" fill="none" x="7867" y="7995" width="134" height="565"/>
         <path fill="rgb(255,99,33)" stroke="none" d="M 7999,8553 C 7999,8552 7999,8551 7989,8540 7919,8470 7901,8364 7901,8277 7901,8180 7923,8081 7992,8011 7999,8004 7999,8003 7999,8000 7999,7997 7997,7995 7993,7995 7988,7995 7937,8034 7903,8105 7874,8167 7867,8229 7867,8277 7867,8322 7874,8389 7905,8453 7939,8523 7988,8558 7993,8558 7997,8558 7999,8557 7999,8553 Z"/>
        </g>
       </g>
       <g class="com.sun.star.drawing.ClosedBezierShape">
        <g id="id5">
         <rect class="BoundingBox" stroke="none" fill="none" x="8079" y="8041" width="189" height="378"/>
         <path fill="rgb(255,99,33)" stroke="none" d="M 8196,8055 C 8196,8043 8196,8041 8184,8041 8148,8077 8098,8077 8080,8077 L 8080,8095 C 8091,8095 8125,8095 8154,8080 L 8154,8373 C 8154,8393 8153,8400 8102,8400 L 8084,8400 8084,8418 C 8103,8415 8153,8415 8175,8415 8198,8415 8246,8415 8267,8418 L 8267,8400 8249,8400 C 8198,8400 8196,8393 8196,8373 L 8196,8055 Z"/>
        </g>
       </g>
       <g class="com.sun.star.drawing.ClosedBezierShape">
        <g id="id6">
         <rect class="BoundingBox" stroke="none" fill="none" x="8333" y="8041" width="240" height="390"/>
         <path fill="rgb(255,99,33)" stroke="none" d="M 8571,8237 C 8571,8191 8569,8146 8548,8104 8523,8050 8477,8041 8452,8041 8419,8041 8377,8055 8354,8108 8336,8148 8333,8191 8333,8237 8333,8279 8336,8329 8359,8373 8383,8418 8424,8429 8452,8429 8483,8429 8525,8418 8551,8364 8569,8325 8571,8281 8571,8237 Z M 8452,8418 C 8431,8418 8396,8404 8386,8348 8381,8315 8381,8263 8381,8229 8381,8194 8381,8156 8385,8126 8396,8059 8438,8054 8452,8054 8470,8054 8507,8064 8519,8119 8524,8151 8524,8194 8524,8229 8524,8272 8524,8310 8518,8346 8510,8400 8478,8418 8452,8418 Z"/>
        </g>
       </g>
       <g class="com.sun.star.drawing.ClosedBezierShape">
        <g id="id7">
         <rect class="BoundingBox" stroke="none" fill="none" x="8611" y="8010" width="244" height="181"/>
         <path fill="rgb(255,99,33)" stroke="none" d="M 8641,8160 C 8639,8165 8637,8176 8637,8177 8637,8186 8644,8190 8651,8190 8657,8190 8664,8185 8666,8181 8667,8177 8671,8164 8673,8156 8675,8149 8679,8131 8682,8121 8684,8112 8687,8103 8688,8094 8693,8077 8693,8075 8705,8058 8716,8043 8734,8022 8765,8022 8788,8022 8788,8041 8788,8049 8788,8073 8771,8117 8765,8133 8760,8145 8758,8149 8758,8155 8758,8176 8776,8190 8795,8190 8835,8190 8853,8135 8853,8128 8853,8123 8848,8123 8847,8123 8842,8123 8840,8126 8839,8131 8830,8162 8813,8178 8797,8178 8789,8178 8788,8173 8788,8164 8788,8155 8789,8150 8797,8132 8801,8119 8817,8078 8817,8055 8817,8017 8787,8011 8766,8011 8733,8011 8711,8031 8699,8046 8696,8020 8673,8011 8657,8011 8639,8011 8630,8023 8625,8032 8616,8046 8611,8069 8611,8071 8611,8076 8616,8076 8618,8076 8624,8076 8624,8075 8627,8064 8633,8041 8641,8022 8656,8022 8666,8022 8669,8030 8669,8041 8669,8049 8665,8063 8662,8075 8660,8085 8656,8101 8653,8109 L 8641,8160 Z"/>
        </g>
       </g>
       <g class="com.sun.star.drawing.ClosedBezierShape">
        <g id="id8">
         <rect class="BoundingBox" stroke="none" fill="none" x="8900" y="7889" width="172" height="397"/>
         <path fill="rgb(255,99,33)" stroke="none" d="M 9068,7907 C 9071,7902 9071,7901 9071,7899 9071,7893 9066,7889 9062,7889 9055,7889 9053,7894 9050,7899 L 8903,8267 C 8900,8272 8900,8273 8900,8274 8900,8281 8906,8284 8909,8284 8917,8284 8918,8279 8921,8274 L 9068,7907 Z"/>
        </g>
       </g>
       <g class="com.sun.star.drawing.ClosedBezierShape">
        <g id="id9">
         <rect class="BoundingBox" stroke="none" fill="none" x="9125" y="7922" width="178" height="264"/>
         <path fill="rgb(255,99,33)" stroke="none" d="M 9301,8113 L 9287,8113 C 9286,8122 9282,8145 9277,8149 9274,8151 9244,8151 9238,8151 L 9165,8151 C 9206,8114 9220,8104 9245,8085 9274,8062 9301,8037 9301,7999 9301,7952 9259,7922 9208,7922 9159,7922 9126,7957 9126,7993 9126,8013 9142,8016 9146,8016 9156,8016 9168,8008 9168,7994 9168,7988 9165,7973 9145,7973 9156,7945 9183,7936 9203,7936 9242,7936 9263,7967 9263,7999 9263,8034 9238,8061 9226,8076 L 9130,8169 C 9126,8173 9126,8174 9126,8185 L 9290,8185 9301,8113 Z"/>
        </g>
       </g>
       <g class="com.sun.star.drawing.ClosedBezierShape">
        <g id="id10">
         <rect class="BoundingBox" stroke="none" fill="none" x="9375" y="8168" width="260" height="257"/>
         <path fill="rgb(255,99,33)" stroke="none" d="M 9564,8204 C 9553,8183 9537,8168 9511,8168 9446,8168 9375,8251 9375,8333 9375,8387 9406,8424 9451,8424 9462,8424 9491,8421 9524,8382 9529,8405 9548,8424 9575,8424 9596,8424 9608,8411 9617,8393 9626,8373 9634,8338 9634,8337 9634,8332 9629,8332 9628,8332 9622,8332 9621,8333 9620,8342 9610,8378 9599,8411 9576,8411 9561,8411 9560,8397 9560,8386 9560,8373 9561,8369 9567,8343 9574,8320 9574,8314 9579,8293 L 9599,8214 C 9603,8197 9603,8197 9603,8195 9603,8185 9597,8180 9588,8180 9574,8180 9565,8192 9564,8204 Z M 9526,8351 C 9524,8361 9524,8361 9516,8372 9491,8402 9468,8411 9452,8411 9424,8411 9415,8380 9415,8359 9415,8331 9433,8260 9447,8235 9464,8201 9489,8181 9512,8181 9549,8181 9557,8227 9557,8231 9557,8233 9556,8237 9555,8240 L 9526,8351 Z"/>
        </g>
       </g>
       <g class="com.sun.star.drawing.ClosedBezierShape">
        <g id="id11">
         <rect class="BoundingBox" stroke="none" fill="none" x="9806" y="8088" width="377" height="378"/>
         <path fill="rgb(255,99,33)" stroke="none" d="M 10006,8288 L 10164,8288 C 10172,8288 10182,8288 10182,8277 10182,8265 10172,8265 10164,8265 L 10006,8265 10006,8108 C 10006,8099 10006,8089 9995,8089 9983,8089 9983,8099 9983,8108 L 9983,8265 9826,8265 C 9817,8265 9807,8265 9807,8277 9807,8288 9817,8288 9826,8288 L 9983,8288 9983,8446 C 9983,8453 9983,8465 9995,8465 10006,8465 10006,8453 10006,8446 L 10006,8288 Z"/>
        </g>
       </g>
       <g class="com.sun.star.drawing.ClosedBezierShape">
        <g id="id12">
         <rect class="BoundingBox" stroke="none" fill="none" x="10364" y="8025" width="211" height="400"/>
         <path fill="rgb(255,99,33)" stroke="none" d="M 10474,8032 C 10474,8031 10474,8026 10466,8026 10453,8026 10412,8031 10397,8031 10393,8032 10387,8032 10387,8043 10387,8050 10392,8050 10399,8050 10428,8050 10429,8054 10429,8059 10429,8063 10424,8082 10420,8094 L 10374,8278 C 10367,8306 10365,8315 10365,8336 10365,8388 10394,8424 10436,8424 10503,8424 10573,8340 10573,8259 10573,8206 10543,8168 10498,8168 10472,8168 10448,8185 10431,8203 L 10474,8032 Z M 10420,8245 C 10424,8233 10424,8232 10429,8226 10457,8188 10483,8181 10497,8181 10517,8181 10532,8197 10532,8233 10532,8267 10513,8332 10503,8354 10485,8391 10458,8411 10436,8411 10417,8411 10399,8396 10399,8355 10399,8343 10399,8333 10408,8297 L 10420,8245 Z"/>
        </g>
       </g>
       <g class="com.sun.star.drawing.ClosedBezierShape">
        <g id="id13">
         <rect class="BoundingBox" stroke="none" fill="none" x="10610" y="7995" width="134" height="565"/>
         <path fill="rgb(255,99,33)" stroke="none" d="M 10742,8277 C 10742,8233 10736,8165 10705,8101 10671,8032 10622,7995 10616,7995 10613,7995 10611,7998 10611,8000 10611,8003 10611,8004 10621,8014 10677,8069 10709,8159 10709,8277 10709,8373 10689,8473 10618,8543 10611,8551 10611,8552 10611,8553 10611,8557 10613,8558 10616,8558 10622,8558 10673,8520 10707,8448 10736,8387 10742,8324 10742,8277 Z"/>
        </g>
       </g>
       <g class="com.sun.star.drawing.ClosedBezierShape">
        <g id="id14">
         <rect class="BoundingBox" stroke="none" fill="none" x="10971" y="8246" width="63" height="63"/>
         <path fill="rgb(255,99,33)" stroke="none" d="M 11033,8277 C 11033,8260 11019,8246 11002,8246 10986,8246 10972,8260 10972,8277 10972,8293 10986,8308 11002,8308 11019,8308 11033,8293 11033,8277 Z"/>
        </g>
       </g>
       <g class="com.sun.star.drawing.ClosedBezierShape">
        <g id="id15">
         <rect class="BoundingBox" stroke="none" fill="none" x="11259" y="7995" width="134" height="565"/>
         <path fill="rgb(255,99,33)" stroke="none" d="M 11391,8553 C 11391,8552 11391,8551 11381,8540 11311,8470 11293,8364 11293,8277 11293,8180 11315,8081 11384,8011 11391,8004 11391,8003 11391,8000 11391,7997 11389,7995 11385,7995 11380,7995 11329,8034 11295,8105 11266,8167 11260,8229 11260,8277 11260,8322 11266,8389 11297,8453 11331,8523 11380,8558 11385,8558 11389,8558 11391,8557 11391,8553 Z"/>
        </g>
       </g>
       <g class="com.sun.star.drawing.ClosedBezierShape">
        <g id="id16">
         <rect class="BoundingBox" stroke="none" fill="none" x="11473" y="8041" width="189" height="378"/>
         <path fill="rgb(255,99,33)" stroke="none" d="M 11590,8055 C 11590,8043 11590,8041 11577,8041 11541,8077 11491,8077 11473,8077 L 11473,8095 C 11485,8095 11518,8095 11548,8080 L 11548,8373 C 11548,8393 11546,8400 11495,8400 L 11477,8400 11477,8418 C 11496,8415 11546,8415 11568,8415 11591,8415 11640,8415 11660,8418 L 11660,8400 11642,8400 C 11591,8400 11590,8393 11590,8373 L 11590,8055 Z"/>
        </g>
       </g>
       <g class="com.sun.star.drawing.ClosedBezierShape">
        <g id="id17">
         <rect class="BoundingBox" stroke="none" fill="none" x="11725" y="8041" width="240" height="390"/>
         <path fill="rgb(255,99,33)" stroke="none" d="M 11964,8237 C 11964,8191 11961,8146 11941,8104 11915,8050 11869,8041 11845,8041 11811,8041 11769,8055 11746,8108 11728,8148 11725,8191 11725,8237 11725,8279 11728,8329 11751,8373 11775,8418 11816,8429 11845,8429 11875,8429 11917,8418 11943,8364 11961,8325 11964,8281 11964,8237 Z M 11845,8418 C 11823,8418 11788,8404 11778,8348 11773,8315 11773,8263 11773,8229 11773,8194 11773,8156 11777,8126 11788,8059 11830,8054 11845,8054 11862,8054 11900,8064 11911,8119 11916,8151 11916,8194 11916,8229 11916,8272 11916,8310 11910,8346 11902,8400 11870,8418 11845,8418 Z"/>
        </g>
       </g>
       <g class="com.sun.star.drawing.ClosedBezierShape">
        <g id="id18">
         <rect class="BoundingBox" stroke="none" fill="none" x="12003" y="8010" width="244" height="181"/>
         <path fill="rgb(255,99,33)" stroke="none" d="M 12033,8160 C 12031,8165 12029,8176 12029,8177 12029,8186 12037,8190 12043,8190 12049,8190 12056,8185 12058,8181 12060,8177 12063,8164 12065,8156 12067,8149 12071,8131 12074,8121 12076,8112 12079,8103 12080,8094 12085,8077 12085,8075 12097,8058 12108,8043 12126,8022 12157,8022 12180,8022 12180,8041 12180,8049 12180,8073 12163,8117 12157,8133 12152,8145 12150,8149 12150,8155 12150,8176 12168,8190 12188,8190 12227,8190 12245,8135 12245,8128 12245,8123 12240,8123 12239,8123 12234,8123 12232,8126 12231,8131 12222,8162 12205,8178 12189,8178 12181,8178 12180,8173 12180,8164 12180,8155 12181,8150 12189,8132 12193,8119 12209,8078 12209,8055 12209,8017 12179,8011 12158,8011 12125,8011 12103,8031 12092,8046 12088,8020 12065,8011 12049,8011 12031,8011 12022,8023 12017,8032 12008,8046 12003,8069 12003,8071 12003,8076 12008,8076 12010,8076 12016,8076 12016,8075 12019,8064 12025,8041 12033,8022 12048,8022 12058,8022 12061,8030 12061,8041 12061,8049 12057,8063 12054,8075 12052,8085 12048,8101 12045,8109 L 12033,8160 Z"/>
        </g>
       </g>
       <g class="com.sun.star.drawing.ClosedBezierShape">
        <g id="id19">
         <rect class="BoundingBox" stroke="none" fill="none" x="12293" y="7889" width="173" height="397"/>
         <path fill="rgb(255,99,33)" stroke="none" d="M 12462,7907 C 12464,7902 12464,7901 12464,7899 12464,7893 12459,7889 12455,7889 12449,7889 12446,7894 12444,7899 L 12296,8267 C 12294,8272 12294,8273 12294,8274 12294,8281 12299,8284 12303,8284 12310,8284 12312,8279 12314,8274 L 12462,7907 Z"/>
        </g>
       </g>
       <g class="com.sun.star.drawing.ClosedBezierShape">
        <g id="id20">
         <rect class="BoundingBox" stroke="none" fill="none" x="12517" y="7922" width="178" height="264"/>
         <path fill="rgb(255,99,33)" stroke="none" d="M 12693,8113 L 12679,8113 C 12678,8122 12674,8145 12669,8149 12666,8151 12636,8151 12630,8151 L 12558,8151 C 12598,8114 12613,8104 12637,8085 12666,8062 12693,8037 12693,7999 12693,7952 12651,7922 12600,7922 12551,7922 12518,7957 12518,7993 12518,8013 12534,8016 12538,8016 12549,8016 12560,8008 12560,7994 12560,7988 12558,7973 12537,7973 12549,7945 12575,7936 12595,7936 12634,7936 12655,7967 12655,7999 12655,8034 12630,8061 12618,8076 L 12522,8169 C 12518,8173 12518,8174 12518,8185 L 12682,8185 12693,8113 Z"/>
        </g>
       </g>
       <g class="com.sun.star.drawing.ClosedBezierShape">
        <g id="id21">
         <rect class="BoundingBox" stroke="none" fill="none" x="12768" y="8168" width="222" height="257"/>
         <path fill="rgb(255,99,33)" stroke="none" d="M 12970,8203 C 12961,8203 12953,8203 12944,8212 12935,8219 12934,8229 12934,8233 12934,8246 12944,8252 12956,8252 12972,8252 12988,8240 12988,8217 12988,8188 12961,8168 12920,8168 12844,8168 12769,8249 12769,8328 12769,8379 12802,8424 12861,8424 12942,8424 12989,8364 12989,8357 12989,8354 12985,8350 12982,8350 12979,8350 12977,8351 12975,8356 12930,8411 12869,8411 12861,8411 12826,8411 12811,8384 12811,8350 12811,8327 12822,8272 12842,8237 12858,8205 12890,8181 12921,8181 12940,8181 12962,8187 12970,8203 Z"/>
        </g>
       </g>
       <g class="com.sun.star.drawing.ClosedBezierShape">
        <g id="id22">
         <rect class="BoundingBox" stroke="none" fill="none" x="13145" y="8088" width="377" height="378"/>
         <path fill="rgb(255,99,33)" stroke="none" d="M 13345,8288 L 13502,8288 C 13510,8288 13520,8288 13520,8277 13520,8265 13510,8265 13502,8265 L 13345,8265 13345,8108 C 13345,8099 13345,8089 13333,8089 13322,8089 13322,8099 13322,8108 L 13322,8265 13164,8265 C 13155,8265 13145,8265 13145,8277 13145,8288 13155,8288 13164,8288 L 13322,8288 13322,8446 C 13322,8453 13322,8465 13333,8465 13345,8465 13345,8453 13345,8446 L 13345,8288 Z"/>
        </g>
       </g>
       <g class="com.sun.star.drawing.ClosedBezierShape">
        <g id="id23">
         <rect class="BoundingBox" stroke="none" fill="none" x="13699" y="8025" width="271" height="400"/>
         <path fill="rgb(255,99,33)" stroke="none" d="M 13968,8032 C 13968,8031 13968,8026 13960,8026 13953,8026 13899,8031 13889,8032 13885,8032 13881,8035 13881,8043 13881,8050 13886,8050 13895,8050 13922,8050 13923,8054 13923,8059 L 13921,8071 13887,8204 C 13877,8183 13861,8168 13835,8168 13770,8168 13699,8251 13699,8333 13699,8387 13730,8424 13775,8424 13786,8424 13814,8421 13848,8382 13853,8405 13872,8424 13899,8424 13919,8424 13932,8411 13941,8392 13950,8373 13958,8338 13958,8337 13958,8331 13953,8331 13951,8331 13945,8331 13945,8333 13944,8341 13934,8378 13923,8411 13900,8411 13885,8411 13884,8397 13884,8386 13884,8372 13885,8368 13887,8359 L 13968,8032 Z M 13850,8350 C 13848,8360 13848,8361 13839,8372 13814,8402 13791,8411 13776,8411 13748,8411 13739,8380 13739,8359 13739,8331 13757,8260 13771,8235 13788,8201 13813,8181 13836,8181 13872,8181 13881,8227 13881,8231 13881,8233 13880,8237 13878,8240 L 13850,8350 Z"/>
        </g>
       </g>
       <g class="com.sun.star.drawing.ClosedBezierShape">
        <g id="id24">
         <rect class="BoundingBox" stroke="none" fill="none" x="14001" y="7995" width="134" height="565"/>
         <path fill="rgb(255,99,33)" stroke="none" d="M 14133,8277 C 14133,8233 14127,8165 14096,8101 14062,8032 14013,7995 14007,7995 14004,7995 14001,7998 14001,8000 14001,8003 14001,8004 14012,8014 14068,8069 14100,8159 14100,8277 14100,8373 14079,8473 14009,8543 14001,8551 14001,8552 14001,8553 14001,8557 14004,8558 14007,8558 14013,8558 14064,8520 14097,8448 14127,8387 14133,8324 14133,8277 Z"/>
        </g>
       </g>
       <g class="com.sun.star.drawing.ClosedBezierShape">
        <g id="id25">
         <rect class="BoundingBox" stroke="none" fill="none" x="6511" y="8996" width="189" height="378"/>
         <path fill="rgb(255,99,33)" stroke="none" d="M 6628,9010 C 6628,8997 6628,8996 6614,8996 6580,9032 6530,9032 6512,9032 L 6512,9050 C 6523,9050 6557,9050 6586,9035 L 6586,9328 C 6586,9348 6585,9354 6534,9354 L 6516,9354 6516,9372 C 6535,9370 6585,9370 6607,9370 6630,9370 6678,9370 6699,9372 L 6699,9354 6681,9354 C 6630,9354 6628,9348 6628,9328 L 6628,9010 Z"/>
        </g>
       </g>
       <g class="com.sun.star.drawing.ClosedBezierShape">
        <g id="id26">
         <rect class="BoundingBox" stroke="none" fill="none" x="6765" y="8996" width="240" height="389"/>
         <path fill="rgb(255,99,33)" stroke="none" d="M 7003,9192 C 7003,9146 7001,9101 6980,9059 6955,9005 6909,8996 6884,8996 6851,8996 6809,9010 6786,9063 6768,9102 6765,9146 6765,9192 6765,9234 6768,9284 6791,9328 6815,9372 6856,9384 6884,9384 6915,9384 6957,9372 6983,9319 7001,9280 7003,9235 7003,9192 Z M 6884,9372 C 6863,9372 6828,9358 6819,9303 6813,9270 6813,9218 6813,9184 6813,9148 6813,9111 6817,9081 6828,9014 6870,9009 6884,9009 6902,9009 6941,9019 6951,9074 6956,9106 6956,9148 6956,9184 6956,9226 6956,9265 6950,9301 6942,9354 6910,9372 6884,9372 Z"/>
        </g>
       </g>
       <g class="com.sun.star.drawing.ClosedBezierShape">
        <g id="id27">
         <rect class="BoundingBox" stroke="none" fill="none" x="7043" y="8965" width="244" height="181"/>
         <path fill="rgb(255,99,33)" stroke="none" d="M 7073,9115 C 7071,9120 7069,9131 7069,9132 7069,9141 7076,9145 7083,9145 7089,9145 7096,9139 7098,9136 7099,9132 7103,9119 7105,9111 7107,9104 7111,9086 7114,9075 7116,9067 7119,9058 7120,9049 7125,9032 7125,9029 7137,9013 7148,8997 7166,8977 7197,8977 7220,8977 7220,8996 7220,9004 7220,9028 7203,9072 7197,9088 7192,9100 7190,9104 7190,9110 7190,9131 7208,9145 7227,9145 7267,9145 7285,9090 7285,9083 7285,9078 7280,9078 7279,9078 7274,9078 7272,9081 7271,9086 7262,9116 7245,9133 7229,9133 7221,9133 7220,9128 7220,9119 7220,9110 7221,9105 7229,9087 7233,9074 7249,9033 7249,9010 7249,8972 7218,8965 7198,8965 7165,8965 7143,8986 7131,9001 7128,8974 7105,8965 7089,8965 7071,8965 7062,8978 7057,8987 7048,9001 7043,9024 7043,9026 7043,9031 7048,9031 7050,9031 7056,9031 7056,9029 7058,9019 7065,8996 7073,8977 7088,8977 7098,8977 7101,8985 7101,8996 7101,9004 7097,9018 7094,9029 7092,9040 7088,9056 7085,9064 L 7073,9115 Z"/>
        </g>
       </g>
       <g class="com.sun.star.drawing.ClosedBezierShape">
        <g id="id28">
         <rect class="BoundingBox" stroke="none" fill="none" x="7352" y="9122" width="261" height="258"/>
         <path fill="rgb(255,99,33)" stroke="none" d="M 7541,9159 C 7531,9138 7514,9123 7489,9123 7423,9123 7353,9206 7353,9288 7353,9342 7384,9379 7428,9379 7440,9379 7468,9376 7501,9337 7507,9360 7526,9379 7553,9379 7573,9379 7586,9366 7595,9348 7604,9328 7611,9293 7611,9292 7611,9287 7606,9287 7605,9287 7600,9287 7599,9288 7597,9297 7587,9333 7577,9366 7554,9366 7539,9366 7537,9352 7537,9340 7537,9328 7539,9324 7545,9298 7551,9275 7551,9269 7556,9248 L 7577,9169 C 7581,9152 7581,9152 7581,9150 7581,9139 7574,9134 7565,9134 7551,9134 7542,9147 7541,9159 Z M 7504,9306 C 7501,9316 7501,9316 7494,9326 7468,9357 7445,9366 7430,9366 7402,9366 7393,9335 7393,9314 7393,9285 7412,9215 7425,9189 7441,9156 7467,9136 7490,9136 7527,9136 7535,9182 7535,9186 7535,9188 7533,9192 7532,9194 L 7504,9306 Z"/>
        </g>
       </g>
       <g class="com.sun.star.drawing.ClosedBezierShape">
        <g id="id29">
         <rect class="BoundingBox" stroke="none" fill="none" x="7651" y="9122" width="222" height="258"/>
         <path fill="rgb(255,99,33)" stroke="none" d="M 7852,9157 C 7843,9157 7835,9157 7827,9166 7818,9174 7816,9184 7816,9188 7816,9201 7827,9207 7838,9207 7855,9207 7870,9194 7870,9171 7870,9143 7843,9123 7802,9123 7727,9123 7651,9203 7651,9283 7651,9334 7684,9379 7743,9379 7824,9379 7871,9319 7871,9312 7871,9308 7867,9305 7865,9305 7861,9305 7860,9306 7857,9311 7812,9366 7751,9366 7743,9366 7709,9366 7693,9339 7693,9305 7693,9282 7705,9226 7724,9192 7741,9160 7773,9136 7803,9136 7823,9136 7844,9142 7852,9157 Z"/>
        </g>
       </g>
       <g class="com.sun.star.drawing.ClosedBezierShape">
        <g id="id30">
         <rect class="BoundingBox" stroke="none" fill="none" x="8027" y="9043" width="377" height="378"/>
         <path fill="rgb(255,99,33)" stroke="none" d="M 8227,9243 L 8385,9243 C 8392,9243 8403,9243 8403,9232 8403,9220 8392,9220 8385,9220 L 8227,9220 8227,9063 C 8227,9054 8227,9043 8216,9043 8204,9043 8204,9054 8204,9063 L 8204,9220 8047,9220 C 8038,9220 8027,9220 8027,9232 8027,9243 8038,9243 8047,9243 L 8204,9243 8204,9401 C 8204,9408 8204,9420 8216,9420 8227,9420 8227,9408 8227,9401 L 8227,9243 Z"/>
        </g>
       </g>
       <g class="com.sun.star.drawing.ClosedBezierShape">
        <g id="id31">
         <rect class="BoundingBox" stroke="none" fill="none" x="8608" y="8996" width="189" height="378"/>
         <path fill="rgb(255,99,33)" stroke="none" d="M 8725,9010 C 8725,8997 8725,8996 8711,8996 8676,9032 8627,9032 8609,9032 L 8609,9050 C 8620,9050 8653,9050 8683,9035 L 8683,9328 C 8683,9348 8682,9354 8630,9354 L 8612,9354 8612,9372 C 8632,9370 8682,9370 8703,9370 8726,9370 8775,9370 8795,9372 L 8795,9354 8778,9354 C 8726,9354 8725,9348 8725,9328 L 8725,9010 Z"/>
        </g>
       </g>
       <g class="com.sun.star.drawing.ClosedBezierShape">
        <g id="id32">
         <rect class="BoundingBox" stroke="none" fill="none" x="8862" y="8996" width="240" height="389"/>
         <path fill="rgb(255,99,33)" stroke="none" d="M 9100,9192 C 9100,9146 9098,9101 9077,9059 9052,9005 9005,8996 8981,8996 8948,8996 8906,9010 8883,9063 8865,9102 8862,9146 8862,9192 8862,9234 8865,9284 8888,9328 8912,9372 8953,9384 8981,9384 9012,9384 9054,9372 9080,9319 9098,9280 9100,9235 9100,9192 Z M 8981,9372 C 8959,9372 8925,9358 8915,9303 8909,9270 8909,9218 8909,9184 8909,9148 8909,9111 8913,9081 8925,9014 8967,9009 8981,9009 8999,9009 9036,9019 9048,9074 9053,9106 9053,9148 9053,9184 9053,9226 9053,9265 9046,9301 9039,9354 9007,9372 8981,9372 Z"/>
        </g>
       </g>
       <g class="com.sun.star.drawing.ClosedBezierShape">
        <g id="id33">
         <rect class="BoundingBox" stroke="none" fill="none" x="9139" y="8965" width="244" height="181"/>
         <path fill="rgb(255,99,33)" stroke="none" d="M 9169,9115 C 9168,9120 9165,9131 9165,9132 9165,9141 9173,9145 9180,9145 9186,9145 9192,9139 9195,9136 9196,9132 9200,9119 9201,9111 9204,9104 9208,9086 9210,9075 9213,9067 9215,9058 9217,9049 9222,9032 9222,9029 9233,9013 9245,8997 9263,8977 9293,8977 9316,8977 9316,8996 9316,9004 9316,9028 9300,9072 9293,9088 9288,9100 9287,9104 9287,9110 9287,9131 9305,9145 9324,9145 9364,9145 9382,9090 9382,9083 9382,9078 9377,9078 9375,9078 9370,9078 9369,9081 9368,9086 9359,9116 9342,9133 9325,9133 9318,9133 9316,9128 9316,9119 9316,9110 9318,9105 9325,9087 9329,9074 9346,9033 9346,9010 9346,8972 9315,8965 9295,8965 9261,8965 9240,8986 9228,9001 9224,8974 9201,8965 9186,8965 9168,8965 9159,8978 9154,8987 9145,9001 9140,9024 9140,9026 9140,9031 9145,9031 9146,9031 9153,9031 9153,9029 9155,9019 9162,8996 9169,8977 9185,8977 9195,8977 9197,8985 9197,8996 9197,9004 9194,9018 9191,9029 9188,9040 9185,9056 9182,9064 L 9169,9115 Z"/>
        </g>
       </g>
       <g class="com.sun.star.drawing.ClosedBezierShape">
        <g id="id34">
         <rect class="BoundingBox" stroke="none" fill="none" x="9429" y="8843" width="172" height="398"/>
         <path fill="rgb(255,99,33)" stroke="none" d="M 9597,8862 C 9599,8857 9599,8855 9599,8854 9599,8848 9594,8844 9590,8844 9584,8844 9581,8849 9579,8854 L 9432,9221 C 9429,9226 9429,9228 9429,9229 9429,9235 9434,9239 9438,9239 9446,9239 9447,9234 9450,9229 L 9597,8862 Z"/>
        </g>
       </g>
       <g class="com.sun.star.drawing.ClosedBezierShape">
        <g id="id35">
         <rect class="BoundingBox" stroke="none" fill="none" x="9654" y="8877" width="177" height="264"/>
         <path fill="rgb(255,99,33)" stroke="none" d="M 9830,9068 L 9816,9068 C 9814,9077 9811,9100 9805,9104 9803,9106 9772,9106 9767,9106 L 9694,9106 C 9735,9069 9749,9059 9773,9040 9803,9017 9830,8992 9830,8954 9830,8907 9788,8877 9736,8877 9688,8877 9654,8912 9654,8947 9654,8968 9671,8971 9675,8971 9685,8971 9697,8963 9697,8949 9697,8942 9694,8928 9674,8928 9685,8900 9712,8891 9731,8891 9771,8891 9791,8922 9791,8954 9791,8988 9767,9015 9754,9031 L 9658,9124 C 9654,9128 9654,9129 9654,9139 L 9818,9139 9830,9068 Z"/>
        </g>
       </g>
       <g class="com.sun.star.drawing.ClosedBezierShape">
        <g id="id36">
         <rect class="BoundingBox" stroke="none" fill="none" x="9904" y="9122" width="260" height="258"/>
         <path fill="rgb(255,99,33)" stroke="none" d="M 10092,9159 C 10082,9138 10065,9123 10040,9123 9974,9123 9904,9206 9904,9288 9904,9342 9935,9379 9980,9379 9991,9379 10019,9376 10052,9337 10058,9360 10077,9379 10104,9379 10124,9379 10137,9366 10146,9348 10155,9328 10163,9293 10163,9292 10163,9287 10157,9287 10156,9287 10151,9287 10150,9288 10148,9297 10138,9333 10128,9366 10105,9366 10090,9366 10088,9352 10088,9340 10088,9328 10090,9324 10096,9298 10102,9275 10102,9269 10108,9248 L 10128,9169 C 10132,9152 10132,9152 10132,9150 10132,9139 10125,9134 10116,9134 10102,9134 10093,9147 10092,9159 Z M 10055,9306 C 10052,9316 10052,9316 10045,9326 10019,9357 9996,9366 9981,9366 9953,9366 9944,9335 9944,9314 9944,9285 9962,9215 9976,9189 9992,9156 10018,9136 10041,9136 10078,9136 10086,9182 10086,9186 10086,9188 10084,9192 10083,9194 L 10055,9306 Z"/>
        </g>
       </g>
       <g class="com.sun.star.drawing.ClosedBezierShape">
        <g id="id37">
         <rect class="BoundingBox" stroke="none" fill="none" x="10200" y="8980" width="271" height="400"/>
         <path fill="rgb(255,99,33)" stroke="none" d="M 10470,8987 C 10470,8986 10470,8981 10462,8981 10454,8981 10401,8986 10390,8987 10387,8987 10383,8990 10383,8997 10383,9005 10388,9005 10397,9005 10424,9005 10425,9009 10425,9014 L 10424,9026 10389,9159 C 10379,9138 10362,9123 10337,9123 10271,9123 10201,9206 10201,9288 10201,9342 10232,9379 10276,9379 10288,9379 10316,9376 10349,9337 10355,9360 10374,9379 10401,9379 10421,9379 10434,9366 10443,9347 10452,9328 10460,9293 10460,9292 10460,9285 10454,9285 10453,9285 10447,9285 10447,9288 10445,9296 10435,9333 10425,9366 10402,9366 10387,9366 10385,9352 10385,9340 10385,9326 10387,9322 10389,9314 L 10470,8987 Z M 10352,9305 C 10349,9315 10349,9316 10340,9326 10316,9357 10293,9366 10278,9366 10250,9366 10241,9335 10241,9314 10241,9285 10260,9215 10273,9189 10289,9156 10315,9136 10338,9136 10375,9136 10383,9182 10383,9186 10383,9188 10381,9192 10380,9194 L 10352,9305 Z"/>
        </g>
       </g>
       <g class="com.sun.star.drawing.ClosedBezierShape">
        <g id="id38">
         <rect class="BoundingBox" stroke="none" fill="none" x="10627" y="9043" width="377" height="378"/>
         <path fill="rgb(255,99,33)" stroke="none" d="M 10827,9243 L 10984,9243 C 10992,9243 11002,9243 11002,9232 11002,9220 10992,9220 10984,9220 L 10827,9220 10827,9063 C 10827,9054 10827,9043 10815,9043 10804,9043 10804,9054 10804,9063 L 10804,9220 10646,9220 C 10637,9220 10627,9220 10627,9232 10627,9243 10637,9243 10646,9243 L 10804,9243 10804,9401 C 10804,9408 10804,9420 10815,9420 10827,9420 10827,9408 10827,9401 L 10827,9243 Z"/>
        </g>
       </g>
       <g class="com.sun.star.drawing.ClosedBezierShape">
        <g id="id39">
         <rect class="BoundingBox" stroke="none" fill="none" x="11208" y="8996" width="189" height="378"/>
         <path fill="rgb(255,99,33)" stroke="none" d="M 11325,9010 C 11325,8997 11325,8996 11312,8996 11276,9032 11226,9032 11208,9032 L 11208,9050 C 11220,9050 11253,9050 11283,9035 L 11283,9328 C 11283,9348 11281,9354 11230,9354 L 11212,9354 11212,9372 C 11231,9370 11281,9370 11303,9370 11326,9370 11375,9370 11395,9372 L 11395,9354 11377,9354 C 11326,9354 11325,9348 11325,9328 L 11325,9010 Z"/>
        </g>
       </g>
       <g class="com.sun.star.drawing.ClosedBezierShape">
        <g id="id40">
         <rect class="BoundingBox" stroke="none" fill="none" x="11461" y="8996" width="240" height="389"/>
         <path fill="rgb(255,99,33)" stroke="none" d="M 11700,9192 C 11700,9146 11697,9101 11677,9059 11651,9005 11605,8996 11581,8996 11548,8996 11505,9010 11482,9063 11464,9102 11462,9146 11462,9192 11462,9234 11464,9284 11487,9328 11512,9372 11553,9384 11581,9384 11612,9384 11654,9372 11679,9319 11697,9280 11700,9235 11700,9192 Z M 11581,9372 C 11559,9372 11525,9358 11514,9303 11509,9270 11509,9218 11509,9184 11509,9148 11509,9111 11513,9081 11525,9014 11567,9009 11581,9009 11599,9009 11636,9019 11647,9074 11653,9106 11653,9148 11653,9184 11653,9226 11653,9265 11646,9301 11638,9354 11606,9372 11581,9372 Z"/>
        </g>
       </g>
       <g class="com.sun.star.drawing.ClosedBezierShape">
        <g id="id41">
         <rect class="BoundingBox" stroke="none" fill="none" x="11739" y="8965" width="244" height="181"/>
         <path fill="rgb(255,99,33)" stroke="none" d="M 11769,9115 C 11768,9120 11765,9131 11765,9132 11765,9141 11773,9145 11779,9145 11786,9145 11792,9139 11795,9136 11796,9132 11800,9119 11801,9111 11804,9104 11807,9086 11810,9075 11813,9067 11815,9058 11816,9049 11821,9032 11821,9029 11833,9013 11845,8997 11862,8977 11893,8977 11916,8977 11916,8996 11916,9004 11916,9028 11900,9072 11893,9088 11888,9100 11887,9104 11887,9110 11887,9131 11905,9145 11924,9145 11964,9145 11981,9090 11981,9083 11981,9078 11976,9078 11975,9078 11970,9078 11969,9081 11967,9086 11958,9116 11942,9133 11925,9133 11917,9133 11916,9128 11916,9119 11916,9110 11917,9105 11925,9087 11929,9074 11946,9033 11946,9010 11946,8972 11915,8965 11894,8965 11861,8965 11839,8986 11828,9001 11824,8974 11801,8965 11786,8965 11768,8965 11759,8978 11754,8987 11745,9001 11740,9024 11740,9026 11740,9031 11745,9031 11746,9031 11752,9031 11752,9029 11755,9019 11761,8996 11769,8977 11784,8977 11795,8977 11797,8985 11797,8996 11797,9004 11793,9018 11791,9029 11788,9040 11784,9056 11782,9064 L 11769,9115 Z"/>
        </g>
       </g>
       <g class="com.sun.star.drawing.ClosedBezierShape">
        <g id="id42">
         <rect class="BoundingBox" stroke="none" fill="none" x="12028" y="8843" width="173" height="398"/>
         <path fill="rgb(255,99,33)" stroke="none" d="M 12197,8862 C 12199,8857 12199,8855 12199,8854 12199,8848 12194,8844 12190,8844 12184,8844 12181,8849 12179,8854 L 12031,9221 C 12029,9226 12029,9228 12029,9229 12029,9235 12034,9239 12038,9239 12045,9239 12047,9234 12049,9229 L 12197,8862 Z"/>
        </g>
       </g>
       <g class="com.sun.star.drawing.ClosedBezierShape">
        <g id="id43">
         <rect class="BoundingBox" stroke="none" fill="none" x="12254" y="8877" width="177" height="264"/>
         <path fill="rgb(255,99,33)" stroke="none" d="M 12430,9068 L 12415,9068 C 12414,9077 12410,9100 12405,9104 12403,9106 12372,9106 12367,9106 L 12294,9106 C 12335,9069 12349,9059 12373,9040 12403,9017 12430,8992 12430,8954 12430,8907 12387,8877 12336,8877 12287,8877 12254,8912 12254,8947 12254,8968 12271,8971 12275,8971 12285,8971 12296,8963 12296,8949 12296,8942 12294,8928 12273,8928 12285,8900 12312,8891 12331,8891 12371,8891 12391,8922 12391,8954 12391,8988 12367,9015 12354,9031 L 12258,9124 C 12254,9128 12254,9129 12254,9139 L 12418,9139 12430,9068 Z"/>
        </g>
       </g>
       <g class="com.sun.star.drawing.ClosedBezierShape">
        <g id="id44">
         <rect class="BoundingBox" stroke="none" fill="none" x="12507" y="8980" width="211" height="400"/>
         <path fill="rgb(255,99,33)" stroke="none" d="M 12616,8987 C 12616,8986 12616,8981 12609,8981 12596,8981 12555,8986 12540,8986 12536,8987 12529,8987 12529,8997 12529,9005 12534,9005 12542,9005 12570,9005 12572,9009 12572,9014 12572,9018 12566,9037 12563,9049 L 12517,9233 C 12510,9261 12508,9270 12508,9290 12508,9343 12537,9379 12579,9379 12646,9379 12716,9294 12716,9214 12716,9161 12686,9123 12641,9123 12615,9123 12591,9139 12574,9157 L 12616,8987 Z M 12563,9200 C 12566,9188 12566,9187 12572,9180 12600,9143 12624,9136 12639,9136 12660,9136 12675,9152 12675,9188 12675,9221 12656,9287 12646,9308 12628,9346 12601,9366 12579,9366 12560,9366 12542,9351 12542,9310 12542,9298 12542,9288 12551,9252 L 12563,9200 Z"/>
        </g>
       </g>
       <g class="com.sun.star.drawing.ClosedBezierShape">
        <g id="id45">
         <rect class="BoundingBox" stroke="none" fill="none" x="12745" y="9122" width="222" height="258"/>
         <path fill="rgb(255,99,33)" stroke="none" d="M 12947,9157 C 12938,9157 12930,9157 12921,9166 12912,9174 12911,9184 12911,9188 12911,9201 12921,9207 12933,9207 12949,9207 12965,9194 12965,9171 12965,9143 12938,9123 12897,9123 12821,9123 12746,9203 12746,9283 12746,9334 12779,9379 12838,9379 12918,9379 12966,9319 12966,9312 12966,9308 12962,9305 12959,9305 12956,9305 12954,9306 12952,9311 12907,9366 12846,9366 12838,9366 12803,9366 12788,9339 12788,9305 12788,9282 12799,9226 12819,9192 12835,9160 12867,9136 12898,9136 12917,9136 12939,9142 12947,9157 Z"/>
        </g>
       </g>
       <g class="com.sun.star.drawing.ClosedBezierShape">
        <g id="id46">
         <rect class="BoundingBox" stroke="none" fill="none" x="13123" y="9043" width="377" height="378"/>
         <path fill="rgb(255,99,33)" stroke="none" d="M 13323,9243 L 13480,9243 C 13488,9243 13498,9243 13498,9232 13498,9220 13488,9220 13480,9220 L 13323,9220 13323,9063 C 13323,9054 13323,9043 13311,9043 13300,9043 13300,9054 13300,9063 L 13300,9220 13142,9220 C 13134,9220 13123,9220 13123,9232 13123,9243 13134,9243 13142,9243 L 13300,9243 13300,9401 C 13300,9408 13300,9420 13311,9420 13323,9420 13323,9408 13323,9401 L 13323,9243 Z"/>
        </g>
       </g>
       <g class="com.sun.star.drawing.ClosedBezierShape">
        <g id="id47">
         <rect class="BoundingBox" stroke="none" fill="none" x="13680" y="8980" width="210" height="400"/>
         <path fill="rgb(255,99,33)" stroke="none" d="M 13789,8987 C 13789,8986 13789,8981 13781,8981 13768,8981 13727,8986 13712,8986 13708,8987 13702,8987 13702,8997 13702,9005 13707,9005 13715,9005 13743,9005 13744,9009 13744,9014 13744,9018 13739,9037 13735,9049 L 13689,9233 C 13683,9261 13680,9270 13680,9290 13680,9343 13710,9379 13752,9379 13818,9379 13889,9294 13889,9214 13889,9161 13858,9123 13813,9123 13788,9123 13763,9139 13747,9157 L 13789,8987 Z M 13735,9200 C 13739,9188 13739,9187 13744,9180 13772,9143 13798,9136 13812,9136 13832,9136 13848,9152 13848,9188 13848,9221 13829,9287 13818,9308 13800,9346 13774,9366 13752,9366 13733,9366 13715,9351 13715,9310 13715,9298 13715,9288 13724,9252 L 13735,9200 Z"/>
        </g>
       </g>
       <g class="com.sun.star.drawing.ClosedBezierShape">
        <g id="id48">
         <rect class="BoundingBox" stroke="none" fill="none" x="13916" y="8980" width="271" height="400"/>
         <path fill="rgb(255,99,33)" stroke="none" d="M 14186,8987 C 14186,8986 14186,8981 14178,8981 14170,8981 14117,8986 14106,8987 14103,8987 14099,8990 14099,8997 14099,9005 14104,9005 14113,9005 14140,9005 14141,9009 14141,9014 L 14140,9026 14105,9159 C 14095,9138 14078,9123 14053,9123 13987,9123 13917,9206 13917,9288 13917,9342 13948,9379 13992,9379 14004,9379 14032,9376 14065,9337 14071,9360 14090,9379 14117,9379 14137,9379 14150,9366 14159,9347 14168,9328 14175,9293 14175,9292 14175,9285 14170,9285 14169,9285 14163,9285 14163,9288 14161,9296 14151,9333 14141,9366 14118,9366 14103,9366 14101,9352 14101,9340 14101,9326 14103,9322 14105,9314 L 14186,8987 Z M 14068,9305 C 14065,9315 14065,9316 14056,9326 14032,9357 14009,9366 13994,9366 13966,9366 13957,9335 13957,9314 13957,9285 13975,9215 13989,9189 14005,9156 14031,9136 14054,9136 14091,9136 14099,9182 14099,9186 14099,9188 14097,9192 14096,9194 L 14068,9305 Z"/>
        </g>
       </g>
       <g class="com.sun.star.drawing.ClosedBezierShape">
        <g id="id49">
         <rect class="BoundingBox" stroke="none" fill="none" x="7397" y="9950" width="189" height="379"/>
         <path fill="rgb(255,99,33)" stroke="none" d="M 7514,9965 C 7514,9952 7514,9951 7500,9951 7466,9987 7416,9987 7398,9987 L 7398,10005 C 7409,10005 7443,10005 7472,9989 L 7472,10282 C 7472,10303 7471,10309 7419,10309 L 7402,10309 7402,10327 C 7421,10325 7471,10325 7492,10325 7515,10325 7564,10325 7585,10327 L 7585,10309 7567,10309 C 7515,10309 7514,10303 7514,10282 L 7514,9965 Z"/>
        </g>
       </g>
       <g class="com.sun.star.drawing.ClosedBezierShape">
        <g id="id50">
         <rect class="BoundingBox" stroke="none" fill="none" x="7651" y="9950" width="240" height="390"/>
         <path fill="rgb(255,99,33)" stroke="none" d="M 7889,10147 C 7889,10101 7887,10056 7866,10014 7841,9960 7795,9951 7770,9951 7737,9951 7695,9965 7672,10017 7654,10057 7651,10101 7651,10147 7651,10189 7654,10239 7677,10282 7701,10327 7742,10339 7770,10339 7801,10339 7843,10327 7869,10273 7887,10235 7889,10190 7889,10147 Z M 7770,10327 C 7748,10327 7714,10313 7705,10258 7699,10225 7699,10172 7699,10139 7699,10103 7699,10066 7702,10035 7714,9969 7756,9964 7770,9964 7788,9964 7827,9974 7837,10029 7842,10061 7842,10103 7842,10139 7842,10181 7842,10220 7835,10256 7828,10309 7796,10327 7770,10327 Z"/>
        </g>
       </g>
       <g class="com.sun.star.drawing.ClosedBezierShape">
        <g id="id51">
         <rect class="BoundingBox" stroke="none" fill="none" x="7928" y="9920" width="244" height="181"/>
         <path fill="rgb(255,99,33)" stroke="none" d="M 7958,10070 C 7957,10075 7955,10085 7955,10087 7955,10096 7962,10099 7969,10099 7975,10099 7981,10094 7984,10090 7985,10087 7989,10074 7990,10066 7993,10058 7997,10041 7999,10030 8002,10021 8004,10012 8006,10003 8011,9987 8011,9984 8022,9968 8034,9952 8052,9932 8083,9932 8106,9932 8106,9951 8106,9959 8106,9983 8089,10026 8083,10043 8077,10055 8076,10058 8076,10065 8076,10085 8094,10099 8113,10099 8153,10099 8171,10044 8171,10038 8171,10033 8166,10033 8164,10033 8159,10033 8158,10035 8157,10041 8148,10071 8131,10088 8115,10088 8107,10088 8106,10083 8106,10074 8106,10065 8107,10060 8115,10042 8118,10029 8135,9988 8135,9965 8135,9927 8104,9920 8084,9920 8051,9920 8029,9941 8017,9956 8013,9929 7990,9920 7975,9920 7957,9920 7948,9933 7943,9942 7934,9956 7929,9979 7929,9980 7929,9985 7934,9985 7935,9985 7942,9985 7942,9984 7944,9974 7951,9951 7958,9932 7974,9932 7984,9932 7987,9939 7987,9951 7987,9959 7983,9973 7980,9984 7978,9994 7974,10011 7971,10019 L 7958,10070 Z"/>
        </g>
       </g>
       <g class="com.sun.star.drawing.ClosedBezierShape">
        <g id="id52">
         <rect class="BoundingBox" stroke="none" fill="none" x="8238" y="10077" width="261" height="258"/>
         <path fill="rgb(255,99,33)" stroke="none" d="M 8427,10113 C 8417,10093 8400,10078 8374,10078 8309,10078 8239,10161 8239,10243 8239,10296 8269,10334 8314,10334 8326,10334 8354,10331 8387,10291 8392,10314 8411,10334 8438,10334 8459,10334 8472,10321 8481,10303 8490,10282 8497,10248 8497,10247 8497,10241 8492,10241 8491,10241 8486,10241 8484,10243 8483,10252 8473,10288 8463,10321 8440,10321 8424,10321 8423,10307 8423,10295 8423,10282 8424,10279 8431,10253 8437,10230 8437,10224 8442,10203 L 8463,10124 C 8467,10107 8467,10107 8467,10105 8467,10094 8460,10089 8451,10089 8437,10089 8428,10102 8427,10113 Z M 8390,10261 C 8387,10271 8387,10271 8379,10281 8354,10312 8331,10321 8315,10321 8287,10321 8278,10290 8278,10268 8278,10240 8298,10170 8310,10144 8327,10111 8353,10090 8376,10090 8413,10090 8420,10137 8420,10140 8420,10143 8419,10147 8418,10149 L 8390,10261 Z"/>
        </g>
       </g>
       <g class="com.sun.star.drawing.ClosedBezierShape">
        <g id="id53">
         <rect class="BoundingBox" stroke="none" fill="none" x="8536" y="10077" width="223" height="258"/>
         <path fill="rgb(255,99,33)" stroke="none" d="M 8738,10112 C 8729,10112 8721,10112 8712,10121 8703,10129 8702,10139 8702,10143 8702,10156 8712,10162 8724,10162 8740,10162 8756,10149 8756,10126 8756,10098 8729,10078 8688,10078 8612,10078 8537,10158 8537,10238 8537,10289 8570,10334 8629,10334 8710,10334 8757,10273 8757,10267 8757,10263 8753,10259 8751,10259 8747,10259 8746,10261 8743,10266 8698,10321 8637,10321 8629,10321 8595,10321 8579,10294 8579,10259 8579,10236 8591,10181 8610,10147 8627,10115 8659,10090 8689,10090 8708,10090 8730,10097 8738,10112 Z"/>
        </g>
       </g>
       <g class="com.sun.star.drawing.ClosedBezierShape">
        <g id="id54">
         <rect class="BoundingBox" stroke="none" fill="none" x="8913" y="9998" width="377" height="378"/>
         <path fill="rgb(255,99,33)" stroke="none" d="M 9113,10198 L 9270,10198 C 9278,10198 9288,10198 9288,10186 9288,10175 9278,10175 9270,10175 L 9113,10175 9113,10017 C 9113,10009 9113,9998 9101,9998 9090,9998 9090,10009 9090,10017 L 9090,10175 8932,10175 C 8923,10175 8913,10175 8913,10186 8913,10198 8923,10198 8932,10198 L 9090,10198 9090,10355 C 9090,10363 9090,10375 9101,10375 9113,10375 9113,10363 9113,10355 L 9113,10198 Z"/>
        </g>
       </g>
       <g class="com.sun.star.drawing.ClosedBezierShape">
        <g id="id55">
         <rect class="BoundingBox" stroke="none" fill="none" x="9494" y="9950" width="189" height="379"/>
         <path fill="rgb(255,99,33)" stroke="none" d="M 9611,9965 C 9611,9952 9611,9951 9597,9951 9562,9987 9512,9987 9494,9987 L 9494,10005 C 9506,10005 9539,10005 9569,9989 L 9569,10282 C 9569,10303 9567,10309 9516,10309 L 9498,10309 9498,10327 C 9517,10325 9567,10325 9589,10325 9612,10325 9661,10325 9681,10327 L 9681,10309 9663,10309 C 9612,10309 9611,10303 9611,10282 L 9611,9965 Z"/>
        </g>
       </g>
       <g class="com.sun.star.drawing.ClosedBezierShape">
        <g id="id56">
         <rect class="BoundingBox" stroke="none" fill="none" x="9746" y="9950" width="240" height="390"/>
         <path fill="rgb(255,99,33)" stroke="none" d="M 9985,10147 C 9985,10101 9982,10056 9962,10014 9936,9960 9890,9951 9866,9951 9832,9951 9790,9965 9767,10017 9749,10057 9747,10101 9747,10147 9747,10189 9749,10239 9772,10282 9796,10327 9837,10339 9866,10339 9896,10339 9939,10327 9964,10273 9982,10235 9985,10190 9985,10147 Z M 9866,10327 C 9844,10327 9809,10313 9799,10258 9794,10225 9794,10172 9794,10139 9794,10103 9794,10066 9798,10035 9809,9969 9852,9964 9866,9964 9884,9964 9921,9974 9932,10029 9937,10061 9937,10103 9937,10139 9937,10181 9937,10220 9931,10256 9923,10309 9891,10327 9866,10327 Z"/>
        </g>
       </g>
       <g class="com.sun.star.drawing.ClosedBezierShape">
        <g id="id57">
         <rect class="BoundingBox" stroke="none" fill="none" x="10024" y="9920" width="244" height="181"/>
         <path fill="rgb(255,99,33)" stroke="none" d="M 10054,10070 C 10052,10075 10050,10085 10050,10087 10050,10096 10058,10099 10064,10099 10070,10099 10077,10094 10079,10090 10081,10087 10084,10074 10086,10066 10088,10058 10092,10041 10095,10030 10097,10021 10100,10012 10101,10003 10106,9987 10106,9984 10118,9968 10129,9952 10147,9932 10178,9932 10201,9932 10201,9951 10201,9959 10201,9983 10184,10026 10178,10043 10173,10055 10172,10058 10172,10065 10172,10085 10189,10099 10209,10099 10248,10099 10266,10044 10266,10038 10266,10033 10261,10033 10260,10033 10255,10033 10253,10035 10252,10041 10243,10071 10227,10088 10210,10088 10202,10088 10201,10083 10201,10074 10201,10065 10202,10060 10210,10042 10214,10029 10230,9988 10230,9965 10230,9927 10200,9920 10179,9920 10146,9920 10124,9941 10113,9956 10109,9929 10086,9920 10070,9920 10052,9920 10044,9933 10038,9942 10029,9956 10024,9979 10024,9980 10024,9985 10029,9985 10031,9985 10037,9985 10037,9984 10040,9974 10046,9951 10054,9932 10069,9932 10079,9932 10082,9939 10082,9951 10082,9959 10078,9973 10076,9984 10073,9994 10069,10011 10067,10019 L 10054,10070 Z"/>
        </g>
       </g>
       <g class="com.sun.star.drawing.ClosedBezierShape">
        <g id="id58">
         <rect class="BoundingBox" stroke="none" fill="none" x="10314" y="9798" width="173" height="396"/>
         <path fill="rgb(255,99,33)" stroke="none" d="M 10483,9817 C 10485,9811 10485,9810 10485,9809 10485,9802 10480,9799 10476,9799 10468,9799 10467,9804 10465,9809 L 10317,10176 C 10315,10181 10315,10183 10315,10184 10315,10190 10320,10193 10324,10193 10332,10193 10333,10189 10335,10184 L 10483,9817 Z"/>
        </g>
       </g>
       <g class="com.sun.star.drawing.ClosedBezierShape">
        <g id="id59">
         <rect class="BoundingBox" stroke="none" fill="none" x="10540" y="9831" width="177" height="265"/>
         <path fill="rgb(255,99,33)" stroke="none" d="M 10716,10023 L 10701,10023 C 10700,10032 10696,10055 10691,10058 10689,10061 10658,10061 10653,10061 L 10580,10061 C 10621,10024 10635,10014 10659,9994 10689,9971 10716,9947 10716,9909 10716,9861 10673,9832 10622,9832 10573,9832 10540,9866 10540,9902 10540,9923 10557,9925 10561,9925 10571,9925 10582,9918 10582,9904 10582,9897 10580,9883 10559,9883 10571,9855 10598,9846 10617,9846 10657,9846 10677,9877 10677,9909 10677,9943 10653,9970 10640,9985 L 10544,10079 C 10540,10083 10540,10084 10540,10094 L 10704,10094 10716,10023 Z"/>
        </g>
       </g>
       <g class="com.sun.star.drawing.ClosedBezierShape">
        <g id="id60">
         <rect class="BoundingBox" stroke="none" fill="none" x="10823" y="9903" width="133" height="565"/>
         <path fill="rgb(255,99,33)" stroke="none" d="M 10955,10462 C 10955,10460 10955,10459 10945,10449 10874,10378 10856,10272 10856,10185 10856,10088 10878,9989 10947,9919 10955,9913 10955,9911 10955,9909 10955,9905 10952,9904 10949,9904 10943,9904 10892,9942 10859,10014 10829,10075 10823,10138 10823,10185 10823,10229 10829,10298 10860,10362 10895,10431 10943,10467 10949,10467 10952,10467 10955,10465 10955,10462 Z"/>
        </g>
       </g>
       <g class="com.sun.star.drawing.ClosedBezierShape">
        <g id="id61">
         <rect class="BoundingBox" stroke="none" fill="none" x="11008" y="10077" width="261" height="258"/>
         <path fill="rgb(255,99,33)" stroke="none" d="M 11197,10113 C 11187,10093 11170,10078 11144,10078 11079,10078 11009,10161 11009,10243 11009,10296 11039,10334 11084,10334 11096,10334 11124,10331 11157,10291 11162,10314 11181,10334 11208,10334 11229,10334 11242,10321 11251,10303 11260,10282 11267,10248 11267,10247 11267,10241 11262,10241 11261,10241 11254,10241 11254,10243 11253,10252 11243,10288 11233,10321 11210,10321 11194,10321 11193,10307 11193,10295 11193,10282 11194,10279 11201,10253 11207,10230 11207,10224 11212,10203 L 11233,10124 C 11237,10107 11237,10107 11237,10105 11237,10094 11230,10089 11221,10089 11207,10089 11198,10102 11197,10113 Z M 11160,10261 C 11157,10271 11157,10271 11148,10281 11124,10312 11101,10321 11085,10321 11057,10321 11048,10290 11048,10268 11048,10240 11066,10170 11080,10144 11097,10111 11123,10090 11146,10090 11183,10090 11190,10137 11190,10140 11190,10143 11189,10147 11188,10149 L 11160,10261 Z"/>
        </g>
       </g>
       <g class="com.sun.star.drawing.ClosedBezierShape">
        <g id="id62">
         <rect class="BoundingBox" stroke="none" fill="none" x="11305" y="9935" width="271" height="400"/>
         <path fill="rgb(255,99,33)" stroke="none" d="M 11574,9942 C 11574,9941 11574,9936 11567,9936 11559,9936 11505,9941 11495,9942 11491,9942 11487,9946 11487,9952 11487,9960 11493,9960 11501,9960 11528,9960 11530,9964 11530,9969 L 11527,9980 11494,10113 C 11484,10093 11467,10078 11441,10078 11376,10078 11306,10161 11306,10243 11306,10296 11336,10334 11381,10334 11393,10334 11421,10331 11454,10291 11459,10314 11478,10334 11505,10334 11526,10334 11539,10321 11548,10302 11557,10282 11564,10248 11564,10247 11564,10240 11559,10240 11558,10240 11551,10240 11551,10243 11550,10250 11540,10288 11530,10321 11507,10321 11491,10321 11490,10307 11490,10295 11490,10281 11491,10277 11494,10268 L 11574,9942 Z M 11457,10259 C 11454,10270 11454,10271 11445,10281 11421,10312 11398,10321 11382,10321 11354,10321 11345,10290 11345,10268 11345,10240 11363,10170 11377,10144 11394,10111 11420,10090 11443,10090 11478,10090 11487,10137 11487,10140 11487,10143 11486,10147 11485,10149 L 11457,10259 Z"/>
        </g>
       </g>
       <g class="com.sun.star.drawing.ClosedBezierShape">
        <g id="id63">
         <rect class="BoundingBox" stroke="none" fill="none" x="11731" y="9998" width="377" height="378"/>
         <path fill="rgb(255,99,33)" stroke="none" d="M 11932,10198 L 12089,10198 C 12097,10198 12107,10198 12107,10186 12107,10175 12097,10175 12089,10175 L 11932,10175 11932,10017 C 11932,10009 11932,9998 11920,9998 11909,9998 11909,10009 11909,10017 L 11909,10175 11751,10175 C 11742,10175 11732,10175 11732,10186 11732,10198 11742,10198 11751,10198 L 11909,10198 11909,10355 C 11909,10363 11909,10375 11920,10375 11932,10375 11932,10363 11932,10355 L 11932,10198 Z"/>
        </g>
       </g>
       <g class="com.sun.star.drawing.ClosedBezierShape">
        <g id="id64">
         <rect class="BoundingBox" stroke="none" fill="none" x="12289" y="9935" width="211" height="400"/>
         <path fill="rgb(255,99,33)" stroke="none" d="M 12399,9942 C 12399,9941 12399,9936 12391,9936 12378,9936 12337,9941 12322,9941 12318,9942 12312,9942 12312,9952 12312,9960 12317,9960 12325,9960 12353,9960 12353,9964 12353,9969 12353,9973 12349,9992 12345,10003 L 12299,10188 C 12293,10216 12290,10225 12290,10245 12290,10298 12319,10334 12362,10334 12428,10334 12499,10249 12499,10169 12499,10116 12468,10078 12423,10078 12398,10078 12373,10094 12357,10112 L 12399,9942 Z M 12345,10154 C 12349,10143 12349,10142 12354,10135 12382,10098 12406,10090 12422,10090 12442,10090 12458,10107 12458,10143 12458,10176 12438,10241 12428,10263 12410,10300 12383,10321 12362,10321 12342,10321 12323,10305 12323,10264 12323,10253 12323,10243 12334,10207 L 12345,10154 Z"/>
        </g>
       </g>
       <g class="com.sun.star.drawing.ClosedBezierShape">
        <g id="id65">
         <rect class="BoundingBox" stroke="none" fill="none" x="12526" y="10077" width="222" height="258"/>
         <path fill="rgb(255,99,33)" stroke="none" d="M 12728,10112 C 12719,10112 12711,10112 12702,10121 12693,10129 12692,10139 12692,10143 12692,10156 12702,10162 12714,10162 12730,10162 12746,10149 12746,10126 12746,10098 12719,10078 12678,10078 12602,10078 12527,10158 12527,10238 12527,10289 12560,10334 12619,10334 12700,10334 12747,10273 12747,10267 12747,10263 12743,10259 12741,10259 12737,10259 12737,10261 12733,10266 12688,10321 12627,10321 12619,10321 12584,10321 12569,10294 12569,10259 12569,10236 12581,10181 12600,10147 12616,10115 12648,10090 12679,10090 12698,10090 12720,10097 12728,10112 Z"/>
        </g>
       </g>
       <g class="com.sun.star.drawing.ClosedBezierShape">
        <g id="id66">
         <rect class="BoundingBox" stroke="none" fill="none" x="12780" y="9903" width="134" height="565"/>
         <path fill="rgb(255,99,33)" stroke="none" d="M 12912,10185 C 12912,10142 12906,10074 12875,10010 12840,9941 12792,9904 12785,9904 12783,9904 12780,9906 12780,9909 12780,9911 12780,9913 12790,9921 12847,9978 12879,10067 12879,10185 12879,10281 12858,10381 12788,10451 12780,10459 12780,10460 12780,10462 12780,10465 12783,10467 12785,10467 12792,10467 12843,10428 12876,10357 12906,10295 12912,10232 12912,10185 Z"/>
        </g>
       </g>
       <g class="com.sun.star.drawing.ClosedBezierShape">
        <g id="id67">
         <rect class="BoundingBox" stroke="none" fill="none" x="13123" y="9998" width="377" height="378"/>
         <path fill="rgb(255,99,33)" stroke="none" d="M 13323,10198 L 13480,10198 C 13488,10198 13498,10198 13498,10186 13498,10175 13488,10175 13480,10175 L 13323,10175 13323,10017 C 13323,10009 13323,9998 13311,9998 13300,9998 13300,10009 13300,10017 L 13300,10175 13142,10175 C 13134,10175 13123,10175 13123,10186 13123,10198 13134,10198 13142,10198 L 13300,10198 13300,10355 C 13300,10363 13300,10375 13311,10375 13323,10375 13323,10363 13323,10355 L 13323,10198 Z"/>
        </g>
       </g>
       <g class="com.sun.star.drawing.ClosedBezierShape">
        <g id="id68">
         <rect class="BoundingBox" stroke="none" fill="none" x="13680" y="9935" width="210" height="400"/>
         <path fill="rgb(255,99,33)" stroke="none" d="M 13789,9942 C 13789,9941 13789,9936 13781,9936 13768,9936 13727,9941 13712,9941 13708,9942 13702,9942 13702,9952 13702,9960 13707,9960 13715,9960 13743,9960 13744,9964 13744,9969 13744,9973 13739,9992 13735,10003 L 13689,10188 C 13683,10216 13680,10225 13680,10245 13680,10298 13710,10334 13752,10334 13818,10334 13889,10249 13889,10169 13889,10116 13858,10078 13813,10078 13788,10078 13763,10094 13747,10112 L 13789,9942 Z M 13735,10154 C 13739,10143 13739,10142 13744,10135 13772,10098 13798,10090 13812,10090 13832,10090 13848,10107 13848,10143 13848,10176 13829,10241 13818,10263 13800,10300 13774,10321 13752,10321 13733,10321 13715,10305 13715,10264 13715,10253 13715,10243 13724,10207 L 13735,10154 Z"/>
        </g>
       </g>
       <g class="com.sun.star.drawing.ClosedBezierShape">
        <g id="id69">
         <rect class="BoundingBox" stroke="none" fill="none" x="13916" y="9935" width="271" height="400"/>
         <path fill="rgb(255,99,33)" stroke="none" d="M 14186,9942 C 14186,9941 14186,9936 14178,9936 14170,9936 14117,9941 14106,9942 14103,9942 14099,9946 14099,9952 14099,9960 14104,9960 14113,9960 14140,9960 14141,9964 14141,9969 L 14140,9980 14105,10113 C 14095,10093 14078,10078 14053,10078 13987,10078 13917,10161 13917,10243 13917,10296 13948,10334 13992,10334 14004,10334 14032,10331 14065,10291 14071,10314 14090,10334 14117,10334 14137,10334 14150,10321 14159,10302 14168,10282 14175,10248 14175,10247 14175,10240 14170,10240 14169,10240 14163,10240 14163,10243 14161,10250 14151,10288 14141,10321 14118,10321 14103,10321 14101,10307 14101,10295 14101,10281 14103,10277 14105,10268 L 14186,9942 Z M 14068,10259 C 14065,10270 14065,10271 14056,10281 14032,10312 14009,10321 13994,10321 13966,10321 13957,10290 13957,10268 13957,10240 13975,10170 13989,10144 14005,10111 14031,10090 14054,10090 14091,10090 14099,10137 14099,10140 14099,10143 14097,10147 14096,10149 L 14068,10259 Z"/>
        </g>
       </g>
       <g class="com.sun.star.drawing.ClosedBezierShape">
        <g id="id70">
         <rect class="BoundingBox" stroke="none" fill="none" x="15707" y="9903" width="134" height="565"/>
         <path fill="rgb(255,99,33)" stroke="none" d="M 15840,10462 C 15840,10460 15840,10459 15829,10449 15759,10378 15741,10272 15741,10185 15741,10088 15763,9989 15832,9919 15840,9913 15840,9911 15840,9909 15840,9905 15837,9904 15833,9904 15828,9904 15777,9942 15744,10014 15714,10075 15708,10138 15708,10185 15708,10229 15714,10298 15745,10362 15779,10431 15828,10467 15833,10467 15837,10467 15840,10465 15840,10462 Z"/>
        </g>
       </g>
       <g class="com.sun.star.drawing.ClosedBezierShape">
        <g id="id71">
         <rect class="BoundingBox" stroke="none" fill="none" x="15920" y="9950" width="189" height="379"/>
         <path fill="rgb(255,99,33)" stroke="none" d="M 16037,9965 C 16037,9952 16037,9951 16024,9951 15988,9987 15938,9987 15920,9987 L 15920,10005 C 15932,10005 15965,10005 15994,9989 L 15994,10282 C 15994,10303 15993,10309 15942,10309 L 15924,10309 15924,10327 C 15943,10325 15993,10325 16015,10325 16038,10325 16087,10325 16107,10327 L 16107,10309 16089,10309 C 16038,10309 16037,10303 16037,10282 L 16037,9965 Z"/>
        </g>
       </g>
       <g class="com.sun.star.drawing.ClosedBezierShape">
        <g id="id72">
         <rect class="BoundingBox" stroke="none" fill="none" x="16183" y="9903" width="134" height="565"/>
         <path fill="rgb(255,99,33)" stroke="none" d="M 16316,10185 C 16316,10142 16309,10074 16279,10010 16244,9941 16195,9904 16189,9904 16186,9904 16184,9906 16184,9909 16184,9911 16184,9913 16194,9921 16250,9978 16282,10067 16282,10185 16282,10281 16262,10381 16192,10451 16184,10459 16184,10460 16184,10462 16184,10465 16186,10467 16189,10467 16195,10467 16247,10428 16280,10357 16309,10295 16316,10232 16316,10185 Z"/>
        </g>
       </g>
      </g>
     </g>
    </g>
   </g>
  </g>
 </g>
</svg>