<?xml version="1.0" encoding="UTF-8"?>
<!DOCTYPE svg PUBLIC "-//W3C//DTD SVG 1.1//EN" "http://www.w3.org/Graphics/SVG/1.1/DTD/svg11.dtd">
<svg version="1.2" width="71.01mm" height="19.5mm" viewBox="3549 8244 7101 1950" preserveAspectRatio="xMidYMid" fill-rule="evenodd" stroke-width="28.222" stroke-linejoin="round" xmlns="http://www.w3.org/2000/svg" xmlns:ooo="http://xml.openoffice.org/svg/export" xmlns:xlink="http://www.w3.org/1999/xlink" xmlns:presentation="http://sun.com/xmlns/staroffice/presentation" xmlns:smil="http://www.w3.org/2001/SMIL20/" xmlns:anim="urn:oasis:names:tc:opendocument:xmlns:animation:1.0" xml:space="preserve">
 <defs class="ClipPathGroup">
  <clipPath id="presentation_clip_path" clipPathUnits="userSpaceOnUse">
   <rect x="3549" y="8244" width="7101" height="1950"/>
  </clipPath>
  <clipPath id="presentation_clip_path_shrink" clipPathUnits="userSpaceOnUse">
   <rect x="3556" y="8245" width="7087" height="1947"/>
  </clipPath>
 </defs>
 <defs class="TextShapeIndex">
  <g ooo:slide="id1" ooo:id-list="id3 id4 id5 id6 id7 id8 id9 id10 id11 id12 id13 id14 id15 id16 id17 id18 id19 id20 id21 id22 id23 id24 id25 id26 id27 id28 id29 id30 id31 id32 id33 id34 id35 id36 id37 id38"/>
 </defs>
 <defs class="EmbeddedBulletChars">
  <g id="bullet-char-template-57356" transform="scale(0.00048828125,-0.00048828125)">
   <path d="M 580,1141 L 1163,571 580,0 -4,571 580,1141 Z"/>
  </g>
  <g id="bullet-char-template-57354" transform="scale(0.00048828125,-0.00048828125)">
   <path d="M 8,1128 L 1137,1128 1137,0 8,0 8,1128 Z"/>
  </g>
  <g id="bullet-char-template-10146" transform="scale(0.00048828125,-0.00048828125)">
   <path d="M 174,0 L 602,739 174,1481 1456,739 174,0 Z M 1358,739 L 309,1346 659,739 1358,739 Z"/>
  </g>
  <g id="bullet-char-template-10132" transform="scale(0.00048828125,-0.00048828125)">
   <path d="M 2015,739 L 1276,0 717,0 1260,543 174,543 174,936 1260,936 717,1481 1274,1481 2015,739 Z"/>
  </g>
  <g id="bullet-char-template-10007" transform="scale(0.00048828125,-0.00048828125)">
   <path d="M 0,-2 C -7,14 -16,27 -25,37 L 356,567 C 262,823 215,952 215,954 215,979 228,992 255,992 264,992 276,990 289,987 310,991 331,999 354,1012 L 381,999 492,748 772,1049 836,1024 860,1049 C 881,1039 901,1025 922,1006 886,937 835,863 770,784 769,783 710,716 594,584 L 774,223 C 774,196 753,168 711,139 L 727,119 C 717,90 699,76 672,76 641,76 570,178 457,381 L 164,-76 C 142,-110 111,-127 72,-127 30,-127 9,-110 8,-76 1,-67 -2,-52 -2,-32 -2,-23 -1,-13 0,-2 Z"/>
  </g>
  <g id="bullet-char-template-10004" transform="scale(0.00048828125,-0.00048828125)">
   <path d="M 285,-33 C 182,-33 111,30 74,156 52,228 41,333 41,471 41,549 55,616 82,672 116,743 169,778 240,778 293,778 328,747 346,684 L 369,508 C 377,444 397,411 428,410 L 1163,1116 C 1174,1127 1196,1133 1229,1133 1271,1133 1292,1118 1292,1087 L 1292,965 C 1292,929 1282,901 1262,881 L 442,47 C 390,-6 338,-33 285,-33 Z"/>
  </g>
  <g id="bullet-char-template-9679" transform="scale(0.00048828125,-0.00048828125)">
   <path d="M 813,0 C 632,0 489,54 383,161 276,268 223,411 223,592 223,773 276,916 383,1023 489,1130 632,1184 813,1184 992,1184 1136,1130 1245,1023 1353,916 1407,772 1407,592 1407,412 1353,268 1245,161 1136,54 992,0 813,0 Z"/>
  </g>
  <g id="bullet-char-template-8226" transform="scale(0.00048828125,-0.00048828125)">
   <path d="M 346,457 C 273,457 209,483 155,535 101,586 74,649 74,723 74,796 101,859 155,911 209,963 273,989 346,989 419,989 480,963 531,910 582,859 608,796 608,723 608,648 583,586 532,535 482,483 420,457 346,457 Z"/>
  </g>
  <g id="bullet-char-template-8211" transform="scale(0.00048828125,-0.00048828125)">
   <path d="M -4,459 L 1135,459 1135,606 -4,606 -4,459 Z"/>
  </g>
  <g id="bullet-char-template-61548" transform="scale(0.00048828125,-0.00048828125)">
   <path d="M 173,740 C 173,903 231,1043 346,1159 462,1274 601,1332 765,1332 928,1332 1067,1274 1183,1159 1299,1043 1357,903 1357,740 1357,577 1299,437 1183,322 1067,206 928,148 765,148 601,148 462,206 346,322 231,437 173,577 173,740 Z"/>
  </g>
 </defs>
 <defs class="TextEmbeddedBitmaps"/>
 <g class="SlideGroup">
  <g>
   <g id="container-id1">
    <g id="id1" class="Slide" clip-path="url(#presentation_clip_path)">
     <g class="Page">
      <g class="Group">
       <g class="com.sun.star.drawing.PolyPolygonShape">
        <g id="id3">
         <rect class="BoundingBox" stroke="none" fill="none" x="3549" y="8249" width="7102" height="1943"/>
        </g>
       </g>
       <g class="com.sun.star.drawing.ClosedBezierShape">
        <g id="id4">
         <rect class="BoundingBox" stroke="none" fill="none" x="3573" y="8244" width="353" height="360"/>
         <path fill="rgb(255,99,33)" stroke="none" d="M 3924,8248 C 3924,8247 3923,8244 3919,8244 3917,8244 3916,8244 3911,8250 L 3877,8288 C 3873,8281 3849,8244 3794,8244 3685,8244 3574,8353 3574,8468 3574,8549 3632,8602 3707,8602 3751,8602 3788,8583 3814,8560 3860,8520 3868,8475 3868,8474 3868,8469 3864,8469 3863,8469 3859,8469 3857,8469 3856,8474 3851,8488 3840,8523 3807,8552 3772,8579 3741,8588 3715,8588 3671,8588 3618,8562 3618,8485 3618,8457 3629,8377 3678,8319 3708,8284 3755,8260 3799,8260 3849,8260 3878,8298 3878,8355 3878,8374 3877,8375 3877,8380 3877,8385 3882,8385 3884,8385 3891,8385 3891,8384 3893,8375 L 3924,8248 Z"/>
        </g>
       </g>
       <g class="com.sun.star.drawing.ClosedBezierShape">
        <g id="id5">
         <rect class="BoundingBox" stroke="none" fill="none" x="3916" y="8436" width="107" height="235"/>
         <path fill="rgb(255,99,33)" stroke="none" d="M 4013,8450 C 4013,8444 4008,8437 3999,8437 3989,8437 3979,8446 3979,8456 3979,8461 3984,8469 3994,8469 4004,8469 4013,8459 4013,8450 Z M 3942,8626 C 3940,8630 3939,8634 3939,8640 3939,8656 3952,8670 3971,8670 4007,8670 4022,8621 4022,8617 4022,8612 4017,8612 4016,8612 4012,8612 4012,8615 4009,8618 4001,8646 3986,8660 3972,8660 3966,8660 3965,8655 3965,8647 3965,8639 3967,8634 3970,8626 3973,8616 3977,8607 3981,8598 3984,8590 3996,8558 3998,8554 3999,8551 4000,8546 4000,8543 4000,8526 3986,8514 3967,8514 3932,8514 3916,8561 3916,8567 3916,8571 3921,8571 3922,8571 3928,8571 3928,8569 3929,8565 3938,8535 3953,8523 3966,8523 3971,8523 3975,8526 3975,8535 3975,8543 3972,8549 3963,8570 L 3942,8626 Z"/>
        </g>
       </g>
       <g class="com.sun.star.drawing.ClosedBezierShape">
        <g id="id6">
         <rect class="BoundingBox" stroke="none" fill="none" x="4200" y="8304" width="331" height="331"/>
         <path fill="rgb(255,99,33)" stroke="none" d="M 4376,8479 L 4513,8479 C 4520,8479 4529,8479 4529,8469 4529,8459 4520,8459 4513,8459 L 4376,8459 4376,8321 C 4376,8313 4376,8304 4366,8304 4355,8304 4355,8313 4355,8321 L 4355,8459 4218,8459 C 4210,8459 4201,8459 4201,8469 4201,8479 4210,8479 4218,8479 L 4355,8479 4355,8617 C 4355,8624 4355,8634 4366,8634 4376,8634 4376,8624 4376,8617 L 4376,8479 Z"/>
        </g>
       </g>
       <g class="com.sun.star.drawing.ClosedBezierShape">
        <g id="id7">
         <rect class="BoundingBox" stroke="none" fill="none" x="4649" y="8373" width="260" height="316"/>
         <path fill="rgb(255,99,33)" stroke="none" d="M 4688,8653 C 4684,8670 4684,8673 4661,8673 4656,8673 4650,8673 4650,8682 4650,8686 4652,8688 4657,8688 4670,8688 4684,8686 4698,8686 4714,8686 4731,8688 4746,8688 4750,8688 4755,8688 4755,8679 4755,8673 4751,8673 4744,8673 4719,8673 4719,8670 4719,8665 4719,8658 4740,8579 4743,8567 4750,8580 4764,8598 4789,8598 4846,8598 4908,8525 4908,8453 4908,8406 4880,8374 4843,8374 4818,8374 4793,8392 4778,8411 4772,8384 4751,8374 4733,8374 4710,8374 4700,8393 4696,8402 4688,8419 4681,8449 4681,8450 4681,8455 4686,8455 4687,8455 4693,8455 4693,8455 4696,8443 4704,8409 4714,8385 4732,8385 4740,8385 4746,8388 4746,8408 4746,8419 4745,8424 4743,8432 L 4688,8653 Z M 4775,8438 C 4779,8424 4792,8411 4801,8403 4818,8388 4833,8385 4840,8385 4861,8385 4873,8402 4873,8431 4873,8460 4856,8517 4847,8536 4830,8570 4807,8587 4789,8587 4755,8587 4750,8545 4750,8543 4750,8542 4750,8541 4751,8535 L 4775,8438 Z"/>
        </g>
       </g>
       <g class="com.sun.star.drawing.ClosedBezierShape">
        <g id="id8">
         <rect class="BoundingBox" stroke="none" fill="none" x="4938" y="8426" width="173" height="246"/>
         <path fill="rgb(255,99,33)" stroke="none" d="M 5022,8437 C 5022,8437 5023,8432 5023,8431 5023,8430 5022,8427 5017,8427 5011,8427 4982,8429 4973,8430 4970,8430 4966,8431 4966,8438 4966,8443 4970,8443 4975,8443 4990,8443 4990,8446 4990,8448 4990,8450 4990,8452 4989,8456 L 4941,8652 C 4939,8657 4939,8658 4939,8660 4939,8664 4943,8671 4951,8671 4960,8671 4965,8663 4967,8656 4967,8654 4983,8593 4984,8589 5008,8591 5029,8599 5029,8617 5029,8618 5029,8620 5027,8624 5026,8629 5026,8630 5026,8635 5026,8660 5046,8671 5063,8671 5097,8671 5107,8618 5107,8617 5107,8612 5102,8612 5101,8612 5097,8612 5096,8615 5095,8621 5090,8636 5081,8661 5063,8661 5054,8661 5052,8652 5052,8643 5052,8637 5052,8636 5053,8627 5054,8626 5055,8620 5055,8616 5055,8586 5014,8580 4999,8580 5010,8573 5022,8562 5029,8556 5045,8540 5063,8524 5082,8524 5087,8524 5091,8525 5094,8528 5079,8531 5076,8542 5076,8548 5076,8555 5082,8561 5090,8561 5099,8561 5109,8553 5109,8539 5109,8527 5101,8514 5083,8514 5063,8514 5045,8528 5027,8544 5013,8559 5002,8569 4987,8576 L 5022,8437 Z"/>
        </g>
       </g>
       <g class="com.sun.star.drawing.ClosedBezierShape">
        <g id="id9">
         <rect class="BoundingBox" stroke="none" fill="none" x="5305" y="8457" width="303" height="24"/>
         <path fill="rgb(255,99,33)" stroke="none" d="M 5590,8479 C 5598,8479 5606,8479 5606,8468 5606,8458 5598,8458 5590,8458 L 5322,8458 C 5314,8458 5305,8458 5305,8468 5305,8479 5314,8479 5322,8479 L 5590,8479 Z"/>
        </g>
       </g>
       <g class="com.sun.star.drawing.ClosedBezierShape">
        <g id="id10">
         <rect class="BoundingBox" stroke="none" fill="none" x="5776" y="8249" width="237" height="350"/>
         <path fill="rgb(255,99,33)" stroke="none" d="M 6012,8255 C 6012,8254 6012,8250 6005,8250 5999,8250 5951,8254 5943,8255 5939,8255 5936,8257 5936,8264 5936,8271 5940,8271 5948,8271 5972,8271 5973,8274 5973,8279 L 5971,8289 5941,8405 C 5932,8387 5918,8374 5895,8374 5838,8374 5777,8447 5777,8518 5777,8565 5804,8598 5843,8598 5853,8598 5878,8596 5907,8561 5911,8581 5928,8598 5951,8598 5969,8598 5981,8587 5988,8570 5996,8553 6003,8523 6003,8522 6003,8516 5999,8516 5997,8516 5992,8516 5992,8518 5991,8525 5982,8558 5973,8587 5953,8587 5939,8587 5938,8574 5938,8564 5938,8552 5939,8549 5941,8541 L 6012,8255 Z M 5909,8533 C 5907,8542 5907,8543 5899,8552 5878,8579 5857,8587 5844,8587 5819,8587 5811,8560 5811,8541 5811,8516 5827,8455 5839,8432 5854,8403 5876,8385 5897,8385 5929,8385 5936,8425 5936,8429 5936,8431 5935,8434 5934,8437 L 5909,8533 Z"/>
        </g>
       </g>
       <g class="com.sun.star.drawing.ClosedBezierShape">
        <g id="id11">
         <rect class="BoundingBox" stroke="none" fill="none" x="6038" y="8426" width="173" height="246"/>
         <path fill="rgb(255,99,33)" stroke="none" d="M 6122,8437 C 6122,8437 6123,8432 6123,8431 6123,8430 6122,8427 6117,8427 6111,8427 6081,8429 6072,8430 6070,8430 6066,8431 6066,8438 6066,8443 6070,8443 6075,8443 6090,8443 6090,8446 6090,8448 6090,8450 6090,8452 6089,8456 L 6041,8652 C 6039,8657 6039,8658 6039,8660 6039,8664 6043,8671 6051,8671 6060,8671 6065,8663 6067,8656 6067,8654 6083,8593 6084,8589 6108,8591 6128,8599 6128,8617 6128,8618 6128,8620 6127,8624 6126,8629 6126,8630 6126,8635 6126,8660 6146,8671 6163,8671 6197,8671 6207,8618 6207,8617 6207,8612 6202,8612 6201,8612 6197,8612 6196,8615 6195,8621 6190,8636 6181,8661 6163,8661 6154,8661 6152,8652 6152,8643 6152,8637 6152,8636 6153,8627 6154,8626 6155,8620 6155,8616 6155,8586 6114,8580 6099,8580 6109,8573 6122,8562 6128,8556 6145,8540 6163,8524 6182,8524 6187,8524 6191,8525 6193,8528 6179,8531 6175,8542 6175,8548 6175,8555 6182,8561 6190,8561 6199,8561 6209,8553 6209,8539 6209,8527 6201,8514 6182,8514 6163,8514 6145,8528 6127,8544 6113,8559 6102,8569 6087,8576 L 6122,8437 Z"/>
        </g>
       </g>
       <g class="com.sun.star.drawing.ClosedBezierShape">
        <g id="id12">
         <rect class="BoundingBox" stroke="none" fill="none" x="6433" y="8325" width="303" height="289"/>
         <path fill="rgb(255,99,33)" stroke="none" d="M 6725,8347 C 6731,8344 6734,8341 6734,8336 6734,8330 6730,8326 6725,8326 6723,8326 6722,8326 6716,8329 L 6442,8458 C 6438,8460 6433,8464 6433,8469 6433,8475 6438,8477 6442,8480 L 6716,8609 C 6722,8612 6723,8612 6725,8612 6730,8612 6734,8608 6734,8602 6734,8597 6731,8595 6725,8591 L 6467,8469 6725,8347 Z"/>
        </g>
       </g>
       <g class="com.sun.star.drawing.ClosedBezierShape">
        <g id="id13">
         <rect class="BoundingBox" stroke="none" fill="none" x="6935" y="8244" width="353" height="360"/>
         <path fill="rgb(255,99,33)" stroke="none" d="M 7287,8248 C 7287,8247 7285,8244 7281,8244 7280,8244 7279,8244 7273,8250 L 7240,8288 C 7235,8281 7212,8244 7157,8244 7047,8244 6936,8353 6936,8468 6936,8549 6994,8602 7069,8602 7113,8602 7150,8583 7177,8560 7223,8520 7231,8475 7231,8474 7231,8469 7226,8469 7225,8469 7222,8469 7219,8469 7218,8474 7214,8488 7203,8523 7169,8552 7134,8579 7103,8588 7078,8588 7033,8588 6981,8562 6981,8485 6981,8457 6991,8377 7040,8319 7070,8284 7117,8260 7161,8260 7212,8260 7241,8298 7241,8355 7241,8374 7240,8375 7240,8380 7240,8385 7244,8385 7246,8385 7253,8385 7253,8384 7255,8375 L 7287,8248 Z"/>
        </g>
       </g>
       <g class="com.sun.star.drawing.ClosedBezierShape">
        <g id="id14">
         <rect class="BoundingBox" stroke="none" fill="none" x="7278" y="8436" width="107" height="235"/>
         <path fill="rgb(255,99,33)" stroke="none" d="M 7375,8450 C 7375,8444 7371,8437 7362,8437 7352,8437 7341,8446 7341,8456 7341,8461 7346,8469 7356,8469 7366,8469 7375,8459 7375,8450 Z M 7304,8626 C 7302,8630 7301,8634 7301,8640 7301,8656 7315,8670 7334,8670 7368,8670 7384,8621 7384,8617 7384,8612 7380,8612 7378,8612 7374,8612 7374,8615 7372,8618 7364,8646 7348,8660 7335,8660 7328,8660 7327,8655 7327,8647 7327,8639 7329,8634 7332,8626 7336,8616 7339,8607 7343,8598 7346,8590 7358,8558 7360,8554 7362,8551 7363,8546 7363,8543 7363,8526 7348,8514 7329,8514 7294,8514 7279,8561 7279,8567 7279,8571 7283,8571 7284,8571 7290,8571 7290,8569 7291,8565 7300,8535 7316,8523 7328,8523 7334,8523 7337,8526 7337,8535 7337,8543 7335,8549 7326,8570 L 7304,8626 Z"/>
        </g>
       </g>
       <g class="com.sun.star.drawing.ClosedBezierShape">
        <g id="id15">
         <rect class="BoundingBox" stroke="none" fill="none" x="7563" y="8304" width="330" height="331"/>
         <path fill="rgb(255,99,33)" stroke="none" d="M 7738,8479 L 7876,8479 C 7882,8479 7891,8479 7891,8469 7891,8459 7882,8459 7876,8459 L 7738,8459 7738,8321 C 7738,8313 7738,8304 7728,8304 7718,8304 7718,8313 7718,8321 L 7718,8459 7580,8459 C 7572,8459 7563,8459 7563,8469 7563,8479 7572,8479 7580,8479 L 7718,8479 7718,8617 C 7718,8624 7718,8634 7728,8634 7738,8634 7738,8624 7738,8617 L 7738,8479 Z"/>
        </g>
       </g>
       <g class="com.sun.star.drawing.ClosedBezierShape">
        <g id="id16">
         <rect class="BoundingBox" stroke="none" fill="none" x="8012" y="8373" width="259" height="316"/>
         <path fill="rgb(255,99,33)" stroke="none" d="M 8050,8653 C 8046,8670 8046,8673 8024,8673 8018,8673 8012,8673 8012,8682 8012,8686 8015,8688 8019,8688 8032,8688 8046,8686 8060,8686 8076,8686 8093,8688 8109,8688 8112,8688 8118,8688 8118,8679 8118,8673 8113,8673 8106,8673 8082,8673 8082,8670 8082,8665 8082,8658 8102,8579 8105,8567 8112,8580 8127,8598 8151,8598 8208,8598 8270,8525 8270,8453 8270,8406 8242,8374 8205,8374 8180,8374 8156,8392 8140,8411 8134,8384 8113,8374 8095,8374 8073,8374 8063,8393 8058,8402 8050,8419 8044,8449 8044,8450 8044,8455 8048,8455 8049,8455 8055,8455 8055,8455 8058,8443 8066,8409 8076,8385 8094,8385 8102,8385 8109,8388 8109,8408 8109,8419 8108,8424 8105,8432 L 8050,8653 Z M 8138,8438 C 8141,8424 8155,8411 8164,8403 8180,8388 8195,8385 8203,8385 8223,8385 8235,8402 8235,8431 8235,8460 8218,8517 8209,8536 8193,8570 8169,8587 8151,8587 8118,8587 8112,8545 8112,8543 8112,8542 8112,8541 8113,8535 L 8138,8438 Z"/>
        </g>
       </g>
       <g class="com.sun.star.drawing.ClosedBezierShape">
        <g id="id17">
         <rect class="BoundingBox" stroke="none" fill="none" x="8275" y="8436" width="154" height="302"/>
         <path fill="rgb(255,99,33)" stroke="none" d="M 8428,8450 C 8428,8443 8423,8437 8414,8437 8404,8437 8394,8447 8394,8456 8394,8461 8399,8469 8409,8469 8418,8469 8428,8460 8428,8450 Z M 8354,8683 C 8348,8707 8330,8727 8309,8727 8305,8727 8301,8726 8297,8724 8306,8720 8309,8712 8309,8707 8309,8699 8302,8694 8296,8694 8284,8694 8276,8703 8276,8714 8276,8728 8289,8737 8310,8737 8330,8737 8371,8724 8382,8682 L 8413,8558 C 8414,8554 8416,8551 8416,8546 8416,8527 8399,8514 8377,8514 8339,8514 8317,8561 8317,8567 8317,8571 8321,8571 8323,8571 8327,8571 8327,8570 8330,8564 8338,8544 8356,8523 8376,8523 8385,8523 8389,8528 8389,8540 8389,8544 8388,8549 8388,8551 L 8354,8683 Z"/>
        </g>
       </g>
       <g class="com.sun.star.drawing.ClosedBezierShape">
        <g id="id18">
         <rect class="BoundingBox" stroke="none" fill="none" x="8620" y="8304" width="330" height="331"/>
         <path fill="rgb(255,99,33)" stroke="none" d="M 8795,8479 L 8933,8479 C 8940,8479 8949,8479 8949,8469 8949,8459 8940,8459 8933,8459 L 8795,8459 8795,8321 C 8795,8313 8795,8304 8785,8304 8775,8304 8775,8313 8775,8321 L 8775,8459 8637,8459 C 8629,8459 8621,8459 8621,8469 8621,8479 8629,8479 8637,8479 L 8775,8479 8775,8617 C 8775,8624 8775,8634 8785,8634 8795,8634 8795,8624 8795,8617 L 8795,8479 Z"/>
        </g>
       </g>
       <g class="com.sun.star.drawing.ClosedBezierShape">
        <g id="id19">
         <rect class="BoundingBox" stroke="none" fill="none" x="9068" y="8373" width="260" height="316"/>
         <path fill="rgb(255,99,33)" stroke="none" d="M 9107,8653 C 9102,8670 9102,8673 9080,8673 9074,8673 9069,8673 9069,8682 9069,8686 9071,8688 9075,8688 9089,8688 9102,8686 9117,8686 9132,8686 9149,8688 9165,8688 9168,8688 9174,8688 9174,8679 9174,8673 9169,8673 9163,8673 9138,8673 9138,8670 9138,8665 9138,8658 9158,8579 9161,8567 9168,8580 9182,8598 9207,8598 9265,8598 9326,8525 9326,8453 9326,8406 9298,8374 9261,8374 9237,8374 9212,8392 9196,8411 9191,8384 9169,8374 9151,8374 9129,8374 9119,8393 9114,8402 9107,8419 9100,8449 9100,8450 9100,8455 9104,8455 9105,8455 9111,8455 9111,8455 9114,8443 9122,8409 9132,8385 9150,8385 9158,8385 9165,8388 9165,8408 9165,8419 9164,8424 9161,8432 L 9107,8653 Z M 9194,8438 C 9197,8424 9211,8411 9220,8403 9237,8388 9251,8385 9259,8385 9279,8385 9291,8402 9291,8431 9291,8460 9275,8517 9266,8536 9249,8570 9225,8587 9207,8587 9174,8587 9168,8545 9168,8543 9168,8542 9168,8541 9169,8535 L 9194,8438 Z"/>
        </g>
       </g>
       <g class="com.sun.star.drawing.ClosedBezierShape">
        <g id="id20">
         <rect class="BoundingBox" stroke="none" fill="none" x="9357" y="8426" width="172" height="246"/>
         <path fill="rgb(255,99,33)" stroke="none" d="M 9440,8437 C 9440,8437 9441,8432 9441,8431 9441,8430 9440,8427 9436,8427 9429,8427 9400,8429 9391,8430 9389,8430 9384,8431 9384,8438 9384,8443 9389,8443 9393,8443 9409,8443 9409,8446 9409,8448 9409,8450 9409,8452 9408,8456 L 9360,8652 C 9357,8657 9357,8658 9357,8660 9357,8664 9362,8671 9370,8671 9379,8671 9383,8663 9385,8656 9385,8654 9401,8593 9402,8589 9427,8591 9447,8599 9447,8617 9447,8618 9447,8620 9446,8624 9445,8629 9445,8630 9445,8635 9445,8660 9465,8671 9482,8671 9515,8671 9525,8618 9525,8617 9525,8612 9521,8612 9520,8612 9515,8612 9514,8615 9513,8621 9509,8636 9500,8661 9482,8661 9473,8661 9471,8652 9471,8643 9471,8637 9471,8636 9472,8627 9473,8626 9474,8620 9474,8616 9474,8586 9433,8580 9418,8580 9428,8573 9440,8562 9447,8556 9464,8540 9482,8524 9501,8524 9505,8524 9510,8525 9512,8528 9497,8531 9494,8542 9494,8548 9494,8555 9501,8561 9509,8561 9518,8561 9528,8553 9528,8539 9528,8527 9520,8514 9501,8514 9482,8514 9464,8528 9446,8544 9431,8559 9420,8569 9406,8576 L 9440,8437 Z"/>
        </g>
       </g>
       <g class="com.sun.star.drawing.ClosedBezierShape">
        <g id="id21">
         <rect class="BoundingBox" stroke="none" fill="none" x="9724" y="8457" width="304" height="24"/>
         <path fill="rgb(255,99,33)" stroke="none" d="M 10009,8479 C 10017,8479 10026,8479 10026,8468 10026,8458 10017,8458 10009,8458 L 9742,8458 C 9734,8458 9725,8458 9725,8468 9725,8479 9734,8479 9742,8479 L 10009,8479 Z"/>
        </g>
       </g>
       <g class="com.sun.star.drawing.ClosedBezierShape">
        <g id="id22">
         <rect class="BoundingBox" stroke="none" fill="none" x="10195" y="8249" width="237" height="350"/>
         <path fill="rgb(255,99,33)" stroke="none" d="M 10430,8255 C 10430,8254 10430,8250 10424,8250 10417,8250 10370,8254 10361,8255 10358,8255 10354,8257 10354,8264 10354,8271 10359,8271 10367,8271 10390,8271 10391,8274 10391,8279 L 10389,8289 10360,8405 C 10351,8387 10336,8374 10314,8374 10257,8374 10195,8447 10195,8518 10195,8565 10222,8598 10261,8598 10271,8598 10296,8596 10325,8561 10330,8581 10346,8598 10370,8598 10388,8598 10399,8587 10407,8570 10415,8553 10422,8523 10422,8522 10422,8516 10417,8516 10416,8516 10410,8516 10410,8518 10409,8525 10400,8558 10391,8587 10371,8587 10358,8587 10357,8574 10357,8564 10357,8552 10358,8549 10360,8541 L 10430,8255 Z M 10327,8533 C 10325,8542 10325,8543 10317,8552 10296,8579 10276,8587 10262,8587 10238,8587 10230,8560 10230,8541 10230,8516 10246,8455 10258,8432 10273,8403 10295,8385 10315,8385 10348,8385 10354,8425 10354,8429 10354,8431 10353,8434 10352,8437 L 10327,8533 Z"/>
        </g>
       </g>
       <g class="com.sun.star.drawing.ClosedBezierShape">
        <g id="id23">
         <rect class="BoundingBox" stroke="none" fill="none" x="10457" y="8426" width="172" height="246"/>
         <path fill="rgb(255,99,33)" stroke="none" d="M 10540,8437 C 10540,8437 10541,8432 10541,8431 10541,8430 10540,8427 10536,8427 10529,8427 10500,8429 10491,8430 10489,8430 10484,8431 10484,8438 10484,8443 10489,8443 10493,8443 10509,8443 10509,8446 10509,8448 10509,8450 10509,8452 10508,8456 L 10460,8652 C 10457,8657 10457,8658 10457,8660 10457,8664 10462,8671 10470,8671 10479,8671 10483,8663 10485,8656 10485,8654 10501,8593 10502,8589 10527,8591 10547,8599 10547,8617 10547,8618 10547,8620 10546,8624 10545,8629 10545,8630 10545,8635 10545,8660 10565,8671 10582,8671 10615,8671 10625,8618 10625,8617 10625,8612 10621,8612 10620,8612 10615,8612 10614,8615 10613,8621 10609,8636 10600,8661 10582,8661 10573,8661 10570,8652 10570,8643 10570,8637 10570,8636 10572,8627 10573,8626 10574,8620 10574,8616 10574,8586 10532,8580 10518,8580 10528,8573 10540,8562 10547,8556 10564,8540 10582,8524 10601,8524 10605,8524 10610,8525 10612,8528 10597,8531 10594,8542 10594,8548 10594,8555 10601,8561 10609,8561 10618,8561 10628,8553 10628,8539 10628,8527 10620,8514 10601,8514 10582,8514 10564,8528 10546,8544 10531,8559 10520,8569 10506,8576 L 10540,8437 Z"/>
        </g>
       </g>
       <g class="com.sun.star.drawing.ClosedBezierShape">
        <g id="id24">
         <rect class="BoundingBox" stroke="none" fill="none" x="5414" y="9196" width="304" height="23"/>
         <path fill="rgb(255,99,33)" stroke="none" d="M 5699,9217 C 5707,9217 5716,9217 5716,9206 5716,9196 5707,9196 5699,9196 L 5432,9196 C 5424,9196 5415,9196 5415,9206 5415,9217 5424,9217 5432,9217 L 5699,9217 Z"/>
        </g>
       </g>
       <g class="com.sun.star.drawing.ClosedBezierShape">
        <g id="id25">
         <rect class="BoundingBox" stroke="none" fill="none" x="5776" y="8987" width="237" height="351"/>
         <path fill="rgb(255,99,33)" stroke="none" d="M 6012,8993 C 6012,8992 6012,8988 6005,8988 5999,8988 5951,8992 5943,8993 5939,8993 5936,8996 5936,9002 5936,9009 5940,9009 5948,9009 5972,9009 5973,9012 5973,9017 L 5971,9027 5941,9143 C 5932,9125 5918,9112 5895,9112 5838,9112 5777,9185 5777,9257 5777,9304 5804,9336 5843,9336 5853,9336 5878,9334 5907,9299 5911,9319 5928,9336 5951,9336 5969,9336 5981,9325 5988,9308 5996,9291 6003,9261 6003,9260 6003,9254 5999,9254 5997,9254 5992,9254 5992,9257 5991,9263 5982,9296 5973,9325 5953,9325 5939,9325 5938,9313 5938,9302 5938,9290 5939,9287 5941,9279 L 6012,8993 Z M 5909,9271 C 5907,9280 5907,9281 5899,9290 5878,9317 5857,9325 5844,9325 5819,9325 5811,9298 5811,9279 5811,9254 5827,9193 5839,9170 5854,9141 5876,9123 5897,9123 5929,9123 5936,9164 5936,9167 5936,9169 5935,9173 5934,9175 L 5909,9271 Z"/>
        </g>
       </g>
       <g class="com.sun.star.drawing.ClosedBezierShape">
        <g id="id26">
         <rect class="BoundingBox" stroke="none" fill="none" x="6038" y="9164" width="173" height="246"/>
         <path fill="rgb(255,99,33)" stroke="none" d="M 6122,9175 C 6122,9175 6123,9170 6123,9169 6123,9168 6122,9165 6117,9165 6111,9165 6081,9167 6072,9168 6070,9168 6066,9169 6066,9176 6066,9181 6070,9181 6075,9181 6090,9181 6090,9184 6090,9186 6090,9188 6090,9190 6089,9194 L 6041,9390 C 6039,9395 6039,9397 6039,9398 6039,9402 6043,9409 6051,9409 6060,9409 6065,9401 6067,9394 6067,9392 6083,9332 6084,9327 6108,9329 6128,9337 6128,9355 6128,9356 6128,9358 6127,9362 6126,9367 6126,9369 6126,9373 6126,9398 6146,9409 6163,9409 6197,9409 6207,9356 6207,9355 6207,9351 6202,9351 6201,9351 6197,9351 6196,9353 6195,9360 6190,9374 6181,9399 6163,9399 6154,9399 6152,9390 6152,9381 6152,9375 6152,9374 6153,9365 6154,9364 6155,9358 6155,9354 6155,9324 6114,9318 6099,9318 6109,9311 6122,9300 6128,9295 6145,9278 6163,9262 6182,9262 6187,9262 6191,9263 6193,9267 6179,9269 6175,9280 6175,9286 6175,9293 6182,9299 6190,9299 6199,9299 6209,9291 6209,9277 6209,9265 6201,9252 6182,9252 6163,9252 6145,9267 6127,9282 6113,9297 6102,9307 6087,9314 L 6122,9175 Z"/>
        </g>
       </g>
       <g class="com.sun.star.drawing.ClosedBezierShape">
        <g id="id27">
         <rect class="BoundingBox" stroke="none" fill="none" x="6433" y="9063" width="303" height="289"/>
         <path fill="rgb(255,99,33)" stroke="none" d="M 6725,9085 C 6731,9082 6734,9080 6734,9074 6734,9068 6730,9064 6725,9064 6723,9064 6722,9064 6716,9067 L 6442,9196 C 6438,9198 6433,9202 6433,9207 6433,9213 6438,9215 6442,9218 L 6716,9347 C 6722,9351 6723,9351 6725,9351 6730,9351 6734,9346 6734,9341 6734,9335 6731,9333 6725,9329 L 6467,9207 6725,9085 Z"/>
        </g>
       </g>
       <g class="com.sun.star.drawing.ClosedBezierShape">
        <g id="id28">
         <rect class="BoundingBox" stroke="none" fill="none" x="6895" y="9112" width="260" height="315"/>
         <path fill="rgb(255,99,33)" stroke="none" d="M 6934,9391 C 6929,9408 6929,9411 6907,9411 6901,9411 6896,9411 6896,9420 6896,9425 6898,9426 6902,9426 6916,9426 6929,9425 6944,9425 6959,9425 6976,9426 6992,9426 6995,9426 7001,9426 7001,9417 7001,9411 6996,9411 6990,9411 6965,9411 6965,9408 6965,9403 6965,9397 6985,9317 6989,9305 6995,9318 7010,9336 7035,9336 7092,9336 7153,9263 7153,9192 7153,9145 7125,9112 7088,9112 7064,9112 7039,9130 7023,9149 7018,9122 6996,9112 6979,9112 6956,9112 6946,9131 6942,9140 6934,9157 6927,9187 6927,9188 6927,9193 6931,9193 6933,9193 6938,9193 6938,9193 6942,9181 6949,9147 6959,9123 6977,9123 6985,9123 6992,9127 6992,9146 6992,9157 6991,9162 6989,9170 L 6934,9391 Z M 7021,9176 C 7024,9162 7038,9149 7047,9141 7064,9127 7078,9123 7086,9123 7106,9123 7119,9140 7119,9169 7119,9198 7102,9255 7093,9274 7076,9308 7052,9325 7035,9325 7001,9325 6995,9283 6995,9281 6995,9280 6995,9279 6996,9273 L 7021,9176 Z"/>
        </g>
       </g>
       <g class="com.sun.star.drawing.ClosedBezierShape">
        <g id="id29">
         <rect class="BoundingBox" stroke="none" fill="none" x="7158" y="9174" width="155" height="302"/>
         <path fill="rgb(255,99,33)" stroke="none" d="M 7311,9188 C 7311,9181 7307,9175 7298,9175 7288,9175 7278,9185 7278,9194 7278,9199 7282,9207 7292,9207 7301,9207 7311,9198 7311,9188 Z M 7237,9421 C 7232,9445 7214,9465 7192,9465 7188,9465 7185,9464 7180,9463 7189,9458 7192,9450 7192,9445 7192,9437 7186,9432 7179,9432 7168,9432 7159,9441 7159,9453 7159,9466 7172,9475 7194,9475 7214,9475 7254,9461 7265,9420 L 7297,9296 C 7298,9292 7299,9289 7299,9285 7299,9265 7282,9252 7261,9252 7223,9252 7200,9299 7200,9305 7200,9309 7205,9309 7206,9309 7210,9309 7210,9308 7214,9302 7222,9282 7240,9261 7260,9261 7269,9261 7272,9267 7272,9278 7272,9282 7271,9287 7271,9289 L 7237,9421 Z"/>
        </g>
       </g>
       <g class="com.sun.star.drawing.ClosedBezierShape">
        <g id="id30">
         <rect class="BoundingBox" stroke="none" fill="none" x="7516" y="9196" width="303" height="23"/>
         <path fill="rgb(255,99,33)" stroke="none" d="M 7801,9217 C 7808,9217 7817,9217 7817,9206 7817,9196 7808,9196 7801,9196 L 7533,9196 C 7525,9196 7516,9196 7516,9206 7516,9217 7525,9217 7533,9217 L 7801,9217 Z"/>
        </g>
       </g>
       <g class="com.sun.star.drawing.ClosedBezierShape">
        <g id="id31">
         <rect class="BoundingBox" stroke="none" fill="none" x="7987" y="8987" width="237" height="351"/>
         <path fill="rgb(255,99,33)" stroke="none" d="M 8223,8993 C 8223,8992 8223,8988 8216,8988 8209,8988 8162,8992 8153,8993 8150,8993 8147,8996 8147,9002 8147,9009 8151,9009 8159,9009 8183,9009 8184,9012 8184,9017 L 8181,9027 8152,9143 C 8143,9125 8129,9112 8106,9112 8049,9112 7988,9185 7988,9257 7988,9304 8015,9336 8054,9336 8064,9336 8088,9334 8118,9299 8122,9319 8139,9336 8162,9336 8180,9336 8192,9325 8199,9308 8207,9291 8214,9261 8214,9260 8214,9254 8209,9254 8208,9254 8203,9254 8203,9257 8202,9263 8193,9296 8184,9325 8164,9325 8150,9325 8149,9313 8149,9302 8149,9290 8150,9287 8152,9279 L 8223,8993 Z M 8120,9271 C 8118,9280 8118,9281 8110,9290 8088,9317 8068,9325 8055,9325 8029,9325 8022,9298 8022,9279 8022,9254 8038,9193 8050,9170 8065,9141 8087,9123 8108,9123 8139,9123 8147,9164 8147,9167 8147,9169 8146,9173 8144,9175 L 8120,9271 Z"/>
        </g>
       </g>
       <g class="com.sun.star.drawing.ClosedBezierShape">
        <g id="id32">
         <rect class="BoundingBox" stroke="none" fill="none" x="8249" y="9164" width="173" height="246"/>
         <path fill="rgb(255,99,33)" stroke="none" d="M 8333,9175 C 8333,9175 8334,9170 8334,9169 8334,9168 8333,9165 8328,9165 8321,9165 8292,9167 8283,9168 8281,9168 8277,9169 8277,9176 8277,9181 8281,9181 8286,9181 8301,9181 8301,9184 8301,9186 8301,9188 8301,9190 8300,9194 L 8252,9390 C 8250,9395 8250,9397 8250,9398 8250,9402 8254,9409 8262,9409 8271,9409 8276,9401 8278,9394 8278,9392 8293,9332 8295,9327 8319,9329 8339,9337 8339,9355 8339,9356 8339,9358 8338,9362 8337,9367 8337,9369 8337,9373 8337,9398 8357,9409 8374,9409 8408,9409 8418,9356 8418,9355 8418,9351 8413,9351 8412,9351 8408,9351 8407,9353 8405,9360 8401,9374 8392,9399 8374,9399 8365,9399 8363,9390 8363,9381 8363,9375 8363,9374 8364,9365 8365,9364 8366,9358 8366,9354 8366,9324 8325,9318 8310,9318 8320,9311 8333,9300 8339,9295 8356,9278 8374,9262 8393,9262 8398,9262 8402,9263 8404,9267 8390,9269 8386,9280 8386,9286 8386,9293 8393,9299 8401,9299 8410,9299 8420,9291 8420,9277 8420,9265 8412,9252 8394,9252 8374,9252 8356,9267 8338,9282 8324,9297 8312,9307 8298,9314 L 8333,9175 Z"/>
        </g>
       </g>
       <g class="com.sun.star.drawing.ClosedBezierShape">
        <g id="id33">
         <rect class="BoundingBox" stroke="none" fill="none" x="5887" y="9725" width="109" height="351"/>
         <path fill="rgb(255,99,33)" stroke="none" d="M 5994,9731 C 5994,9730 5994,9726 5987,9726 5976,9726 5940,9730 5927,9730 5923,9731 5918,9731 5918,9742 5918,9747 5922,9747 5930,9747 5954,9747 5954,9750 5954,9755 L 5953,9765 5890,10011 C 5889,10017 5888,10020 5888,10028 5888,10056 5910,10074 5932,10074 5949,10074 5962,10064 5971,10046 5979,10027 5985,9999 5985,9998 5985,9992 5981,9992 5979,9992 5974,9992 5974,9995 5972,10001 5964,10034 5954,10063 5935,10063 5919,10063 5919,10047 5919,10041 5919,10028 5920,10026 5922,10017 L 5994,9731 Z"/>
        </g>
       </g>
       <g class="com.sun.star.drawing.ClosedBezierShape">
        <g id="id34">
         <rect class="BoundingBox" stroke="none" fill="none" x="6038" y="9672" width="90" height="181"/>
         <path fill="rgb(255,99,33)" stroke="none" d="M 6123,9702 C 6126,9697 6126,9693 6126,9691 6126,9680 6116,9672 6106,9672 6093,9672 6088,9683 6087,9689 L 6041,9839 C 6040,9839 6039,9843 6039,9845 6039,9848 6050,9851 6052,9851 6055,9851 6056,9851 6058,9846 L 6123,9702 Z"/>
        </g>
       </g>
       <g class="com.sun.star.drawing.ClosedBezierShape">
        <g id="id35">
         <rect class="BoundingBox" stroke="none" fill="none" x="6038" y="9949" width="173" height="247"/>
         <path fill="rgb(255,99,33)" stroke="none" d="M 6122,9960 C 6122,9960 6123,9955 6123,9954 6123,9953 6122,9950 6117,9950 6111,9950 6081,9952 6072,9953 6070,9953 6066,9954 6066,9961 6066,9967 6070,9967 6075,9967 6090,9967 6090,9969 6090,9971 6090,9973 6090,9976 6089,9979 L 6041,10175 C 6039,10181 6039,10182 6039,10183 6039,10187 6043,10194 6051,10194 6060,10194 6065,10186 6067,10179 6067,10177 6083,10117 6084,10112 6108,10114 6128,10122 6128,10140 6128,10141 6128,10144 6127,10147 6126,10153 6126,10154 6126,10158 6126,10183 6146,10194 6163,10194 6197,10194 6207,10141 6207,10140 6207,10136 6202,10136 6201,10136 6197,10136 6196,10138 6195,10145 6190,10159 6181,10184 6163,10184 6154,10184 6152,10175 6152,10166 6152,10160 6152,10159 6153,10150 6154,10149 6155,10144 6155,10139 6155,10109 6114,10104 6099,10103 6109,10097 6122,10085 6128,10080 6145,10063 6163,10047 6182,10047 6187,10047 6191,10048 6193,10052 6179,10054 6175,10066 6175,10071 6175,10079 6182,10084 6190,10084 6199,10084 6209,10076 6209,10062 6209,10051 6201,10037 6182,10037 6163,10037 6145,10052 6127,10067 6113,10082 6102,10092 6087,10099 L 6122,9960 Z"/>
        </g>
       </g>
       <g class="com.sun.star.drawing.ClosedBezierShape">
        <g id="id36">
         <rect class="BoundingBox" stroke="none" fill="none" x="6433" y="9801" width="303" height="289"/>
         <path fill="rgb(255,99,33)" stroke="none" d="M 6725,9823 C 6731,9820 6734,9818 6734,9812 6734,9806 6730,9802 6725,9802 6723,9802 6722,9802 6716,9805 L 6442,9934 C 6438,9936 6433,9940 6433,9945 6433,9951 6438,9953 6442,9957 L 6716,10085 C 6722,10089 6723,10089 6725,10089 6730,10089 6734,10084 6734,10079 6734,10073 6731,10071 6725,10067 L 6467,9945 6725,9823 Z"/>
        </g>
       </g>
       <g class="com.sun.star.drawing.ClosedBezierShape">
        <g id="id37">
         <rect class="BoundingBox" stroke="none" fill="none" x="6932" y="9725" width="109" height="351"/>
         <path fill="rgb(255,99,33)" stroke="none" d="M 7039,9731 C 7039,9730 7039,9726 7032,9726 7021,9726 6985,9730 6972,9730 6968,9731 6963,9731 6963,9742 6963,9747 6967,9747 6975,9747 6999,9747 6999,9750 6999,9755 L 6998,9765 6935,10011 C 6934,10017 6933,10020 6933,10028 6933,10056 6955,10074 6977,10074 6994,10074 7007,10064 7015,10046 7024,10027 7030,9999 7030,9998 7030,9992 7026,9992 7024,9992 7019,9992 7019,9995 7017,10001 7009,10034 6999,10063 6980,10063 6964,10063 6964,10047 6964,10041 6964,10028 6965,10026 6967,10017 L 7039,9731 Z"/>
        </g>
       </g>
       <g class="com.sun.star.drawing.ClosedBezierShape">
        <g id="id38">
         <rect class="BoundingBox" stroke="none" fill="none" x="7083" y="9902" width="173" height="245"/>
         <path fill="rgb(255,99,33)" stroke="none" d="M 7167,9913 C 7167,9913 7168,9908 7168,9907 7168,9906 7167,9903 7162,9903 7156,9903 7126,9905 7117,9906 7115,9906 7111,9907 7111,9914 7111,9920 7115,9920 7120,9920 7135,9920 7135,9922 7135,9924 7135,9926 7135,9929 7134,9932 L 7086,10128 C 7084,10134 7084,10135 7084,10136 7084,10140 7088,10146 7096,10146 7105,10146 7110,10139 7112,10132 7112,10130 7128,10070 7129,10065 7153,10067 7173,10075 7173,10093 7173,10094 7173,10097 7172,10100 7171,10106 7171,10107 7171,10111 7171,10136 7191,10146 7208,10146 7242,10146 7252,10094 7252,10093 7252,10089 7247,10089 7246,10089 7242,10089 7241,10091 7240,10098 7235,10112 7226,10137 7208,10137 7199,10137 7197,10128 7197,10119 7197,10113 7197,10112 7198,10103 7199,10102 7200,10097 7200,10092 7200,10062 7159,10056 7144,10056 7154,10050 7167,10038 7173,10033 7190,10016 7208,10000 7227,10000 7232,10000 7236,10001 7238,10005 7224,10007 7220,10018 7220,10024 7220,10032 7227,10037 7235,10037 7244,10037 7254,10029 7254,10015 7254,10004 7246,9990 7227,9990 7208,9990 7190,10005 7172,10020 7158,10035 7147,10045 7132,10052 L 7167,9913 Z"/>
        </g>
       </g>
      </g>
     </g>
    </g>
   </g>
  </g>
 </g>
</svg>