<?xml version="1.0" encoding="UTF-8"?>
<!DOCTYPE svg PUBLIC "-//W3C//DTD SVG 1.1//EN" "http://www.w3.org/Graphics/SVG/1.1/DTD/svg11.dtd">
<svg version="1.2" width="70.31mm" height="19.68mm" viewBox="3545 8241 7031 1968" preserveAspectRatio="xMidYMid" fill-rule="evenodd" stroke-width="28.222" stroke-linejoin="round" xmlns="http://www.w3.org/2000/svg" xmlns:ooo="http://xml.openoffice.org/svg/export" xmlns:xlink="http://www.w3.org/1999/xlink" xmlns:presentation="http://sun.com/xmlns/staroffice/presentation" xmlns:smil="http://www.w3.org/2001/SMIL20/" xmlns:anim="urn:oasis:names:tc:opendocument:xmlns:animation:1.0" xml:space="preserve">
 <defs class="ClipPathGroup">
  <clipPath id="presentation_clip_path" clipPathUnits="userSpaceOnUse">
   <rect x="3545" y="8241" width="7031" height="1968"/>
  </clipPath>
  <clipPath id="presentation_clip_path_shrink" clipPathUnits="userSpaceOnUse">
   <rect x="3552" y="8242" width="7017" height="1965"/>
  </clipPath>
 </defs>
 <defs class="TextShapeIndex">
  <g ooo:slide="id1" ooo:id-list="id3 id4 id5 id6 id7 id8 id9 id10 id11 id12 id13 id14 id15 id16 id17 id18 id19 id20 id21 id22 id23 id24 id25 id26 id27 id28 id29 id30 id31 id32 id33 id34 id35 id36 id37"/>
 </defs>
 <defs class="EmbeddedBulletChars">
  <g id="bullet-char-template-57356" transform="scale(0.00048828125,-0.00048828125)">
   <path d="M 580,1141 L 1163,571 580,0 -4,571 580,1141 Z"/>
  </g>
  <g id="bullet-char-template-57354" transform="scale(0.00048828125,-0.00048828125)">
   <path d="M 8,1128 L 1137,1128 1137,0 8,0 8,1128 Z"/>
  </g>
  <g id="bullet-char-template-10146" transform="scale(0.00048828125,-0.00048828125)">
   <path d="M 174,0 L 602,739 174,1481 1456,739 174,0 Z M 1358,739 L 309,1346 659,739 1358,739 Z"/>
  </g>
  <g id="bullet-char-template-10132" transform="scale(0.00048828125,-0.00048828125)">
   <path d="M 2015,739 L 1276,0 717,0 1260,543 174,543 174,936 1260,936 717,1481 1274,1481 2015,739 Z"/>
  </g>
  <g id="bullet-char-template-10007" transform="scale(0.00048828125,-0.00048828125)">
   <path d="M 0,-2 C -7,14 -16,27 -25,37 L 356,567 C 262,823 215,952 215,954 215,979 228,992 255,992 264,992 276,990 289,987 310,991 331,999 354,1012 L 381,999 492,748 772,1049 836,1024 860,1049 C 881,1039 901,1025 922,1006 886,937 835,863 770,784 769,783 710,716 594,584 L 774,223 C 774,196 753,168 711,139 L 727,119 C 717,90 699,76 672,76 641,76 570,178 457,381 L 164,-76 C 142,-110 111,-127 72,-127 30,-127 9,-110 8,-76 1,-67 -2,-52 -2,-32 -2,-23 -1,-13 0,-2 Z"/>
  </g>
  <g id="bullet-char-template-10004" transform="scale(0.00048828125,-0.00048828125)">
   <path d="M 285,-33 C 182,-33 111,30 74,156 52,228 41,333 41,471 41,549 55,616 82,672 116,743 169,778 240,778 293,778 328,747 346,684 L 369,508 C 377,444 397,411 428,410 L 1163,1116 C 1174,1127 1196,1133 1229,1133 1271,1133 1292,1118 1292,1087 L 1292,965 C 1292,929 1282,901 1262,881 L 442,47 C 390,-6 338,-33 285,-33 Z"/>
  </g>
  <g id="bullet-char-template-9679" transform="scale(0.00048828125,-0.00048828125)">
   <path d="M 813,0 C 632,0 489,54 383,161 276,268 223,411 223,592 223,773 276,916 383,1023 489,1130 632,1184 813,1184 992,1184 1136,1130 1245,1023 1353,916 1407,772 1407,592 1407,412 1353,268 1245,161 1136,54 992,0 813,0 Z"/>
  </g>
  <g id="bullet-char-template-8226" transform="scale(0.00048828125,-0.00048828125)">
   <path d="M 346,457 C 273,457 209,483 155,535 101,586 74,649 74,723 74,796 101,859 155,911 209,963 273,989 346,989 419,989 480,963 531,910 582,859 608,796 608,723 608,648 583,586 532,535 482,483 420,457 346,457 Z"/>
  </g>
  <g id="bullet-char-template-8211" transform="scale(0.00048828125,-0.00048828125)">
   <path d="M -4,459 L 1135,459 1135,606 -4,606 -4,459 Z"/>
  </g>
  <g id="bullet-char-template-61548" transform="scale(0.00048828125,-0.00048828125)">
   <path d="M 173,740 C 173,903 231,1043 346,1159 462,1274 601,1332 765,1332 928,1332 1067,1274 1183,1159 1299,1043 1357,903 1357,740 1357,577 1299,437 1183,322 1067,206 928,148 765,148 601,148 462,206 346,322 231,437 173,577 173,740 Z"/>
  </g>
 </defs>
 <defs class="TextEmbeddedBitmaps"/>
 <g class="SlideGroup">
  <g>
   <g id="container-id1">
    <g id="id1" class="Slide" clip-path="url(#presentation_clip_path)">
     <g class="Page">
      <g class="Group">
       <g class="com.sun.star.drawing.PolyPolygonShape">
        <g id="id3">
         <rect class="BoundingBox" stroke="none" fill="none" x="3545" y="8246" width="7032" height="1961"/>
        </g>
       </g>
       <g class="com.sun.star.drawing.ClosedBezierShape">
        <g id="id4">
         <rect class="BoundingBox" stroke="none" fill="none" x="3569" y="8241" width="353" height="360"/>
         <path fill="rgb(255,99,33)" stroke="none" d="M 3920,8245 C 3920,8244 3919,8241 3915,8241 3913,8241 3912,8241 3907,8247 L 3873,8285 C 3869,8278 3845,8241 3790,8241 3681,8241 3570,8350 3570,8465 3570,8545 3628,8599 3703,8599 3747,8599 3784,8580 3810,8557 3856,8516 3864,8472 3864,8470 3864,8466 3860,8466 3859,8466 3855,8466 3853,8466 3852,8470 3847,8485 3836,8520 3803,8549 3768,8576 3737,8585 3711,8585 3667,8585 3614,8559 3614,8482 3614,8454 3625,8374 3674,8316 3704,8281 3751,8257 3795,8257 3845,8257 3874,8295 3874,8352 3874,8371 3873,8372 3873,8376 3873,8382 3878,8382 3880,8382 3887,8382 3887,8381 3889,8372 L 3920,8245 Z"/>
        </g>
       </g>
       <g class="com.sun.star.drawing.ClosedBezierShape">
        <g id="id5">
         <rect class="BoundingBox" stroke="none" fill="none" x="3912" y="8433" width="107" height="235"/>
         <path fill="rgb(255,99,33)" stroke="none" d="M 4009,8447 C 4009,8441 4004,8434 3995,8434 3985,8434 3975,8443 3975,8453 3975,8458 3980,8466 3990,8466 4000,8466 4009,8456 4009,8447 Z M 3938,8623 C 3936,8627 3935,8631 3935,8637 3935,8653 3948,8666 3967,8666 4003,8666 4018,8618 4018,8614 4018,8609 4013,8609 4012,8609 4008,8609 4008,8612 4005,8615 3997,8643 3982,8656 3968,8656 3962,8656 3960,8652 3960,8644 3960,8636 3963,8631 3966,8623 3969,8613 3973,8604 3976,8595 3980,8587 3992,8554 3994,8551 3995,8548 3996,8543 3996,8540 3996,8523 3982,8511 3963,8511 3928,8511 3912,8558 3912,8563 3912,8568 3917,8568 3918,8568 3924,8568 3924,8566 3925,8562 3934,8532 3949,8520 3962,8520 3967,8520 3971,8523 3971,8532 3971,8540 3968,8545 3959,8567 L 3938,8623 Z"/>
        </g>
       </g>
       <g class="com.sun.star.drawing.ClosedBezierShape">
        <g id="id6">
         <rect class="BoundingBox" stroke="none" fill="none" x="4196" y="8301" width="330" height="331"/>
         <path fill="rgb(255,99,33)" stroke="none" d="M 4372,8476 L 4509,8476 C 4516,8476 4525,8476 4525,8466 4525,8456 4516,8456 4509,8456 L 4372,8456 4372,8318 C 4372,8310 4372,8301 4361,8301 4351,8301 4351,8310 4351,8318 L 4351,8456 4214,8456 C 4206,8456 4197,8456 4197,8466 4197,8476 4206,8476 4214,8476 L 4351,8476 4351,8614 C 4351,8620 4351,8631 4361,8631 4372,8631 4372,8620 4372,8614 L 4372,8476 Z"/>
        </g>
       </g>
       <g class="com.sun.star.drawing.ClosedBezierShape">
        <g id="id7">
         <rect class="BoundingBox" stroke="none" fill="none" x="4645" y="8370" width="260" height="316"/>
         <path fill="rgb(255,99,33)" stroke="none" d="M 4684,8650 C 4680,8666 4680,8670 4657,8670 4652,8670 4646,8670 4646,8679 4646,8683 4648,8684 4653,8684 4666,8684 4680,8683 4694,8683 4710,8683 4727,8684 4742,8684 4746,8684 4751,8684 4751,8675 4751,8670 4747,8670 4740,8670 4715,8670 4715,8666 4715,8662 4715,8655 4735,8576 4739,8563 4746,8577 4759,8595 4785,8595 4842,8595 4903,8522 4903,8450 4903,8403 4875,8371 4839,8371 4814,8371 4789,8389 4774,8408 4768,8381 4747,8371 4729,8371 4706,8371 4696,8390 4692,8399 4684,8416 4677,8446 4677,8447 4677,8451 4682,8451 4683,8451 4688,8451 4688,8451 4692,8440 4700,8406 4710,8382 4728,8382 4735,8382 4742,8385 4742,8404 4742,8416 4741,8421 4739,8429 L 4684,8650 Z M 4771,8435 C 4775,8421 4788,8408 4797,8400 4814,8385 4828,8382 4836,8382 4856,8382 4869,8399 4869,8428 4869,8457 4852,8514 4843,8533 4826,8567 4803,8584 4785,8584 4751,8584 4746,8542 4746,8540 4746,8539 4746,8538 4747,8532 L 4771,8435 Z"/>
        </g>
       </g>
       <g class="com.sun.star.drawing.ClosedBezierShape">
        <g id="id8">
         <rect class="BoundingBox" stroke="none" fill="none" x="4909" y="8433" width="154" height="302"/>
         <path fill="rgb(255,99,33)" stroke="none" d="M 5061,8447 C 5061,8440 5057,8434 5048,8434 5038,8434 5028,8444 5028,8453 5028,8458 5032,8466 5042,8466 5051,8466 5061,8457 5061,8447 Z M 4987,8680 C 4982,8703 4964,8723 4943,8723 4938,8723 4935,8722 4930,8721 4939,8717 4943,8709 4943,8703 4943,8695 4936,8691 4929,8691 4918,8691 4909,8700 4909,8711 4909,8725 4923,8734 4944,8734 4964,8734 5005,8721 5015,8679 L 5047,8554 C 5048,8551 5049,8548 5049,8543 5049,8524 5032,8511 5011,8511 4973,8511 4951,8558 4951,8563 4951,8568 4956,8568 4956,8568 4961,8568 4961,8567 4964,8561 4972,8541 4990,8520 5010,8520 5019,8520 5022,8525 5022,8537 5022,8541 5021,8545 5021,8548 L 4987,8680 Z"/>
        </g>
       </g>
       <g class="com.sun.star.drawing.ClosedBezierShape">
        <g id="id9">
         <rect class="BoundingBox" stroke="none" fill="none" x="5266" y="8454" width="303" height="24"/>
         <path fill="rgb(255,99,33)" stroke="none" d="M 5551,8476 C 5559,8476 5568,8476 5568,8465 5568,8455 5559,8455 5551,8455 L 5283,8455 C 5275,8455 5266,8455 5266,8465 5266,8476 5275,8476 5283,8476 L 5551,8476 Z"/>
        </g>
       </g>
       <g class="com.sun.star.drawing.ClosedBezierShape">
        <g id="id10">
         <rect class="BoundingBox" stroke="none" fill="none" x="5737" y="8246" width="238" height="350"/>
         <path fill="rgb(255,99,33)" stroke="none" d="M 5973,8252 C 5973,8251 5973,8247 5966,8247 5960,8247 5913,8251 5904,8252 5900,8252 5897,8254 5897,8261 5897,8268 5901,8268 5909,8268 5933,8268 5934,8271 5934,8276 L 5932,8286 5902,8402 C 5894,8384 5879,8371 5857,8371 5799,8371 5738,8444 5738,8515 5738,8562 5765,8595 5804,8595 5814,8595 5839,8593 5868,8558 5872,8578 5889,8595 5913,8595 5930,8595 5942,8584 5950,8567 5957,8550 5964,8520 5964,8519 5964,8513 5960,8513 5958,8513 5953,8513 5953,8515 5952,8522 5943,8554 5934,8584 5914,8584 5900,8584 5899,8571 5899,8561 5899,8549 5900,8545 5902,8538 L 5973,8252 Z M 5870,8530 C 5868,8539 5868,8540 5860,8549 5839,8576 5818,8584 5805,8584 5780,8584 5773,8557 5773,8538 5773,8513 5788,8451 5801,8429 5815,8400 5838,8382 5858,8382 5890,8382 5897,8422 5897,8426 5897,8428 5896,8431 5895,8434 L 5870,8530 Z"/>
        </g>
       </g>
       <g class="com.sun.star.drawing.ClosedBezierShape">
        <g id="id11">
         <rect class="BoundingBox" stroke="none" fill="none" x="5974" y="8433" width="154" height="302"/>
         <path fill="rgb(255,99,33)" stroke="none" d="M 6126,8447 C 6126,8440 6122,8434 6113,8434 6103,8434 6093,8444 6093,8453 6093,8458 6097,8466 6107,8466 6116,8466 6126,8457 6126,8447 Z M 6053,8680 C 6047,8703 6029,8723 6008,8723 6003,8723 6000,8722 5995,8721 6004,8717 6008,8709 6008,8703 6008,8695 6001,8691 5994,8691 5983,8691 5974,8700 5974,8711 5974,8725 5988,8734 6009,8734 6029,8734 6070,8721 6081,8679 L 6112,8554 C 6113,8551 6114,8548 6114,8543 6114,8524 6097,8511 6076,8511 6038,8511 6016,8558 6016,8563 6016,8568 6021,8568 6021,8568 6026,8568 6026,8567 6029,8561 6037,8541 6055,8520 6075,8520 6084,8520 6087,8525 6087,8537 6087,8541 6086,8545 6086,8548 L 6053,8680 Z"/>
        </g>
       </g>
       <g class="com.sun.star.drawing.ClosedBezierShape">
        <g id="id12">
         <rect class="BoundingBox" stroke="none" fill="none" x="6359" y="8322" width="303" height="289"/>
         <path fill="rgb(255,99,33)" stroke="none" d="M 6652,8344 C 6657,8341 6661,8338 6661,8333 6661,8327 6656,8323 6652,8323 6649,8323 6648,8323 6643,8326 L 6368,8455 C 6364,8457 6359,8460 6359,8466 6359,8472 6364,8474 6368,8477 L 6643,8606 C 6648,8609 6649,8609 6652,8609 6656,8609 6661,8605 6661,8599 6661,8594 6657,8591 6652,8588 L 6393,8466 6652,8344 Z"/>
        </g>
       </g>
       <g class="com.sun.star.drawing.ClosedBezierShape">
        <g id="id13">
         <rect class="BoundingBox" stroke="none" fill="none" x="6862" y="8241" width="352" height="360"/>
         <path fill="rgb(255,99,33)" stroke="none" d="M 7213,8245 C 7213,8244 7212,8241 7207,8241 7206,8241 7205,8241 7199,8247 L 7166,8285 C 7161,8278 7138,8241 7083,8241 6973,8241 6862,8350 6862,8465 6862,8545 6921,8599 6996,8599 7039,8599 7076,8580 7103,8557 7149,8516 7157,8472 7157,8470 7157,8466 7152,8466 7151,8466 7148,8466 7146,8466 7144,8470 7140,8485 7129,8520 7095,8549 7061,8576 7029,8585 7005,8585 6960,8585 6907,8559 6907,8482 6907,8454 6917,8374 6966,8316 6997,8281 7044,8257 7087,8257 7138,8257 7167,8295 7167,8352 7167,8371 7166,8372 7166,8376 7166,8382 7170,8382 7172,8382 7179,8382 7179,8381 7181,8372 L 7213,8245 Z"/>
        </g>
       </g>
       <g class="com.sun.star.drawing.ClosedBezierShape">
        <g id="id14">
         <rect class="BoundingBox" stroke="none" fill="none" x="7204" y="8433" width="108" height="235"/>
         <path fill="rgb(255,99,33)" stroke="none" d="M 7301,8447 C 7301,8441 7297,8434 7288,8434 7278,8434 7268,8443 7268,8453 7268,8458 7272,8466 7282,8466 7292,8466 7301,8456 7301,8447 Z M 7231,8623 C 7228,8627 7227,8631 7227,8637 7227,8653 7241,8666 7260,8666 7295,8666 7310,8618 7310,8614 7310,8609 7306,8609 7305,8609 7300,8609 7300,8612 7298,8615 7290,8643 7274,8656 7261,8656 7254,8656 7253,8652 7253,8644 7253,8636 7255,8631 7259,8623 7262,8613 7265,8604 7269,8595 7272,8587 7284,8554 7287,8551 7288,8548 7289,8543 7289,8540 7289,8523 7274,8511 7255,8511 7221,8511 7205,8558 7205,8563 7205,8568 7209,8568 7211,8568 7216,8568 7216,8566 7217,8562 7226,8532 7242,8520 7254,8520 7260,8520 7263,8523 7263,8532 7263,8540 7261,8545 7252,8567 L 7231,8623 Z"/>
        </g>
       </g>
       <g class="com.sun.star.drawing.ClosedBezierShape">
        <g id="id15">
         <rect class="BoundingBox" stroke="none" fill="none" x="7489" y="8301" width="330" height="331"/>
         <path fill="rgb(255,99,33)" stroke="none" d="M 7664,8476 L 7802,8476 C 7809,8476 7818,8476 7818,8466 7818,8456 7809,8456 7802,8456 L 7664,8456 7664,8318 C 7664,8310 7664,8301 7654,8301 7644,8301 7644,8310 7644,8318 L 7644,8456 7506,8456 C 7498,8456 7489,8456 7489,8466 7489,8476 7498,8476 7506,8476 L 7644,8476 7644,8614 C 7644,8620 7644,8631 7654,8631 7664,8631 7664,8620 7664,8614 L 7664,8476 Z"/>
        </g>
       </g>
       <g class="com.sun.star.drawing.ClosedBezierShape">
        <g id="id16">
         <rect class="BoundingBox" stroke="none" fill="none" x="7938" y="8370" width="260" height="316"/>
         <path fill="rgb(255,99,33)" stroke="none" d="M 7977,8650 C 7972,8666 7972,8670 7950,8670 7944,8670 7939,8670 7939,8679 7939,8683 7941,8684 7945,8684 7959,8684 7972,8683 7987,8683 8002,8683 8019,8684 8035,8684 8038,8684 8044,8684 8044,8675 8044,8670 8039,8670 8033,8670 8008,8670 8008,8666 8008,8662 8008,8655 8028,8576 8031,8563 8038,8577 8053,8595 8077,8595 8135,8595 8196,8522 8196,8450 8196,8403 8168,8371 8131,8371 8107,8371 8082,8389 8066,8408 8061,8381 8039,8371 8021,8371 7999,8371 7989,8390 7984,8399 7977,8416 7970,8446 7970,8447 7970,8451 7974,8451 7975,8451 7981,8451 7981,8451 7984,8440 7992,8406 8002,8382 8020,8382 8028,8382 8035,8385 8035,8404 8035,8416 8034,8421 8031,8429 L 7977,8650 Z M 8064,8435 C 8067,8421 8081,8408 8090,8400 8107,8385 8121,8382 8129,8382 8149,8382 8161,8399 8161,8428 8161,8457 8145,8514 8136,8533 8119,8567 8095,8584 8077,8584 8044,8584 8038,8542 8038,8540 8038,8539 8038,8538 8039,8532 L 8064,8435 Z"/>
        </g>
       </g>
       <g class="com.sun.star.drawing.ClosedBezierShape">
        <g id="id17">
         <rect class="BoundingBox" stroke="none" fill="none" x="8201" y="8433" width="155" height="302"/>
         <path fill="rgb(255,99,33)" stroke="none" d="M 8354,8447 C 8354,8440 8350,8434 8341,8434 8331,8434 8320,8444 8320,8453 8320,8458 8325,8466 8335,8466 8344,8466 8354,8457 8354,8447 Z M 8280,8680 C 8275,8703 8257,8723 8235,8723 8231,8723 8227,8722 8223,8721 8232,8717 8235,8709 8235,8703 8235,8695 8229,8691 8222,8691 8211,8691 8202,8700 8202,8711 8202,8725 8215,8734 8236,8734 8257,8734 8297,8721 8308,8679 L 8339,8554 C 8341,8551 8342,8548 8342,8543 8342,8524 8325,8511 8304,8511 8266,8511 8243,8558 8243,8563 8243,8568 8248,8568 8249,8568 8253,8568 8253,8567 8257,8561 8264,8541 8282,8520 8303,8520 8311,8520 8315,8525 8315,8537 8315,8541 8314,8545 8314,8548 L 8280,8680 Z"/>
        </g>
       </g>
       <g class="com.sun.star.drawing.ClosedBezierShape">
        <g id="id18">
         <rect class="BoundingBox" stroke="none" fill="none" x="8545" y="8301" width="330" height="331"/>
         <path fill="rgb(255,99,33)" stroke="none" d="M 8720,8476 L 8858,8476 C 8865,8476 8874,8476 8874,8466 8874,8456 8865,8456 8858,8456 L 8720,8456 8720,8318 C 8720,8310 8720,8301 8710,8301 8700,8301 8700,8310 8700,8318 L 8700,8456 8562,8456 C 8555,8456 8546,8456 8546,8466 8546,8476 8555,8476 8562,8476 L 8700,8476 8700,8614 C 8700,8620 8700,8631 8710,8631 8720,8631 8720,8620 8720,8614 L 8720,8476 Z"/>
        </g>
       </g>
       <g class="com.sun.star.drawing.ClosedBezierShape">
        <g id="id19">
         <rect class="BoundingBox" stroke="none" fill="none" x="8994" y="8370" width="260" height="316"/>
         <path fill="rgb(255,99,33)" stroke="none" d="M 9033,8650 C 9028,8666 9028,8670 9006,8670 9000,8670 8995,8670 8995,8679 8995,8683 8997,8684 9001,8684 9015,8684 9028,8683 9043,8683 9058,8683 9075,8684 9091,8684 9094,8684 9100,8684 9100,8675 9100,8670 9095,8670 9089,8670 9064,8670 9064,8666 9064,8662 9064,8655 9084,8576 9088,8563 9094,8577 9108,8595 9134,8595 9191,8595 9252,8522 9252,8450 9252,8403 9224,8371 9187,8371 9163,8371 9138,8389 9122,8408 9117,8381 9095,8371 9078,8371 9055,8371 9045,8390 9041,8399 9033,8416 9026,8446 9026,8447 9026,8451 9030,8451 9032,8451 9037,8451 9037,8451 9041,8440 9048,8406 9058,8382 9076,8382 9084,8382 9091,8385 9091,8404 9091,8416 9090,8421 9088,8429 L 9033,8650 Z M 9120,8435 C 9123,8421 9137,8408 9146,8400 9163,8385 9177,8382 9185,8382 9205,8382 9218,8399 9218,8428 9218,8457 9201,8514 9192,8533 9175,8567 9151,8584 9134,8584 9100,8584 9094,8542 9094,8540 9094,8539 9094,8538 9095,8532 L 9120,8435 Z"/>
        </g>
       </g>
       <g class="com.sun.star.drawing.ClosedBezierShape">
        <g id="id20">
         <rect class="BoundingBox" stroke="none" fill="none" x="9283" y="8423" width="172" height="246"/>
         <path fill="rgb(255,99,33)" stroke="none" d="M 9366,8434 C 9366,8434 9368,8429 9368,8428 9368,8427 9366,8423 9362,8423 9355,8423 9326,8426 9317,8427 9315,8427 9310,8428 9310,8435 9310,8440 9315,8440 9319,8440 9335,8440 9335,8443 9335,8445 9335,8447 9335,8449 9334,8453 L 9286,8648 C 9284,8654 9284,8655 9284,8656 9284,8661 9288,8668 9296,8668 9305,8668 9309,8660 9312,8653 9312,8651 9327,8590 9328,8586 9353,8588 9373,8596 9373,8614 9373,8615 9373,8617 9372,8620 9371,8626 9371,8627 9371,8632 9371,8656 9391,8668 9408,8668 9441,8668 9452,8615 9452,8614 9452,8609 9447,8609 9446,8609 9441,8609 9440,8612 9439,8618 9435,8633 9426,8657 9408,8657 9399,8657 9397,8648 9397,8640 9397,8634 9397,8633 9398,8624 9399,8623 9400,8617 9400,8613 9400,8582 9359,8577 9344,8577 9354,8570 9366,8559 9373,8553 9390,8537 9408,8521 9427,8521 9431,8521 9436,8522 9438,8525 9424,8528 9420,8539 9420,8544 9420,8552 9427,8558 9435,8558 9444,8558 9454,8550 9454,8535 9454,8524 9446,8511 9428,8511 9408,8511 9390,8525 9372,8541 9358,8556 9346,8566 9332,8572 L 9366,8434 Z"/>
        </g>
       </g>
       <g class="com.sun.star.drawing.ClosedBezierShape">
        <g id="id21">
         <rect class="BoundingBox" stroke="none" fill="none" x="9649" y="8454" width="304" height="24"/>
         <path fill="rgb(255,99,33)" stroke="none" d="M 9934,8476 C 9942,8476 9951,8476 9951,8465 9951,8455 9942,8455 9934,8455 L 9667,8455 C 9659,8455 9650,8455 9650,8465 9650,8476 9659,8476 9667,8476 L 9934,8476 Z"/>
        </g>
       </g>
       <g class="com.sun.star.drawing.ClosedBezierShape">
        <g id="id22">
         <rect class="BoundingBox" stroke="none" fill="none" x="10121" y="8246" width="237" height="350"/>
         <path fill="rgb(255,99,33)" stroke="none" d="M 10356,8252 C 10356,8251 10356,8247 10350,8247 10343,8247 10296,8251 10287,8252 10284,8252 10280,8254 10280,8261 10280,8268 10285,8268 10293,8268 10316,8268 10317,8271 10317,8276 L 10315,8286 10286,8402 C 10277,8384 10262,8371 10240,8371 10183,8371 10121,8444 10121,8515 10121,8562 10148,8595 10187,8595 10197,8595 10222,8593 10251,8558 10256,8578 10272,8595 10296,8595 10314,8595 10325,8584 10333,8567 10341,8550 10348,8520 10348,8519 10348,8513 10343,8513 10342,8513 10336,8513 10336,8515 10335,8522 10326,8554 10317,8584 10297,8584 10284,8584 10283,8571 10283,8561 10283,8549 10284,8545 10286,8538 L 10356,8252 Z M 10253,8530 C 10251,8539 10251,8540 10243,8549 10222,8576 10202,8584 10188,8584 10164,8584 10156,8557 10156,8538 10156,8513 10172,8451 10184,8429 10199,8400 10221,8382 10241,8382 10274,8382 10280,8422 10280,8426 10280,8428 10279,8431 10278,8434 L 10253,8530 Z"/>
        </g>
       </g>
       <g class="com.sun.star.drawing.ClosedBezierShape">
        <g id="id23">
         <rect class="BoundingBox" stroke="none" fill="none" x="10383" y="8423" width="172" height="246"/>
         <path fill="rgb(255,99,33)" stroke="none" d="M 10466,8434 C 10466,8434 10467,8429 10467,8428 10467,8427 10466,8423 10462,8423 10455,8423 10426,8426 10417,8427 10415,8427 10410,8428 10410,8435 10410,8440 10415,8440 10419,8440 10435,8440 10435,8443 10435,8445 10435,8447 10435,8449 10434,8453 L 10386,8648 C 10383,8654 10383,8655 10383,8656 10383,8661 10388,8668 10396,8668 10405,8668 10409,8660 10411,8653 10411,8651 10427,8590 10428,8586 10453,8588 10473,8596 10473,8614 10473,8615 10473,8617 10472,8620 10471,8626 10471,8627 10471,8632 10471,8656 10491,8668 10508,8668 10541,8668 10551,8615 10551,8614 10551,8609 10547,8609 10546,8609 10541,8609 10540,8612 10539,8618 10535,8633 10526,8657 10508,8657 10499,8657 10496,8648 10496,8640 10496,8634 10496,8633 10498,8624 10499,8623 10500,8617 10500,8613 10500,8582 10458,8577 10444,8577 10454,8570 10466,8559 10473,8553 10490,8537 10508,8521 10527,8521 10531,8521 10536,8522 10538,8525 10523,8528 10520,8539 10520,8544 10520,8552 10527,8558 10535,8558 10544,8558 10554,8550 10554,8535 10554,8524 10546,8511 10527,8511 10508,8511 10490,8525 10472,8541 10457,8556 10446,8566 10432,8572 L 10466,8434 Z"/>
        </g>
       </g>
       <g class="com.sun.star.drawing.ClosedBezierShape">
        <g id="id24">
         <rect class="BoundingBox" stroke="none" fill="none" x="5376" y="9192" width="303" height="23"/>
         <path fill="rgb(255,99,33)" stroke="none" d="M 5661,9214 C 5668,9214 5677,9214 5677,9203 5677,9193 5668,9193 5661,9193 L 5393,9193 C 5385,9193 5376,9193 5376,9203 5376,9214 5385,9214 5393,9214 L 5661,9214 Z"/>
        </g>
       </g>
       <g class="com.sun.star.drawing.ClosedBezierShape">
        <g id="id25">
         <rect class="BoundingBox" stroke="none" fill="none" x="5737" y="8984" width="238" height="350"/>
         <path fill="rgb(255,99,33)" stroke="none" d="M 5973,8990 C 5973,8989 5973,8984 5966,8984 5960,8984 5913,8989 5904,8990 5900,8990 5897,8992 5897,8999 5897,9006 5901,9006 5909,9006 5933,9006 5934,9009 5934,9013 L 5932,9023 5902,9140 C 5894,9122 5879,9109 5857,9109 5799,9109 5738,9181 5738,9253 5738,9300 5765,9332 5804,9332 5814,9332 5839,9330 5868,9296 5872,9316 5889,9332 5913,9332 5930,9332 5942,9321 5950,9304 5957,9288 5964,9257 5964,9256 5964,9251 5960,9251 5958,9251 5953,9251 5953,9253 5952,9260 5943,9292 5934,9321 5914,9321 5900,9321 5899,9309 5899,9299 5899,9287 5900,9283 5902,9275 L 5973,8990 Z M 5870,9268 C 5868,9276 5868,9278 5860,9287 5839,9313 5818,9321 5805,9321 5780,9321 5773,9294 5773,9275 5773,9251 5788,9189 5801,9167 5815,9138 5838,9120 5858,9120 5890,9120 5897,9160 5897,9163 5897,9166 5896,9169 5895,9171 L 5870,9268 Z"/>
        </g>
       </g>
       <g class="com.sun.star.drawing.ClosedBezierShape">
        <g id="id26">
         <rect class="BoundingBox" stroke="none" fill="none" x="5974" y="9171" width="154" height="302"/>
         <path fill="rgb(255,99,33)" stroke="none" d="M 6126,9185 C 6126,9178 6122,9171 6113,9171 6103,9171 6093,9181 6093,9190 6093,9196 6097,9204 6107,9204 6116,9204 6126,9195 6126,9185 Z M 6053,9418 C 6047,9441 6029,9461 6008,9461 6003,9461 6000,9460 5995,9459 6004,9454 6008,9447 6008,9441 6008,9433 6001,9429 5994,9429 5983,9429 5974,9438 5974,9449 5974,9462 5988,9471 6009,9471 6029,9471 6070,9458 6081,9416 L 6112,9292 C 6113,9289 6114,9285 6114,9281 6114,9262 6097,9249 6076,9249 6038,9249 6016,9296 6016,9301 6016,9306 6021,9306 6021,9306 6026,9306 6026,9304 6029,9299 6037,9279 6055,9257 6075,9257 6084,9257 6087,9263 6087,9274 6087,9279 6086,9283 6086,9285 L 6053,9418 Z"/>
        </g>
       </g>
       <g class="com.sun.star.drawing.ClosedBezierShape">
        <g id="id27">
         <rect class="BoundingBox" stroke="none" fill="none" x="6359" y="9060" width="303" height="289"/>
         <path fill="rgb(255,99,33)" stroke="none" d="M 6652,9082 C 6657,9078 6661,9076 6661,9071 6661,9065 6656,9060 6652,9060 6649,9060 6648,9060 6643,9064 L 6368,9193 C 6364,9195 6359,9198 6359,9204 6359,9209 6364,9212 6368,9215 L 6643,9344 C 6648,9347 6649,9347 6652,9347 6656,9347 6661,9343 6661,9337 6661,9331 6657,9329 6652,9326 L 6393,9204 6652,9082 Z"/>
        </g>
       </g>
       <g class="com.sun.star.drawing.ClosedBezierShape">
        <g id="id28">
         <rect class="BoundingBox" stroke="none" fill="none" x="6821" y="9108" width="260" height="316"/>
         <path fill="rgb(255,99,33)" stroke="none" d="M 6860,9387 C 6856,9404 6856,9407 6833,9407 6828,9407 6822,9407 6822,9416 6822,9421 6824,9422 6829,9422 6842,9422 6856,9421 6870,9421 6886,9421 6903,9422 6918,9422 6922,9422 6927,9422 6927,9413 6927,9407 6923,9407 6916,9407 6891,9407 6891,9404 6891,9400 6891,9393 6912,9313 6915,9301 6922,9315 6936,9332 6961,9332 7018,9332 7080,9260 7080,9188 7080,9141 7052,9109 7015,9109 6990,9109 6965,9126 6950,9146 6944,9119 6923,9109 6905,9109 6882,9109 6872,9128 6868,9137 6860,9153 6853,9184 6853,9185 6853,9189 6858,9189 6859,9189 6865,9189 6865,9189 6868,9178 6876,9143 6886,9120 6904,9120 6912,9120 6918,9123 6918,9142 6918,9153 6917,9159 6915,9167 L 6860,9387 Z M 6947,9172 C 6951,9159 6964,9146 6973,9138 6990,9123 7005,9120 7012,9120 7033,9120 7045,9137 7045,9166 7045,9195 7028,9252 7019,9271 7002,9304 6979,9321 6961,9321 6927,9321 6922,9280 6922,9278 6922,9276 6922,9275 6923,9270 L 6947,9172 Z"/>
        </g>
       </g>
       <g class="com.sun.star.drawing.ClosedBezierShape">
        <g id="id29">
         <rect class="BoundingBox" stroke="none" fill="none" x="7110" y="9161" width="173" height="246"/>
         <path fill="rgb(255,99,33)" stroke="none" d="M 7194,9171 C 7194,9171 7195,9167 7195,9166 7195,9165 7194,9161 7189,9161 7183,9161 7153,9163 7144,9165 7142,9165 7138,9166 7138,9172 7138,9178 7142,9178 7147,9178 7162,9178 7162,9180 7162,9182 7162,9185 7162,9187 7161,9190 L 7113,9386 C 7111,9392 7111,9393 7111,9394 7111,9399 7115,9405 7123,9405 7132,9405 7137,9397 7139,9391 7139,9388 7155,9328 7156,9324 7180,9326 7200,9334 7200,9351 7200,9353 7200,9355 7199,9358 7198,9364 7198,9365 7198,9369 7198,9394 7218,9405 7234,9405 7269,9405 7279,9353 7279,9351 7279,9347 7274,9347 7273,9347 7269,9347 7268,9349 7267,9356 7262,9371 7253,9395 7235,9395 7226,9395 7224,9386 7224,9377 7224,9372 7224,9371 7225,9362 7226,9360 7227,9355 7227,9350 7227,9320 7186,9315 7171,9315 7181,9308 7194,9297 7200,9291 7217,9274 7235,9259 7254,9259 7259,9259 7263,9260 7265,9263 7251,9265 7248,9276 7248,9282 7248,9290 7254,9296 7262,9296 7271,9296 7281,9288 7281,9273 7281,9262 7273,9249 7254,9249 7235,9249 7217,9263 7199,9279 7185,9293 7174,9303 7159,9310 L 7194,9171 Z"/>
        </g>
       </g>
       <g class="com.sun.star.drawing.ClosedBezierShape">
        <g id="id30">
         <rect class="BoundingBox" stroke="none" fill="none" x="7477" y="9192" width="303" height="23"/>
         <path fill="rgb(255,99,33)" stroke="none" d="M 7762,9214 C 7769,9214 7778,9214 7778,9203 7778,9193 7769,9193 7762,9193 L 7494,9193 C 7486,9193 7477,9193 7477,9203 7477,9214 7486,9214 7494,9214 L 7762,9214 Z"/>
        </g>
       </g>
       <g class="com.sun.star.drawing.ClosedBezierShape">
        <g id="id31">
         <rect class="BoundingBox" stroke="none" fill="none" x="7948" y="8984" width="237" height="350"/>
         <path fill="rgb(255,99,33)" stroke="none" d="M 8184,8990 C 8184,8989 8184,8984 8177,8984 8170,8984 8123,8989 8114,8990 8111,8990 8108,8992 8108,8999 8108,9006 8112,9006 8120,9006 8143,9006 8145,9009 8145,9013 L 8142,9023 8113,9140 C 8104,9122 8090,9109 8067,9109 8010,9109 7949,9181 7949,9253 7949,9300 7975,9332 8015,9332 8025,9332 8049,9330 8079,9296 8083,9316 8100,9332 8123,9332 8141,9332 8152,9321 8160,9304 8168,9288 8175,9257 8175,9256 8175,9251 8170,9251 8169,9251 8164,9251 8164,9253 8163,9260 8154,9292 8145,9321 8124,9321 8111,9321 8110,9309 8110,9299 8110,9287 8111,9283 8113,9275 L 8184,8990 Z M 8081,9268 C 8079,9276 8079,9278 8071,9287 8049,9313 8029,9321 8016,9321 7990,9321 7983,9294 7983,9275 7983,9251 7999,9189 8011,9167 8026,9138 8048,9120 8068,9120 8100,9120 8108,9160 8108,9163 8108,9166 8107,9169 8105,9171 L 8081,9268 Z"/>
        </g>
       </g>
       <g class="com.sun.star.drawing.ClosedBezierShape">
        <g id="id32">
         <rect class="BoundingBox" stroke="none" fill="none" x="8210" y="9161" width="172" height="246"/>
         <path fill="rgb(255,99,33)" stroke="none" d="M 8294,9171 C 8294,9171 8295,9167 8295,9166 8295,9165 8294,9161 8289,9161 8282,9161 8253,9163 8244,9165 8242,9165 8238,9166 8238,9172 8238,9178 8242,9178 8247,9178 8262,9178 8262,9180 8262,9182 8262,9185 8262,9187 8261,9190 L 8213,9386 C 8211,9392 8211,9393 8211,9394 8211,9399 8215,9405 8223,9405 8232,9405 8236,9397 8239,9391 8239,9388 8254,9328 8255,9324 8280,9326 8300,9334 8300,9351 8300,9353 8300,9355 8299,9358 8298,9364 8298,9365 8298,9369 8298,9394 8318,9405 8335,9405 8369,9405 8379,9353 8379,9351 8379,9347 8374,9347 8373,9347 8369,9347 8367,9349 8366,9356 8362,9371 8353,9395 8335,9395 8326,9395 8324,9386 8324,9377 8324,9372 8324,9371 8325,9362 8326,9360 8327,9355 8327,9350 8327,9320 8286,9315 8271,9315 8281,9308 8294,9297 8300,9291 8317,9274 8335,9259 8354,9259 8359,9259 8363,9260 8365,9263 8351,9265 8347,9276 8347,9282 8347,9290 8354,9296 8362,9296 8371,9296 8381,9288 8381,9273 8381,9262 8373,9249 8355,9249 8335,9249 8317,9263 8299,9279 8285,9293 8273,9303 8259,9310 L 8294,9171 Z"/>
        </g>
       </g>
       <g class="com.sun.star.drawing.ClosedBezierShape">
        <g id="id33">
         <rect class="BoundingBox" stroke="none" fill="none" x="5848" y="9722" width="109" height="350"/>
         <path fill="rgb(255,99,33)" stroke="none" d="M 5955,9728 C 5955,9727 5955,9722 5948,9722 5937,9722 5901,9727 5888,9727 5885,9728 5879,9728 5879,9738 5879,9743 5883,9743 5891,9743 5915,9743 5915,9747 5915,9751 L 5914,9761 5851,10007 C 5850,10013 5849,10016 5849,10024 5849,10052 5871,10070 5894,10070 5910,10070 5923,10060 5932,10042 5941,10023 5946,9995 5946,9994 5946,9988 5942,9988 5941,9988 5935,9988 5935,9991 5933,9997 5925,10030 5915,10059 5896,10059 5880,10059 5880,10043 5880,10037 5880,10024 5881,10022 5883,10013 L 5955,9728 Z"/>
        </g>
       </g>
       <g class="com.sun.star.drawing.ClosedBezierShape">
        <g id="id34">
         <rect class="BoundingBox" stroke="none" fill="none" x="5974" y="9908" width="154" height="302"/>
         <path fill="rgb(255,99,33)" stroke="none" d="M 6126,9922 C 6126,9917 6122,9909 6113,9909 6103,9909 6093,9919 6093,9928 6093,9934 6097,9941 6107,9941 6116,9941 6126,9932 6126,9922 Z M 6053,10155 C 6047,10179 6029,10199 6008,10199 6003,10199 6000,10198 5995,10197 6004,10192 6008,10184 6008,10179 6008,10171 6001,10166 5994,10166 5983,10166 5974,10175 5974,10187 5974,10200 5988,10209 6009,10209 6029,10209 6070,10197 6081,10154 L 6112,10030 C 6113,10027 6114,10023 6114,10019 6114,10000 6097,9986 6076,9986 6038,9986 6016,10033 6016,10039 6016,10043 6021,10043 6021,10043 6026,10043 6026,10042 6029,10037 6037,10016 6055,9995 6075,9995 6084,9995 6087,10001 6087,10012 6087,10016 6086,10021 6086,10023 L 6053,10155 Z"/>
        </g>
       </g>
       <g class="com.sun.star.drawing.ClosedBezierShape">
        <g id="id35">
         <rect class="BoundingBox" stroke="none" fill="none" x="6359" y="9798" width="303" height="288"/>
         <path fill="rgb(255,99,33)" stroke="none" d="M 6652,9819 C 6657,9816 6661,9814 6661,9808 6661,9803 6656,9798 6652,9798 6649,9798 6648,9798 6643,9802 L 6368,9930 C 6364,9932 6359,9936 6359,9941 6359,9947 6364,9949 6368,9953 L 6643,10081 C 6648,10085 6649,10085 6652,10085 6656,10085 6661,10080 6661,10075 6661,10069 6657,10067 6652,10063 L 6393,9941 6652,9819 Z"/>
        </g>
       </g>
       <g class="com.sun.star.drawing.ClosedBezierShape">
        <g id="id36">
         <rect class="BoundingBox" stroke="none" fill="none" x="6858" y="9722" width="109" height="350"/>
         <path fill="rgb(255,99,33)" stroke="none" d="M 6965,9728 C 6965,9727 6965,9722 6959,9722 6947,9722 6912,9727 6898,9727 6895,9728 6889,9728 6889,9738 6889,9743 6894,9743 6901,9743 6925,9743 6925,9747 6925,9751 L 6924,9761 6861,10007 C 6860,10013 6859,10016 6859,10024 6859,10052 6881,10070 6904,10070 6921,10070 6933,10060 6942,10042 6951,10023 6956,9995 6956,9994 6956,9988 6952,9988 6951,9988 6945,9988 6945,9991 6943,9997 6935,10030 6925,10059 6906,10059 6890,10059 6890,10043 6890,10037 6890,10024 6891,10022 6894,10013 L 6965,9728 Z"/>
        </g>
       </g>
       <g class="com.sun.star.drawing.ClosedBezierShape">
        <g id="id37">
         <rect class="BoundingBox" stroke="none" fill="none" x="7010" y="9898" width="172" height="245"/>
         <path fill="rgb(255,99,33)" stroke="none" d="M 7093,9909 C 7093,9909 7094,9905 7094,9903 7094,9902 7093,9899 7088,9899 7082,9899 7053,9901 7044,9902 7041,9902 7037,9903 7037,9910 7037,9916 7041,9916 7046,9916 7062,9916 7062,9918 7062,9920 7062,9922 7062,9925 7061,9928 L 7012,10124 C 7010,10130 7010,10131 7010,10132 7010,10136 7015,10142 7022,10142 7031,10142 7036,10135 7038,10128 7038,10126 7054,10066 7055,10061 7080,10063 7100,10071 7100,10089 7100,10090 7100,10093 7099,10096 7097,10102 7097,10103 7097,10107 7097,10132 7118,10142 7134,10142 7168,10142 7178,10090 7178,10089 7178,10085 7174,10085 7172,10085 7168,10085 7167,10087 7166,10094 7161,10108 7152,10133 7134,10133 7125,10133 7123,10124 7123,10115 7123,10109 7123,10108 7124,10099 7125,10098 7127,10093 7127,10088 7127,10058 7085,10052 7071,10052 7081,10046 7093,10034 7100,10029 7116,10012 7134,9996 7153,9996 7158,9996 7162,9997 7165,10001 7150,10003 7147,10014 7147,10020 7147,10028 7153,10033 7161,10033 7170,10033 7180,10025 7180,10011 7180,10000 7172,9986 7153,9986 7134,9986 7116,10001 7099,10016 7084,10031 7073,10041 7058,10048 L 7093,9909 Z"/>
        </g>
       </g>
      </g>
     </g>
    </g>
   </g>
  </g>
 </g>
</svg>