<?xml version="1.0" encoding="UTF-8"?>
<!DOCTYPE svg PUBLIC "-//W3C//DTD SVG 1.1//EN" "http://www.w3.org/Graphics/SVG/1.1/DTD/svg11.dtd">
<svg version="1.2" width="81.23mm" height="20.17mm" viewBox="3548 8243 8123 2017" preserveAspectRatio="xMidYMid" fill-rule="evenodd" stroke-width="28.222" stroke-linejoin="round" xmlns="http://www.w3.org/2000/svg" xmlns:ooo="http://xml.openoffice.org/svg/export" xmlns:xlink="http://www.w3.org/1999/xlink" xmlns:presentation="http://sun.com/xmlns/staroffice/presentation" xmlns:smil="http://www.w3.org/2001/SMIL20/" xmlns:anim="urn:oasis:names:tc:opendocument:xmlns:animation:1.0" xml:space="preserve">
 <defs class="ClipPathGroup">
  <clipPath id="presentation_clip_path" clipPathUnits="userSpaceOnUse">
   <rect x="3548" y="8243" width="8123" height="2017"/>
  </clipPath>
  <clipPath id="presentation_clip_path_shrink" clipPathUnits="userSpaceOnUse">
   <rect x="3556" y="8245" width="8107" height="2013"/>
  </clipPath>
 </defs>
 <defs class="TextShapeIndex">
  <g ooo:slide="id1" ooo:id-list="id3 id4 id5 id6 id7 id8 id9 id10 id11 id12 id13 id14 id15 id16 id17 id18 id19 id20 id21 id22 id23 id24 id25 id26 id27 id28 id29 id30 id31 id32 id33 id34 id35 id36 id37 id38 id39"/>
 </defs>
 <defs class="EmbeddedBulletChars">
  <g id="bullet-char-template-57356" transform="scale(0.00048828125,-0.00048828125)">
   <path d="M 580,1141 L 1163,571 580,0 -4,571 580,1141 Z"/>
  </g>
  <g id="bullet-char-template-57354" transform="scale(0.00048828125,-0.00048828125)">
   <path d="M 8,1128 L 1137,1128 1137,0 8,0 8,1128 Z"/>
  </g>
  <g id="bullet-char-template-10146" transform="scale(0.00048828125,-0.00048828125)">
   <path d="M 174,0 L 602,739 174,1481 1456,739 174,0 Z M 1358,739 L 309,1346 659,739 1358,739 Z"/>
  </g>
  <g id="bullet-char-template-10132" transform="scale(0.00048828125,-0.00048828125)">
   <path d="M 2015,739 L 1276,0 717,0 1260,543 174,543 174,936 1260,936 717,1481 1274,1481 2015,739 Z"/>
  </g>
  <g id="bullet-char-template-10007" transform="scale(0.00048828125,-0.00048828125)">
   <path d="M 0,-2 C -7,14 -16,27 -25,37 L 356,567 C 262,823 215,952 215,954 215,979 228,992 255,992 264,992 276,990 289,987 310,991 331,999 354,1012 L 381,999 492,748 772,1049 836,1024 860,1049 C 881,1039 901,1025 922,1006 886,937 835,863 770,784 769,783 710,716 594,584 L 774,223 C 774,196 753,168 711,139 L 727,119 C 717,90 699,76 672,76 641,76 570,178 457,381 L 164,-76 C 142,-110 111,-127 72,-127 30,-127 9,-110 8,-76 1,-67 -2,-52 -2,-32 -2,-23 -1,-13 0,-2 Z"/>
  </g>
  <g id="bullet-char-template-10004" transform="scale(0.00048828125,-0.00048828125)">
   <path d="M 285,-33 C 182,-33 111,30 74,156 52,228 41,333 41,471 41,549 55,616 82,672 116,743 169,778 240,778 293,778 328,747 346,684 L 369,508 C 377,444 397,411 428,410 L 1163,1116 C 1174,1127 1196,1133 1229,1133 1271,1133 1292,1118 1292,1087 L 1292,965 C 1292,929 1282,901 1262,881 L 442,47 C 390,-6 338,-33 285,-33 Z"/>
  </g>
  <g id="bullet-char-template-9679" transform="scale(0.00048828125,-0.00048828125)">
   <path d="M 813,0 C 632,0 489,54 383,161 276,268 223,411 223,592 223,773 276,916 383,1023 489,1130 632,1184 813,1184 992,1184 1136,1130 1245,1023 1353,916 1407,772 1407,592 1407,412 1353,268 1245,161 1136,54 992,0 813,0 Z"/>
  </g>
  <g id="bullet-char-template-8226" transform="scale(0.00048828125,-0.00048828125)">
   <path d="M 346,457 C 273,457 209,483 155,535 101,586 74,649 74,723 74,796 101,859 155,911 209,963 273,989 346,989 419,989 480,963 531,910 582,859 608,796 608,723 608,648 583,586 532,535 482,483 420,457 346,457 Z"/>
  </g>
  <g id="bullet-char-template-8211" transform="scale(0.00048828125,-0.00048828125)">
   <path d="M -4,459 L 1135,459 1135,606 -4,606 -4,459 Z"/>
  </g>
  <g id="bullet-char-template-61548" transform="scale(0.00048828125,-0.00048828125)">
   <path d="M 173,740 C 173,903 231,1043 346,1159 462,1274 601,1332 765,1332 928,1332 1067,1274 1183,1159 1299,1043 1357,903 1357,740 1357,577 1299,437 1183,322 1067,206 928,148 765,148 601,148 462,206 346,322 231,437 173,577 173,740 Z"/>
  </g>
 </defs>
 <defs class="TextEmbeddedBitmaps"/>
 <g class="SlideGroup">
  <g>
   <g id="container-id1">
    <g id="id1" class="Slide" clip-path="url(#presentation_clip_path)">
     <g class="Page">
      <g class="Group">
       <g class="com.sun.star.drawing.PolyPolygonShape">
        <g id="id3">
         <rect class="BoundingBox" stroke="none" fill="none" x="3548" y="8248" width="8124" height="2009"/>
        </g>
       </g>
       <g class="com.sun.star.drawing.ClosedBezierShape">
        <g id="id4">
         <rect class="BoundingBox" stroke="none" fill="none" x="3572" y="8243" width="353" height="360"/>
         <path fill="rgb(255,99,33)" stroke="none" d="M 3923,8247 C 3923,8246 3922,8243 3918,8243 3917,8243 3915,8243 3910,8249 L 3876,8287 C 3872,8280 3848,8243 3793,8243 3684,8243 3573,8352 3573,8467 3573,8548 3631,8601 3706,8601 3750,8601 3787,8582 3813,8559 3859,8519 3867,8474 3867,8473 3867,8468 3863,8468 3862,8468 3858,8468 3856,8468 3855,8473 3850,8487 3839,8522 3806,8551 3771,8578 3740,8587 3714,8587 3670,8587 3617,8561 3617,8484 3617,8456 3628,8376 3677,8318 3707,8283 3754,8259 3798,8259 3848,8259 3877,8297 3877,8354 3877,8373 3876,8374 3876,8379 3876,8384 3881,8384 3883,8384 3890,8384 3890,8383 3892,8374 L 3923,8247 Z"/>
        </g>
       </g>
       <g class="com.sun.star.drawing.ClosedBezierShape">
        <g id="id5">
         <rect class="BoundingBox" stroke="none" fill="none" x="3915" y="8435" width="107" height="235"/>
         <path fill="rgb(255,99,33)" stroke="none" d="M 4012,8449 C 4012,8443 4007,8436 3998,8436 3988,8436 3978,8445 3978,8455 3978,8460 3983,8468 3993,8468 4003,8468 4012,8458 4012,8449 Z M 3941,8625 C 3939,8629 3938,8633 3938,8639 3938,8655 3951,8669 3970,8669 4005,8669 4021,8620 4021,8616 4021,8611 4016,8611 4015,8611 4011,8611 4011,8614 4008,8617 4001,8645 3985,8658 3971,8658 3965,8658 3964,8654 3964,8646 3964,8638 3966,8633 3969,8625 3973,8615 3976,8606 3979,8597 3983,8589 3995,8557 3997,8553 3998,8550 3999,8545 3999,8542 3999,8525 3985,8513 3966,8513 3931,8513 3915,8560 3915,8566 3915,8570 3920,8570 3921,8570 3927,8570 3927,8568 3928,8564 3937,8534 3952,8522 3965,8522 3970,8522 3974,8525 3974,8534 3974,8542 3971,8548 3962,8569 L 3941,8625 Z"/>
        </g>
       </g>
       <g class="com.sun.star.drawing.ClosedBezierShape">
        <g id="id6">
         <rect class="BoundingBox" stroke="none" fill="none" x="4199" y="8303" width="331" height="331"/>
         <path fill="rgb(255,99,33)" stroke="none" d="M 4375,8478 L 4512,8478 C 4519,8478 4528,8478 4528,8468 4528,8458 4519,8458 4512,8458 L 4375,8458 4375,8320 C 4375,8312 4375,8303 4365,8303 4354,8303 4354,8312 4354,8320 L 4354,8458 4217,8458 C 4209,8458 4200,8458 4200,8468 4200,8478 4209,8478 4217,8478 L 4354,8478 4354,8616 C 4354,8623 4354,8633 4365,8633 4375,8633 4375,8623 4375,8616 L 4375,8478 Z"/>
        </g>
       </g>
       <g class="com.sun.star.drawing.ClosedBezierShape">
        <g id="id7">
         <rect class="BoundingBox" stroke="none" fill="none" x="4649" y="8372" width="259" height="316"/>
         <path fill="rgb(255,99,33)" stroke="none" d="M 4687,8652 C 4683,8669 4683,8672 4660,8672 4655,8672 4649,8672 4649,8681 4649,8685 4651,8686 4656,8686 4669,8686 4683,8685 4697,8685 4713,8685 4730,8686 4745,8686 4749,8686 4754,8686 4754,8678 4754,8672 4750,8672 4743,8672 4719,8672 4719,8669 4719,8664 4719,8657 4739,8578 4742,8566 4749,8579 4762,8597 4788,8597 4845,8597 4907,8524 4907,8452 4907,8405 4879,8373 4842,8373 4817,8373 4792,8391 4777,8410 4771,8383 4750,8373 4732,8373 4710,8373 4699,8392 4695,8401 4687,8418 4680,8448 4680,8449 4680,8454 4685,8454 4686,8454 4692,8454 4692,8454 4695,8442 4703,8408 4713,8384 4731,8384 4739,8384 4745,8387 4745,8407 4745,8418 4744,8423 4742,8431 L 4687,8652 Z M 4775,8437 C 4778,8423 4791,8410 4800,8402 4817,8387 4832,8384 4839,8384 4860,8384 4872,8401 4872,8430 4872,8459 4855,8516 4846,8535 4829,8569 4806,8586 4788,8586 4754,8586 4749,8544 4749,8542 4749,8541 4749,8540 4750,8534 L 4775,8437 Z"/>
        </g>
       </g>
       <g class="com.sun.star.drawing.ClosedBezierShape">
        <g id="id8">
         <rect class="BoundingBox" stroke="none" fill="none" x="4912" y="8435" width="154" height="302"/>
         <path fill="rgb(255,99,33)" stroke="none" d="M 5065,8449 C 5065,8442 5060,8436 5051,8436 5041,8436 5031,8446 5031,8455 5031,8460 5035,8468 5046,8468 5055,8468 5065,8459 5065,8449 Z M 4991,8682 C 4985,8706 4967,8726 4946,8726 4941,8726 4938,8725 4934,8723 4943,8719 4946,8711 4946,8706 4946,8698 4939,8693 4932,8693 4921,8693 4912,8702 4912,8713 4912,8727 4926,8736 4947,8736 4967,8736 5009,8723 5019,8681 L 5050,8557 C 5051,8553 5052,8550 5052,8545 5052,8526 5035,8513 5014,8513 4976,8513 4954,8560 4954,8566 4954,8570 4958,8570 4959,8570 4964,8570 4964,8569 4967,8563 4975,8543 4993,8522 5013,8522 5022,8522 5025,8527 5025,8539 5025,8543 5024,8548 5024,8550 L 4991,8682 Z"/>
        </g>
       </g>
       <g class="com.sun.star.drawing.ClosedBezierShape">
        <g id="id9">
         <rect class="BoundingBox" stroke="none" fill="none" x="5257" y="8303" width="330" height="331"/>
         <path fill="rgb(255,99,33)" stroke="none" d="M 5432,8478 L 5570,8478 C 5577,8478 5585,8478 5585,8468 5585,8458 5577,8458 5570,8458 L 5432,8458 5432,8320 C 5432,8312 5432,8303 5422,8303 5412,8303 5412,8312 5412,8320 L 5412,8458 5274,8458 C 5266,8458 5257,8458 5257,8468 5257,8478 5266,8478 5274,8478 L 5412,8478 5412,8616 C 5412,8623 5412,8633 5422,8633 5432,8633 5432,8623 5432,8616 L 5432,8478 Z"/>
        </g>
       </g>
       <g class="com.sun.star.drawing.ClosedBezierShape">
        <g id="id10">
         <rect class="BoundingBox" stroke="none" fill="none" x="5705" y="8372" width="259" height="316"/>
         <path fill="rgb(255,99,33)" stroke="none" d="M 5743,8652 C 5739,8669 5739,8672 5717,8672 5711,8672 5705,8672 5705,8681 5705,8685 5708,8686 5712,8686 5725,8686 5739,8685 5753,8685 5769,8685 5786,8686 5802,8686 5805,8686 5811,8686 5811,8678 5811,8672 5806,8672 5799,8672 5775,8672 5775,8669 5775,8664 5775,8657 5795,8578 5798,8566 5805,8579 5820,8597 5844,8597 5901,8597 5963,8524 5963,8452 5963,8405 5935,8373 5898,8373 5873,8373 5849,8391 5833,8410 5827,8383 5806,8373 5788,8373 5766,8373 5756,8392 5751,8401 5743,8418 5737,8448 5737,8449 5737,8454 5741,8454 5742,8454 5748,8454 5748,8454 5751,8442 5759,8408 5769,8384 5787,8384 5795,8384 5802,8387 5802,8407 5802,8418 5801,8423 5798,8431 L 5743,8652 Z M 5831,8437 C 5834,8423 5848,8410 5857,8402 5873,8387 5888,8384 5896,8384 5916,8384 5928,8401 5928,8430 5928,8459 5911,8516 5902,8535 5886,8569 5862,8586 5844,8586 5811,8586 5805,8544 5805,8542 5805,8541 5805,8540 5806,8534 L 5831,8437 Z"/>
        </g>
       </g>
       <g class="com.sun.star.drawing.ClosedBezierShape">
        <g id="id11">
         <rect class="BoundingBox" stroke="none" fill="none" x="5994" y="8425" width="172" height="246"/>
         <path fill="rgb(255,99,33)" stroke="none" d="M 6077,8436 C 6077,8436 6078,8431 6078,8430 6078,8429 6077,8426 6073,8426 6066,8426 6037,8428 6028,8429 6026,8429 6021,8430 6021,8437 6021,8442 6026,8442 6030,8442 6046,8442 6046,8445 6046,8447 6046,8449 6046,8451 6045,8455 L 5997,8651 C 5994,8656 5994,8657 5994,8658 5994,8663 5999,8670 6007,8670 6016,8670 6020,8662 6022,8655 6022,8653 6038,8592 6039,8588 6064,8590 6084,8598 6084,8616 6084,8617 6084,8619 6083,8623 6082,8628 6082,8629 6082,8634 6082,8658 6102,8670 6118,8670 6152,8670 6162,8617 6162,8616 6162,8611 6158,8611 6157,8611 6152,8611 6151,8614 6150,8620 6146,8635 6137,8660 6119,8660 6110,8660 6107,8651 6107,8642 6107,8636 6107,8635 6109,8626 6110,8625 6111,8619 6111,8615 6111,8585 6069,8579 6055,8579 6065,8572 6077,8561 6084,8555 6101,8539 6119,8523 6138,8523 6142,8523 6147,8524 6149,8527 6134,8530 6131,8541 6131,8547 6131,8554 6138,8560 6146,8560 6154,8560 6165,8552 6165,8538 6165,8526 6157,8513 6138,8513 6119,8513 6101,8527 6083,8543 6068,8558 6057,8568 6042,8575 L 6077,8436 Z"/>
        </g>
       </g>
       <g class="com.sun.star.drawing.ClosedBezierShape">
        <g id="id12">
         <rect class="BoundingBox" stroke="none" fill="none" x="6361" y="8456" width="304" height="24"/>
         <path fill="rgb(255,99,33)" stroke="none" d="M 6646,8478 C 6654,8478 6663,8478 6663,8467 6663,8457 6654,8457 6646,8457 L 6379,8457 C 6371,8457 6362,8457 6362,8467 6362,8478 6371,8478 6379,8478 L 6646,8478 Z"/>
        </g>
       </g>
       <g class="com.sun.star.drawing.ClosedBezierShape">
        <g id="id13">
         <rect class="BoundingBox" stroke="none" fill="none" x="6832" y="8248" width="237" height="350"/>
         <path fill="rgb(255,99,33)" stroke="none" d="M 7067,8254 C 7067,8253 7067,8249 7061,8249 7054,8249 7007,8253 6998,8254 6995,8254 6991,8256 6991,8263 6991,8270 6996,8270 7004,8270 7027,8270 7028,8273 7028,8278 L 7026,8288 6997,8404 C 6988,8386 6973,8373 6951,8373 6894,8373 6832,8446 6832,8517 6832,8564 6859,8597 6898,8597 6908,8597 6933,8595 6962,8560 6967,8580 6983,8597 7007,8597 7025,8597 7036,8586 7044,8569 7052,8552 7058,8522 7058,8521 7058,8515 7054,8515 7053,8515 7047,8515 7047,8517 7046,8524 7037,8557 7028,8586 7008,8586 6995,8586 6993,8573 6993,8563 6993,8551 6995,8548 6997,8540 L 7067,8254 Z M 6964,8532 C 6962,8541 6962,8542 6954,8551 6933,8578 6913,8586 6899,8586 6874,8586 6867,8559 6867,8540 6867,8515 6883,8454 6895,8431 6909,8402 6932,8384 6952,8384 6983,8384 6991,8424 6991,8428 6991,8430 6990,8433 6989,8436 L 6964,8532 Z"/>
        </g>
       </g>
       <g class="com.sun.star.drawing.ClosedBezierShape">
        <g id="id14">
         <rect class="BoundingBox" stroke="none" fill="none" x="7068" y="8435" width="154" height="302"/>
         <path fill="rgb(255,99,33)" stroke="none" d="M 7221,8449 C 7221,8442 7216,8436 7207,8436 7197,8436 7187,8446 7187,8455 7187,8460 7192,8468 7202,8468 7211,8468 7221,8459 7221,8449 Z M 7147,8682 C 7141,8706 7123,8726 7102,8726 7098,8726 7094,8725 7090,8723 7099,8719 7102,8711 7102,8706 7102,8698 7095,8693 7089,8693 7077,8693 7068,8702 7068,8713 7068,8727 7082,8736 7103,8736 7123,8736 7165,8723 7175,8681 L 7206,8557 C 7207,8553 7209,8550 7209,8545 7209,8526 7192,8513 7170,8513 7132,8513 7110,8560 7110,8566 7110,8570 7116,8570 7116,8570 7120,8570 7121,8569 7123,8563 7131,8543 7149,8522 7169,8522 7178,8522 7182,8527 7182,8539 7182,8543 7180,8548 7180,8550 L 7147,8682 Z"/>
        </g>
       </g>
       <g class="com.sun.star.drawing.ClosedBezierShape">
        <g id="id15">
         <rect class="BoundingBox" stroke="none" fill="none" x="7453" y="8324" width="304" height="289"/>
         <path fill="rgb(255,99,33)" stroke="none" d="M 7746,8346 C 7752,8343 7755,8340 7755,8335 7755,8329 7751,8325 7746,8325 7744,8325 7743,8325 7737,8328 L 7463,8457 C 7458,8459 7454,8463 7454,8468 7454,8474 7458,8476 7463,8479 L 7737,8608 C 7743,8611 7744,8611 7746,8611 7751,8611 7755,8607 7755,8601 7755,8596 7752,8594 7746,8590 L 7487,8468 7746,8346 Z"/>
        </g>
       </g>
       <g class="com.sun.star.drawing.ClosedBezierShape">
        <g id="id16">
         <rect class="BoundingBox" stroke="none" fill="none" x="7956" y="8243" width="353" height="360"/>
         <path fill="rgb(255,99,33)" stroke="none" d="M 8307,8247 C 8307,8246 8306,8243 8302,8243 8301,8243 8299,8243 8294,8249 L 8260,8287 C 8256,8280 8232,8243 8177,8243 8068,8243 7957,8352 7957,8467 7957,8548 8015,8601 8090,8601 8134,8601 8171,8582 8198,8559 8243,8519 8251,8474 8251,8473 8251,8468 8247,8468 8246,8468 8242,8468 8240,8468 8239,8473 8235,8487 8223,8522 8190,8551 8155,8578 8124,8587 8098,8587 8054,8587 8002,8561 8002,8484 8002,8456 8012,8376 8061,8318 8091,8283 8138,8259 8182,8259 8232,8259 8261,8297 8261,8354 8261,8373 8260,8374 8260,8379 8260,8384 8265,8384 8267,8384 8274,8384 8274,8383 8276,8374 L 8307,8247 Z"/>
        </g>
       </g>
       <g class="com.sun.star.drawing.ClosedBezierShape">
        <g id="id17">
         <rect class="BoundingBox" stroke="none" fill="none" x="8299" y="8435" width="107" height="235"/>
         <path fill="rgb(255,99,33)" stroke="none" d="M 8396,8449 C 8396,8443 8391,8436 8382,8436 8372,8436 8362,8445 8362,8455 8362,8460 8367,8468 8377,8468 8387,8468 8396,8458 8396,8449 Z M 8325,8625 C 8323,8629 8322,8633 8322,8639 8322,8655 8335,8669 8354,8669 8389,8669 8405,8620 8405,8616 8405,8611 8400,8611 8399,8611 8395,8611 8395,8614 8392,8617 8385,8645 8369,8658 8355,8658 8349,8658 8348,8654 8348,8646 8348,8638 8350,8633 8353,8625 8357,8615 8360,8606 8363,8597 8367,8589 8379,8557 8381,8553 8382,8550 8383,8545 8383,8542 8383,8525 8369,8513 8350,8513 8315,8513 8299,8560 8299,8566 8299,8570 8304,8570 8305,8570 8311,8570 8311,8568 8312,8564 8321,8534 8336,8522 8349,8522 8354,8522 8358,8525 8358,8534 8358,8542 8355,8548 8347,8569 L 8325,8625 Z"/>
        </g>
       </g>
       <g class="com.sun.star.drawing.ClosedBezierShape">
        <g id="id18">
         <rect class="BoundingBox" stroke="none" fill="none" x="8583" y="8303" width="331" height="331"/>
         <path fill="rgb(255,99,33)" stroke="none" d="M 8759,8478 L 8897,8478 C 8903,8478 8912,8478 8912,8468 8912,8458 8903,8458 8897,8458 L 8759,8458 8759,8320 C 8759,8312 8759,8303 8749,8303 8739,8303 8739,8312 8739,8320 L 8739,8458 8601,8458 C 8593,8458 8584,8458 8584,8468 8584,8478 8593,8478 8601,8478 L 8739,8478 8739,8616 C 8739,8623 8739,8633 8749,8633 8759,8633 8759,8623 8759,8616 L 8759,8478 Z"/>
        </g>
       </g>
       <g class="com.sun.star.drawing.ClosedBezierShape">
        <g id="id19">
         <rect class="BoundingBox" stroke="none" fill="none" x="9033" y="8372" width="259" height="316"/>
         <path fill="rgb(255,99,33)" stroke="none" d="M 9071,8652 C 9067,8669 9067,8672 9044,8672 9039,8672 9033,8672 9033,8681 9033,8685 9035,8686 9040,8686 9053,8686 9067,8685 9081,8685 9097,8685 9114,8686 9129,8686 9133,8686 9138,8686 9138,8678 9138,8672 9134,8672 9127,8672 9103,8672 9103,8669 9103,8664 9103,8657 9123,8578 9126,8566 9133,8579 9146,8597 9172,8597 9229,8597 9291,8524 9291,8452 9291,8405 9263,8373 9226,8373 9201,8373 9177,8391 9161,8410 9155,8383 9134,8373 9116,8373 9094,8373 9084,8392 9079,8401 9071,8418 9065,8448 9065,8449 9065,8454 9069,8454 9070,8454 9075,8454 9076,8454 9079,8442 9087,8408 9097,8384 9115,8384 9123,8384 9129,8387 9129,8407 9129,8418 9128,8423 9126,8431 L 9071,8652 Z M 9159,8437 C 9162,8423 9175,8410 9184,8402 9201,8387 9216,8384 9224,8384 9244,8384 9256,8401 9256,8430 9256,8459 9239,8516 9230,8535 9213,8569 9190,8586 9172,8586 9138,8586 9133,8544 9133,8542 9133,8541 9133,8540 9134,8534 L 9159,8437 Z"/>
        </g>
       </g>
       <g class="com.sun.star.drawing.ClosedBezierShape">
        <g id="id20">
         <rect class="BoundingBox" stroke="none" fill="none" x="9296" y="8435" width="154" height="302"/>
         <path fill="rgb(255,99,33)" stroke="none" d="M 9449,8449 C 9449,8442 9444,8436 9435,8436 9425,8436 9415,8446 9415,8455 9415,8460 9420,8468 9430,8468 9439,8468 9449,8459 9449,8449 Z M 9375,8682 C 9369,8706 9351,8726 9330,8726 9326,8726 9322,8725 9318,8723 9327,8719 9330,8711 9330,8706 9330,8698 9323,8693 9317,8693 9305,8693 9296,8702 9296,8713 9296,8727 9310,8736 9331,8736 9351,8736 9393,8723 9403,8681 L 9434,8557 C 9435,8553 9436,8550 9436,8545 9436,8526 9420,8513 9398,8513 9360,8513 9338,8560 9338,8566 9338,8570 9342,8570 9343,8570 9348,8570 9348,8569 9351,8563 9359,8543 9377,8522 9397,8522 9406,8522 9410,8527 9410,8539 9410,8543 9408,8548 9408,8550 L 9375,8682 Z"/>
        </g>
       </g>
       <g class="com.sun.star.drawing.ClosedBezierShape">
        <g id="id21">
         <rect class="BoundingBox" stroke="none" fill="none" x="9641" y="8303" width="330" height="331"/>
         <path fill="rgb(255,99,33)" stroke="none" d="M 9816,8478 L 9954,8478 C 9961,8478 9970,8478 9970,8468 9970,8458 9961,8458 9954,8458 L 9816,8458 9816,8320 C 9816,8312 9816,8303 9806,8303 9796,8303 9796,8312 9796,8320 L 9796,8458 9658,8458 C 9650,8458 9641,8458 9641,8468 9641,8478 9650,8478 9658,8478 L 9796,8478 9796,8616 C 9796,8623 9796,8633 9806,8633 9816,8633 9816,8623 9816,8616 L 9816,8478 Z"/>
        </g>
       </g>
       <g class="com.sun.star.drawing.ClosedBezierShape">
        <g id="id22">
         <rect class="BoundingBox" stroke="none" fill="none" x="10089" y="8372" width="260" height="316"/>
         <path fill="rgb(255,99,33)" stroke="none" d="M 10127,8652 C 10123,8669 10123,8672 10101,8672 10095,8672 10089,8672 10089,8681 10089,8685 10092,8686 10096,8686 10110,8686 10123,8685 10138,8685 10153,8685 10170,8686 10186,8686 10189,8686 10195,8686 10195,8678 10195,8672 10190,8672 10184,8672 10159,8672 10159,8669 10159,8664 10159,8657 10179,8578 10182,8566 10189,8579 10204,8597 10228,8597 10285,8597 10347,8524 10347,8452 10347,8405 10319,8373 10282,8373 10257,8373 10233,8391 10217,8410 10212,8383 10190,8373 10172,8373 10150,8373 10140,8392 10135,8401 10127,8418 10121,8448 10121,8449 10121,8454 10125,8454 10126,8454 10132,8454 10132,8454 10135,8442 10143,8408 10153,8384 10171,8384 10179,8384 10186,8387 10186,8407 10186,8418 10185,8423 10182,8431 L 10127,8652 Z M 10215,8437 C 10218,8423 10232,8410 10241,8402 10257,8387 10272,8384 10280,8384 10300,8384 10312,8401 10312,8430 10312,8459 10296,8516 10287,8535 10270,8569 10246,8586 10228,8586 10195,8586 10189,8544 10189,8542 10189,8541 10189,8540 10190,8534 L 10215,8437 Z"/>
        </g>
       </g>
       <g class="com.sun.star.drawing.ClosedBezierShape">
        <g id="id23">
         <rect class="BoundingBox" stroke="none" fill="none" x="10378" y="8425" width="172" height="246"/>
         <path fill="rgb(255,99,33)" stroke="none" d="M 10461,8436 C 10461,8436 10462,8431 10462,8430 10462,8429 10461,8426 10457,8426 10450,8426 10421,8428 10412,8429 10410,8429 10405,8430 10405,8437 10405,8442 10410,8442 10414,8442 10430,8442 10430,8445 10430,8447 10430,8449 10430,8451 10429,8455 L 10381,8651 C 10378,8656 10378,8657 10378,8658 10378,8663 10383,8670 10391,8670 10400,8670 10404,8662 10406,8655 10406,8653 10422,8592 10423,8588 10448,8590 10468,8598 10468,8616 10468,8617 10468,8619 10467,8623 10466,8628 10466,8629 10466,8634 10466,8658 10486,8670 10502,8670 10536,8670 10546,8617 10546,8616 10546,8611 10542,8611 10541,8611 10536,8611 10535,8614 10534,8620 10530,8635 10521,8660 10503,8660 10494,8660 10492,8651 10492,8642 10492,8636 10492,8635 10493,8626 10494,8625 10495,8619 10495,8615 10495,8585 10453,8579 10439,8579 10449,8572 10461,8561 10468,8555 10485,8539 10503,8523 10522,8523 10526,8523 10531,8524 10533,8527 10518,8530 10515,8541 10515,8547 10515,8554 10522,8560 10530,8560 10539,8560 10549,8552 10549,8538 10549,8526 10541,8513 10522,8513 10503,8513 10485,8527 10467,8543 10452,8558 10441,8568 10427,8575 L 10461,8436 Z"/>
        </g>
       </g>
       <g class="com.sun.star.drawing.ClosedBezierShape">
        <g id="id24">
         <rect class="BoundingBox" stroke="none" fill="none" x="10745" y="8456" width="304" height="24"/>
         <path fill="rgb(255,99,33)" stroke="none" d="M 11030,8478 C 11038,8478 11047,8478 11047,8467 11047,8457 11038,8457 11030,8457 L 10763,8457 C 10755,8457 10746,8457 10746,8467 10746,8478 10755,8478 10763,8478 L 11030,8478 Z"/>
        </g>
       </g>
       <g class="com.sun.star.drawing.ClosedBezierShape">
        <g id="id25">
         <rect class="BoundingBox" stroke="none" fill="none" x="11216" y="8248" width="237" height="350"/>
         <path fill="rgb(255,99,33)" stroke="none" d="M 11451,8254 C 11451,8253 11451,8249 11445,8249 11438,8249 11391,8253 11382,8254 11379,8254 11375,8256 11375,8263 11375,8270 11380,8270 11388,8270 11411,8270 11412,8273 11412,8278 L 11411,8288 11381,8404 C 11372,8386 11357,8373 11335,8373 11278,8373 11216,8446 11216,8517 11216,8564 11243,8597 11282,8597 11292,8597 11317,8595 11346,8560 11351,8580 11367,8597 11391,8597 11409,8597 11420,8586 11428,8569 11436,8552 11442,8522 11442,8521 11442,8515 11438,8515 11437,8515 11431,8515 11431,8517 11430,8524 11421,8557 11412,8586 11392,8586 11379,8586 11378,8573 11378,8563 11378,8551 11379,8548 11381,8540 L 11451,8254 Z M 11348,8532 C 11346,8541 11346,8542 11338,8551 11317,8578 11297,8586 11283,8586 11259,8586 11251,8559 11251,8540 11251,8515 11268,8454 11279,8431 11294,8402 11316,8384 11336,8384 11369,8384 11375,8424 11375,8428 11375,8430 11374,8433 11373,8436 L 11348,8532 Z"/>
        </g>
       </g>
       <g class="com.sun.star.drawing.ClosedBezierShape">
        <g id="id26">
         <rect class="BoundingBox" stroke="none" fill="none" x="11478" y="8425" width="172" height="246"/>
         <path fill="rgb(255,99,33)" stroke="none" d="M 11561,8436 C 11561,8436 11562,8431 11562,8430 11562,8429 11561,8426 11557,8426 11550,8426 11521,8428 11512,8429 11510,8429 11505,8430 11505,8437 11505,8442 11510,8442 11514,8442 11530,8442 11530,8445 11530,8447 11530,8449 11530,8451 11529,8455 L 11481,8651 C 11478,8656 11478,8657 11478,8658 11478,8663 11483,8670 11491,8670 11500,8670 11504,8662 11506,8655 11506,8653 11522,8592 11523,8588 11548,8590 11568,8598 11568,8616 11568,8617 11568,8619 11567,8623 11566,8628 11566,8629 11566,8634 11566,8658 11586,8670 11603,8670 11636,8670 11646,8617 11646,8616 11646,8611 11642,8611 11641,8611 11636,8611 11635,8614 11634,8620 11630,8635 11621,8660 11603,8660 11594,8660 11591,8651 11591,8642 11591,8636 11591,8635 11593,8626 11594,8625 11595,8619 11595,8615 11595,8585 11553,8579 11539,8579 11549,8572 11561,8561 11568,8555 11585,8539 11603,8523 11622,8523 11626,8523 11631,8524 11633,8527 11618,8530 11615,8541 11615,8547 11615,8554 11622,8560 11630,8560 11639,8560 11649,8552 11649,8538 11649,8526 11641,8513 11623,8513 11603,8513 11585,8527 11567,8543 11552,8558 11541,8568 11527,8575 L 11561,8436 Z"/>
        </g>
       </g>
       <g class="com.sun.star.drawing.ClosedBezierShape">
        <g id="id27">
         <rect class="BoundingBox" stroke="none" fill="none" x="6470" y="9194" width="303" height="24"/>
         <path fill="rgb(255,99,33)" stroke="none" d="M 6755,9216 C 6763,9216 6772,9216 6772,9205 6772,9195 6763,9195 6755,9195 L 6487,9195 C 6479,9195 6470,9195 6470,9205 6470,9216 6479,9216 6487,9216 L 6755,9216 Z"/>
        </g>
       </g>
       <g class="com.sun.star.drawing.ClosedBezierShape">
        <g id="id28">
         <rect class="BoundingBox" stroke="none" fill="none" x="6832" y="8986" width="237" height="350"/>
         <path fill="rgb(255,99,33)" stroke="none" d="M 7067,8992 C 7067,8991 7067,8987 7061,8987 7054,8987 7007,8991 6998,8992 6995,8992 6991,8994 6991,9001 6991,9008 6996,9008 7004,9008 7027,9008 7028,9011 7028,9016 L 7027,9026 6997,9142 C 6988,9124 6973,9111 6951,9111 6894,9111 6832,9184 6832,9255 6832,9302 6859,9335 6898,9335 6908,9335 6933,9333 6962,9298 6967,9318 6983,9335 7007,9335 7025,9335 7036,9324 7044,9307 7052,9290 7058,9260 7058,9259 7058,9253 7054,9253 7053,9253 7047,9253 7047,9255 7046,9262 7037,9295 7028,9324 7008,9324 6995,9324 6993,9311 6993,9301 6993,9289 6995,9286 6997,9278 L 7067,8992 Z M 6964,9270 C 6962,9279 6962,9280 6954,9289 6933,9316 6913,9324 6899,9324 6875,9324 6867,9297 6867,9278 6867,9253 6884,9192 6895,9169 6909,9140 6932,9122 6952,9122 6984,9122 6991,9162 6991,9166 6991,9168 6990,9171 6989,9174 L 6964,9270 Z"/>
        </g>
       </g>
       <g class="com.sun.star.drawing.ClosedBezierShape">
        <g id="id29">
         <rect class="BoundingBox" stroke="none" fill="none" x="7068" y="9173" width="154" height="302"/>
         <path fill="rgb(255,99,33)" stroke="none" d="M 7221,9187 C 7221,9180 7216,9174 7207,9174 7197,9174 7187,9184 7187,9193 7187,9198 7192,9206 7202,9206 7211,9206 7221,9197 7221,9187 Z M 7147,9420 C 7141,9444 7123,9464 7102,9464 7098,9464 7094,9463 7090,9461 7099,9457 7102,9449 7102,9444 7102,9436 7095,9431 7089,9431 7077,9431 7068,9440 7068,9451 7068,9465 7082,9474 7103,9474 7123,9474 7165,9460 7175,9419 L 7206,9295 C 7207,9291 7209,9288 7209,9283 7209,9264 7192,9251 7170,9251 7132,9251 7110,9298 7110,9304 7110,9308 7116,9308 7116,9308 7120,9308 7120,9307 7123,9301 7131,9281 7149,9260 7169,9260 7178,9260 7182,9265 7182,9277 7182,9281 7180,9286 7180,9288 L 7147,9420 Z"/>
        </g>
       </g>
       <g class="com.sun.star.drawing.ClosedBezierShape">
        <g id="id30">
         <rect class="BoundingBox" stroke="none" fill="none" x="7453" y="9062" width="304" height="289"/>
         <path fill="rgb(255,99,33)" stroke="none" d="M 7746,9084 C 7752,9081 7755,9078 7755,9073 7755,9067 7751,9063 7746,9063 7744,9063 7743,9063 7737,9066 L 7463,9195 C 7458,9197 7454,9201 7454,9206 7454,9212 7458,9214 7463,9217 L 7737,9346 C 7743,9349 7744,9349 7746,9349 7751,9349 7755,9345 7755,9339 7755,9334 7752,9332 7746,9328 L 7487,9206 7746,9084 Z"/>
        </g>
       </g>
       <g class="com.sun.star.drawing.ClosedBezierShape">
        <g id="id31">
         <rect class="BoundingBox" stroke="none" fill="none" x="7972" y="9194" width="303" height="24"/>
         <path fill="rgb(255,99,33)" stroke="none" d="M 8257,9216 C 8265,9216 8274,9216 8274,9205 8274,9195 8265,9195 8257,9195 L 7989,9195 C 7981,9195 7972,9195 7972,9205 7972,9216 7981,9216 7989,9216 L 8257,9216 Z"/>
        </g>
       </g>
       <g class="com.sun.star.drawing.ClosedBezierShape">
        <g id="id32">
         <rect class="BoundingBox" stroke="none" fill="none" x="8334" y="8986" width="237" height="350"/>
         <path fill="rgb(255,99,33)" stroke="none" d="M 8569,8992 C 8569,8991 8569,8987 8563,8987 8556,8987 8509,8991 8500,8992 8497,8992 8493,8994 8493,9001 8493,9008 8498,9008 8506,9008 8529,9008 8530,9011 8530,9016 L 8528,9026 8499,9142 C 8490,9124 8475,9111 8453,9111 8396,9111 8334,9184 8334,9255 8334,9302 8361,9335 8400,9335 8410,9335 8435,9333 8464,9298 8469,9318 8485,9335 8509,9335 8527,9335 8538,9324 8546,9307 8554,9290 8560,9260 8560,9259 8560,9253 8556,9253 8555,9253 8549,9253 8549,9255 8548,9262 8539,9295 8530,9324 8510,9324 8497,9324 8496,9311 8496,9301 8496,9289 8497,9286 8499,9278 L 8569,8992 Z M 8466,9270 C 8464,9279 8464,9280 8456,9289 8435,9316 8415,9324 8401,9324 8377,9324 8369,9297 8369,9278 8369,9253 8385,9192 8397,9169 8411,9140 8434,9122 8454,9122 8485,9122 8493,9162 8493,9166 8493,9168 8492,9171 8491,9174 L 8466,9270 Z"/>
        </g>
       </g>
       <g class="com.sun.star.drawing.ClosedBezierShape">
        <g id="id33">
         <rect class="BoundingBox" stroke="none" fill="none" x="8596" y="9163" width="172" height="246"/>
         <path fill="rgb(255,99,33)" stroke="none" d="M 8679,9174 C 8679,9174 8680,9169 8680,9168 8680,9167 8679,9164 8675,9164 8668,9164 8639,9166 8630,9167 8628,9167 8623,9168 8623,9175 8623,9180 8628,9180 8632,9180 8648,9180 8648,9183 8648,9185 8648,9187 8648,9189 8647,9193 L 8599,9389 C 8596,9394 8596,9395 8596,9397 8596,9401 8601,9408 8609,9408 8618,9408 8622,9400 8624,9393 8624,9391 8640,9330 8641,9326 8666,9328 8686,9336 8686,9354 8686,9355 8686,9357 8685,9361 8684,9366 8684,9367 8684,9372 8684,9397 8704,9408 8721,9408 8754,9408 8764,9355 8764,9354 8764,9349 8760,9349 8759,9349 8754,9349 8753,9352 8752,9358 8748,9373 8739,9398 8721,9398 8712,9398 8709,9389 8709,9380 8709,9374 8709,9373 8711,9364 8712,9363 8713,9357 8713,9353 8713,9323 8671,9317 8657,9317 8667,9310 8679,9299 8686,9293 8703,9277 8721,9261 8740,9261 8744,9261 8749,9262 8751,9265 8736,9268 8733,9279 8733,9285 8733,9292 8740,9298 8748,9298 8756,9298 8767,9290 8767,9276 8767,9264 8759,9251 8740,9251 8721,9251 8703,9265 8685,9281 8670,9296 8659,9306 8644,9313 L 8679,9174 Z"/>
        </g>
       </g>
       <g class="com.sun.star.drawing.ClosedBezierShape">
        <g id="id34">
         <rect class="BoundingBox" stroke="none" fill="none" x="6943" y="9724" width="108" height="350"/>
         <path fill="rgb(255,99,33)" stroke="none" d="M 7049,9730 C 7049,9729 7049,9725 7043,9725 7032,9725 6996,9729 6982,9729 6979,9730 6973,9730 6973,9740 6973,9746 6978,9746 6986,9746 7009,9746 7009,9749 7009,9754 L 7008,9764 6945,10010 C 6944,10016 6943,10019 6943,10027 6943,10055 6965,10073 6988,10073 7005,10073 7017,10063 7026,10045 7035,10026 7040,9998 7040,9997 7040,9991 7036,9991 7035,9991 7029,9991 7029,9993 7027,10000 7019,10033 7009,10062 6990,10062 6974,10062 6974,10046 6974,10039 6974,10027 6976,10025 6978,10016 L 7049,9730 Z"/>
        </g>
       </g>
       <g class="com.sun.star.drawing.ClosedBezierShape">
        <g id="id35">
         <rect class="BoundingBox" stroke="none" fill="none" x="7094" y="9670" width="89" height="182"/>
         <path fill="rgb(255,99,33)" stroke="none" d="M 7178,9701 C 7182,9696 7182,9692 7182,9690 7182,9679 7172,9671 7161,9671 7148,9671 7144,9682 7142,9688 L 7096,9838 C 7095,9838 7094,9842 7094,9843 7094,9847 7105,9850 7108,9850 7110,9850 7111,9850 7113,9845 L 7178,9701 Z"/>
        </g>
       </g>
       <g class="com.sun.star.drawing.ClosedBezierShape">
        <g id="id36">
         <rect class="BoundingBox" stroke="none" fill="none" x="7068" y="9959" width="154" height="303"/>
         <path fill="rgb(255,99,33)" stroke="none" d="M 7221,9973 C 7221,9967 7216,9960 7207,9960 7197,9960 7187,9970 7187,9979 7187,9984 7192,9992 7202,9992 7211,9992 7221,9983 7221,9973 Z M 7147,10206 C 7141,10230 7123,10250 7102,10250 7098,10250 7094,10249 7090,10248 7099,10243 7102,10235 7102,10230 7102,10222 7095,10217 7089,10217 7077,10217 7068,10226 7068,10238 7068,10251 7082,10260 7103,10260 7123,10260 7165,10248 7175,10205 L 7206,10081 C 7207,10077 7209,10074 7209,10070 7209,10051 7192,10037 7170,10037 7132,10037 7110,10084 7110,10090 7110,10094 7116,10094 7116,10094 7120,10094 7120,10093 7123,10088 7131,10067 7149,10046 7169,10046 7178,10046 7182,10052 7182,10063 7182,10067 7180,10072 7180,10074 L 7147,10206 Z"/>
        </g>
       </g>
       <g class="com.sun.star.drawing.ClosedBezierShape">
        <g id="id37">
         <rect class="BoundingBox" stroke="none" fill="none" x="7453" y="9800" width="304" height="289"/>
         <path fill="rgb(255,99,33)" stroke="none" d="M 7746,9822 C 7752,9819 7755,9817 7755,9811 7755,9805 7751,9801 7746,9801 7744,9801 7743,9801 7737,9804 L 7463,9933 C 7458,9935 7454,9939 7454,9944 7454,9950 7458,9952 7463,9955 L 7737,10084 C 7743,10088 7744,10088 7746,10088 7751,10088 7755,10083 7755,10077 7755,10072 7752,10070 7746,10066 L 7487,9944 7746,9822 Z"/>
        </g>
       </g>
       <g class="com.sun.star.drawing.ClosedBezierShape">
        <g id="id38">
         <rect class="BoundingBox" stroke="none" fill="none" x="7953" y="9724" width="108" height="350"/>
         <path fill="rgb(255,99,33)" stroke="none" d="M 8060,9730 C 8060,9729 8060,9725 8053,9725 8042,9725 8006,9729 7993,9729 7989,9730 7984,9730 7984,9740 7984,9746 7988,9746 7996,9746 8019,9746 8019,9749 8019,9754 L 8018,9764 7956,10010 C 7954,10016 7953,10019 7953,10027 7953,10055 7976,10073 7998,10073 8015,10073 8027,10063 8036,10045 8045,10026 8051,9998 8051,9997 8051,9991 8046,9991 8045,9991 8040,9991 8040,9993 8037,10000 8030,10033 8019,10062 8000,10062 7985,10062 7985,10046 7985,10039 7985,10027 7986,10025 7988,10016 L 8060,9730 Z"/>
        </g>
       </g>
       <g class="com.sun.star.drawing.ClosedBezierShape">
        <g id="id39">
         <rect class="BoundingBox" stroke="none" fill="none" x="8104" y="9901" width="172" height="245"/>
         <path fill="rgb(255,99,33)" stroke="none" d="M 8187,9912 C 8187,9912 8189,9907 8189,9906 8189,9905 8187,9902 8183,9902 8176,9902 8147,9904 8138,9905 8136,9905 8131,9906 8131,9913 8131,9918 8136,9918 8140,9918 8156,9918 8156,9921 8156,9923 8156,9925 8156,9927 8155,9931 L 8107,10127 C 8105,10132 8105,10133 8105,10135 8105,10139 8109,10145 8117,10145 8126,10145 8130,10138 8133,10131 8133,10129 8148,10068 8149,10064 8174,10066 8194,10074 8194,10092 8194,10093 8194,10095 8193,10099 8192,10104 8192,10105 8192,10110 8192,10135 8212,10145 8229,10145 8263,10145 8273,10093 8273,10092 8273,10088 8268,10088 8267,10088 8263,10088 8261,10090 8260,10096 8256,10111 8247,10136 8229,10136 8220,10136 8218,10127 8218,10118 8218,10112 8218,10111 8219,10102 8220,10101 8221,10095 8221,10091 8221,10061 8180,10055 8165,10055 8175,10048 8187,10037 8194,10032 8211,10015 8229,9999 8248,9999 8252,9999 8257,10000 8259,10004 8245,10006 8241,10017 8241,10023 8241,10030 8248,10036 8256,10036 8265,10036 8275,10028 8275,10014 8275,10002 8267,9989 8248,9989 8229,9989 8211,10004 8193,10019 8179,10034 8167,10044 8153,10051 L 8187,9912 Z"/>
        </g>
       </g>
      </g>
     </g>
    </g>
   </g>
  </g>
 </g>
</svg>