<?xml version="1.0" encoding="UTF-8"?>
<!DOCTYPE svg PUBLIC "-//W3C//DTD SVG 1.1//EN" "http://www.w3.org/Graphics/SVG/1.1/DTD/svg11.dtd">
<svg version="1.2" width="92.64mm" height="67.37mm" viewBox="3556 8259 9264 6737" preserveAspectRatio="xMidYMid" fill-rule="evenodd" stroke-width="28.222" stroke-linejoin="round" xmlns="http://www.w3.org/2000/svg" xmlns:ooo="http://xml.openoffice.org/svg/export" xmlns:xlink="http://www.w3.org/1999/xlink" xmlns:presentation="http://sun.com/xmlns/staroffice/presentation" xmlns:smil="http://www.w3.org/2001/SMIL20/" xmlns:anim="urn:oasis:names:tc:opendocument:xmlns:animation:1.0" xml:space="preserve">
 <defs class="ClipPathGroup">
  <clipPath id="presentation_clip_path" clipPathUnits="userSpaceOnUse">
   <rect x="3556" y="8259" width="9264" height="6737"/>
  </clipPath>
  <clipPath id="presentation_clip_path_shrink" clipPathUnits="userSpaceOnUse">
   <rect x="3565" y="8265" width="9246" height="6724"/>
  </clipPath>
 </defs>
 <defs class="TextShapeIndex">
  <g ooo:slide="id1" ooo:id-list="id3 id4 id5 id6 id7 id8 id9 id10 id11 id12 id13 id14 id15 id16 id17 id18 id19 id20 id21 id22 id23 id24 id25 id26 id27 id28 id29 id30 id31 id32 id33 id34 id35 id36 id37 id38 id39 id40 id41 id42 id43 id44 id45 id46 id47 id48 id49 id50 id51 id52 id53 id54 id55 id56 id57 id58 id59 id60 id61 id62 id63 id64 id65 id66 id67 id68 id69 id70 id71 id72 id73 id74 id75 id76 id77 id78 id79 id80 id81 id82 id83 id84 id85"/>
 </defs>
 <defs class="EmbeddedBulletChars">
  <g id="bullet-char-template-57356" transform="scale(0.00048828125,-0.00048828125)">
   <path d="M 580,1141 L 1163,571 580,0 -4,571 580,1141 Z"/>
  </g>
  <g id="bullet-char-template-57354" transform="scale(0.00048828125,-0.00048828125)">
   <path d="M 8,1128 L 1137,1128 1137,0 8,0 8,1128 Z"/>
  </g>
  <g id="bullet-char-template-10146" transform="scale(0.00048828125,-0.00048828125)">
   <path d="M 174,0 L 602,739 174,1481 1456,739 174,0 Z M 1358,739 L 309,1346 659,739 1358,739 Z"/>
  </g>
  <g id="bullet-char-template-10132" transform="scale(0.00048828125,-0.00048828125)">
   <path d="M 2015,739 L 1276,0 717,0 1260,543 174,543 174,936 1260,936 717,1481 1274,1481 2015,739 Z"/>
  </g>
  <g id="bullet-char-template-10007" transform="scale(0.00048828125,-0.00048828125)">
   <path d="M 0,-2 C -7,14 -16,27 -25,37 L 356,567 C 262,823 215,952 215,954 215,979 228,992 255,992 264,992 276,990 289,987 310,991 331,999 354,1012 L 381,999 492,748 772,1049 836,1024 860,1049 C 881,1039 901,1025 922,1006 886,937 835,863 770,784 769,783 710,716 594,584 L 774,223 C 774,196 753,168 711,139 L 727,119 C 717,90 699,76 672,76 641,76 570,178 457,381 L 164,-76 C 142,-110 111,-127 72,-127 30,-127 9,-110 8,-76 1,-67 -2,-52 -2,-32 -2,-23 -1,-13 0,-2 Z"/>
  </g>
  <g id="bullet-char-template-10004" transform="scale(0.00048828125,-0.00048828125)">
   <path d="M 285,-33 C 182,-33 111,30 74,156 52,228 41,333 41,471 41,549 55,616 82,672 116,743 169,778 240,778 293,778 328,747 346,684 L 369,508 C 377,444 397,411 428,410 L 1163,1116 C 1174,1127 1196,1133 1229,1133 1271,1133 1292,1118 1292,1087 L 1292,965 C 1292,929 1282,901 1262,881 L 442,47 C 390,-6 338,-33 285,-33 Z"/>
  </g>
  <g id="bullet-char-template-9679" transform="scale(0.00048828125,-0.00048828125)">
   <path d="M 813,0 C 632,0 489,54 383,161 276,268 223,411 223,592 223,773 276,916 383,1023 489,1130 632,1184 813,1184 992,1184 1136,1130 1245,1023 1353,916 1407,772 1407,592 1407,412 1353,268 1245,161 1136,54 992,0 813,0 Z"/>
  </g>
  <g id="bullet-char-template-8226" transform="scale(0.00048828125,-0.00048828125)">
   <path d="M 346,457 C 273,457 209,483 155,535 101,586 74,649 74,723 74,796 101,859 155,911 209,963 273,989 346,989 419,989 480,963 531,910 582,859 608,796 608,723 608,648 583,586 532,535 482,483 420,457 346,457 Z"/>
  </g>
  <g id="bullet-char-template-8211" transform="scale(0.00048828125,-0.00048828125)">
   <path d="M -4,459 L 1135,459 1135,606 -4,606 -4,459 Z"/>
  </g>
  <g id="bullet-char-template-61548" transform="scale(0.00048828125,-0.00048828125)">
   <path d="M 173,740 C 173,903 231,1043 346,1159 462,1274 601,1332 765,1332 928,1332 1067,1274 1183,1159 1299,1043 1357,903 1357,740 1357,577 1299,437 1183,322 1067,206 928,148 765,148 601,148 462,206 346,322 231,437 173,577 173,740 Z"/>
  </g>
 </defs>
 <defs class="TextEmbeddedBitmaps"/>
 <g class="SlideGroup">
  <g>
   <g id="container-id1">
    <g id="id1" class="Slide" clip-path="url(#presentation_clip_path)">
     <g class="Page">
      <g class="Group">
       <g class="com.sun.star.drawing.PolyPolygonShape">
        <g id="id3">
         <rect class="BoundingBox" stroke="none" fill="none" x="3556" y="8259" width="9265" height="6733"/>
        </g>
       </g>
       <g class="com.sun.star.drawing.ClosedBezierShape">
        <g id="id4">
         <rect class="BoundingBox" stroke="none" fill="none" x="3580" y="8300" width="199" height="331"/>
         <path fill="rgb(255,99,33)" stroke="none" d="M 3619,8592 L 3671,8540 C 3749,8472 3778,8446 3778,8397 3778,8340 3734,8300 3674,8300 3618,8300 3581,8346 3581,8390 3581,8417 3605,8417 3606,8417 3615,8417 3632,8411 3632,8391 3632,8379 3623,8365 3606,8365 3602,8365 3602,8365 3600,8367 3611,8334 3638,8316 3667,8316 3712,8316 3733,8355 3733,8397 3733,8436 3708,8475 3681,8505 L 3586,8611 C 3581,8616 3581,8617 3581,8630 L 3764,8630 3778,8543 3765,8543 C 3763,8558 3760,8580 3755,8587 3751,8592 3718,8592 3708,8592 L 3619,8592 Z"/>
        </g>
       </g>
       <g class="com.sun.star.drawing.ClosedBezierShape">
        <g id="id5">
         <rect class="BoundingBox" stroke="none" fill="none" x="3850" y="8259" width="117" height="494"/>
         <path fill="rgb(255,99,33)" stroke="none" d="M 3966,8747 C 3966,8746 3966,8745 3957,8736 3895,8675 3880,8582 3880,8505 3880,8420 3899,8334 3959,8272 3966,8267 3966,8266 3966,8263 3966,8260 3964,8259 3960,8259 3956,8259 3911,8293 3882,8355 3856,8409 3851,8464 3851,8505 3851,8545 3856,8604 3883,8660 3913,8720 3956,8752 3960,8752 3964,8752 3966,8751 3966,8747 Z"/>
        </g>
       </g>
       <g class="com.sun.star.drawing.ClosedBezierShape">
        <g id="id6">
         <rect class="BoundingBox" stroke="none" fill="none" x="4020" y="8287" width="226" height="350"/>
         <path fill="rgb(255,99,33)" stroke="none" d="M 4135,8293 C 4135,8291 4135,8287 4129,8287 4118,8287 4081,8291 4069,8291 4065,8293 4059,8293 4059,8302 4059,8308 4063,8308 4071,8308 4095,8308 4096,8312 4096,8316 L 4095,8326 4023,8611 C 4021,8617 4021,8619 4021,8621 4021,8633 4031,8635 4035,8635 4042,8635 4049,8631 4052,8624 4054,8621 4077,8529 4080,8517 4097,8518 4137,8526 4137,8558 4137,8561 4137,8564 4135,8569 4135,8575 4134,8580 4134,8586 4134,8615 4153,8635 4179,8635 4194,8635 4207,8627 4218,8608 4230,8587 4236,8560 4236,8559 4236,8554 4231,8554 4230,8554 4225,8554 4225,8556 4224,8563 4213,8599 4202,8624 4180,8624 4171,8624 4164,8619 4164,8601 4164,8593 4166,8582 4169,8574 4170,8565 4170,8563 4170,8558 4170,8526 4140,8512 4097,8507 4113,8498 4128,8482 4140,8470 4163,8444 4185,8423 4210,8423 4213,8423 4213,8423 4215,8423 4220,8424 4221,8424 4225,8427 4226,8427 4226,8428 4227,8428 4203,8430 4199,8449 4199,8455 4199,8463 4205,8473 4218,8473 4230,8473 4245,8462 4245,8443 4245,8428 4234,8411 4211,8411 4198,8411 4174,8416 4140,8455 4123,8474 4103,8493 4085,8501 L 4135,8293 Z"/>
        </g>
       </g>
       <g class="com.sun.star.drawing.ClosedBezierShape">
        <g id="id7">
         <rect class="BoundingBox" stroke="none" fill="none" x="4415" y="8495" width="303" height="23"/>
         <path fill="rgb(255,99,33)" stroke="none" d="M 4700,8517 C 4707,8517 4716,8517 4716,8505 4716,8495 4707,8495 4700,8495 L 4432,8495 C 4424,8495 4415,8495 4415,8505 4415,8517 4424,8517 4432,8517 L 4700,8517 Z"/>
        </g>
       </g>
       <g class="com.sun.star.drawing.ClosedBezierShape">
        <g id="id8">
         <rect class="BoundingBox" stroke="none" fill="none" x="4910" y="8300" width="165" height="331"/>
         <path fill="rgb(255,99,33)" stroke="none" d="M 5012,8313 C 5012,8302 5012,8300 5000,8300 4970,8332 4926,8332 4910,8332 L 4910,8347 C 4920,8347 4949,8347 4975,8334 L 4975,8591 C 4975,8608 4974,8614 4929,8614 L 4914,8614 4914,8630 C 4930,8627 4974,8627 4993,8627 5013,8627 5056,8627 5074,8630 L 5074,8614 5058,8614 C 5013,8614 5012,8608 5012,8591 L 5012,8313 Z"/>
        </g>
       </g>
       <g class="com.sun.star.drawing.ClosedBezierShape">
        <g id="id9">
         <rect class="BoundingBox" stroke="none" fill="none" x="5140" y="8259" width="118" height="494"/>
         <path fill="rgb(255,99,33)" stroke="none" d="M 5256,8505 C 5256,8467 5251,8408 5224,8352 5194,8291 5151,8259 5145,8259 5143,8259 5141,8261 5141,8263 5141,8266 5141,8267 5150,8276 5199,8324 5227,8402 5227,8505 5227,8589 5209,8677 5148,8738 5141,8745 5141,8746 5141,8747 5141,8751 5143,8752 5145,8752 5151,8752 5196,8718 5225,8655 5251,8602 5256,8547 5256,8505 Z"/>
        </g>
       </g>
       <g class="com.sun.star.drawing.ClosedBezierShape">
        <g id="id10">
         <rect class="BoundingBox" stroke="none" fill="none" x="5352" y="8259" width="117" height="494"/>
         <path fill="rgb(255,99,33)" stroke="none" d="M 5468,8747 C 5468,8746 5468,8745 5459,8736 5397,8675 5382,8582 5382,8505 5382,8420 5401,8334 5461,8272 5468,8267 5468,8266 5468,8263 5468,8260 5466,8259 5462,8259 5458,8259 5413,8293 5384,8355 5358,8409 5353,8464 5353,8505 5353,8545 5358,8604 5385,8660 5415,8720 5458,8752 5462,8752 5466,8752 5468,8751 5468,8747 Z"/>
        </g>
       </g>
       <g class="com.sun.star.drawing.ClosedBezierShape">
        <g id="id11">
         <rect class="BoundingBox" stroke="none" fill="none" x="5512" y="8275" width="340" height="356"/>
         <path fill="rgb(255,99,33)" stroke="none" d="M 5583,8573 C 5564,8605 5545,8613 5523,8614 5517,8614 5513,8614 5513,8624 5513,8626 5515,8630 5519,8630 5533,8630 5547,8627 5562,8627 5578,8627 5596,8630 5611,8630 5614,8630 5620,8630 5620,8620 5620,8614 5616,8614 5612,8614 5601,8613 5589,8608 5589,8596 5589,8591 5592,8585 5597,8578 L 5634,8515 5758,8515 C 5758,8526 5766,8593 5766,8597 5766,8613 5740,8614 5730,8614 5723,8614 5718,8614 5718,8624 5718,8630 5724,8630 5726,8630 5746,8630 5767,8627 5787,8627 5799,8627 5830,8630 5842,8630 5845,8630 5851,8630 5851,8620 5851,8614 5847,8614 5840,8614 5810,8614 5810,8611 5808,8596 L 5778,8288 C 5777,8278 5777,8276 5768,8276 5760,8276 5758,8279 5756,8284 L 5583,8573 Z M 5643,8500 L 5740,8337 5756,8500 5643,8500 Z"/>
        </g>
       </g>
       <g class="com.sun.star.drawing.ClosedBezierShape">
        <g id="id12">
         <rect class="BoundingBox" stroke="none" fill="none" x="5901" y="8472" width="128" height="232"/>
         <path fill="rgb(255,99,33)" stroke="none" d="M 5980,8483 C 5980,8473 5979,8473 5970,8473 5947,8494 5916,8495 5901,8495 L 5901,8508 C 5909,8508 5933,8508 5952,8498 L 5952,8675 C 5952,8686 5952,8690 5917,8690 L 5904,8690 5904,8703 C 5910,8703 5953,8701 5965,8701 5976,8701 6020,8703 6028,8703 L 6028,8690 6015,8690 C 5980,8690 5980,8686 5980,8675 L 5980,8483 Z"/>
        </g>
       </g>
       <g class="com.sun.star.drawing.ClosedBezierShape">
        <g id="id13">
         <rect class="BoundingBox" stroke="none" fill="none" x="6221" y="8340" width="330" height="332"/>
         <path fill="rgb(255,99,33)" stroke="none" d="M 6396,8515 L 6534,8515 C 6541,8515 6550,8515 6550,8505 6550,8495 6541,8495 6534,8495 L 6396,8495 6396,8358 C 6396,8350 6396,8341 6386,8341 6376,8341 6376,8350 6376,8358 L 6376,8495 6239,8495 C 6231,8495 6222,8495 6222,8505 6222,8515 6231,8515 6239,8515 L 6376,8515 6376,8653 C 6376,8660 6376,8670 6386,8670 6396,8670 6396,8660 6396,8653 L 6396,8515 Z"/>
        </g>
       </g>
       <g class="com.sun.star.drawing.ClosedBezierShape">
        <g id="id14">
         <rect class="BoundingBox" stroke="none" fill="none" x="6703" y="8275" width="340" height="356"/>
         <path fill="rgb(255,99,33)" stroke="none" d="M 6774,8573 C 6755,8605 6736,8613 6713,8614 6708,8614 6703,8614 6703,8624 6703,8626 6706,8630 6710,8630 6724,8630 6738,8627 6753,8627 6768,8627 6786,8630 6802,8630 6804,8630 6811,8630 6811,8620 6811,8614 6806,8614 6803,8614 6792,8613 6780,8608 6780,8596 6780,8591 6783,8585 6786,8578 L 6824,8515 6949,8515 C 6949,8526 6956,8593 6956,8597 6956,8613 6931,8614 6921,8614 6914,8614 6908,8614 6908,8624 6908,8630 6915,8630 6916,8630 6936,8630 6958,8627 6978,8627 6990,8627 7020,8630 7033,8630 7036,8630 7042,8630 7042,8620 7042,8614 7037,8614 7030,8614 7000,8614 7000,8611 6999,8596 L 6969,8288 C 6968,8278 6968,8276 6959,8276 6951,8276 6949,8279 6946,8284 L 6774,8573 Z M 6833,8500 L 6931,8337 6946,8500 6833,8500 Z"/>
        </g>
       </g>
       <g class="com.sun.star.drawing.ClosedBezierShape">
        <g id="id15">
         <rect class="BoundingBox" stroke="none" fill="none" x="7077" y="8472" width="155" height="232"/>
         <path fill="rgb(255,99,33)" stroke="none" d="M 7231,8640 L 7219,8640 C 7217,8648 7214,8668 7210,8671 7207,8673 7181,8673 7176,8673 L 7112,8673 C 7148,8641 7160,8632 7182,8615 7207,8595 7231,8574 7231,8540 7231,8499 7194,8473 7149,8473 7107,8473 7077,8503 7077,8535 7077,8552 7092,8555 7095,8555 7104,8555 7114,8548 7114,8536 7114,8530 7112,8518 7094,8518 7104,8493 7128,8485 7145,8485 7179,8485 7197,8512 7197,8540 7197,8570 7176,8594 7165,8607 L 7081,8689 C 7077,8692 7077,8694 7077,8703 L 7221,8703 7231,8640 Z"/>
        </g>
       </g>
       <g class="com.sun.star.drawing.ClosedBezierShape">
        <g id="id16">
         <rect class="BoundingBox" stroke="none" fill="none" x="7413" y="8340" width="330" height="332"/>
         <path fill="rgb(255,99,33)" stroke="none" d="M 7588,8515 L 7726,8515 C 7733,8515 7742,8515 7742,8505 7742,8495 7733,8495 7726,8495 L 7588,8495 7588,8358 C 7588,8350 7588,8341 7578,8341 7568,8341 7568,8350 7568,8358 L 7568,8495 7430,8495 C 7422,8495 7413,8495 7413,8505 7413,8515 7422,8515 7430,8515 L 7568,8515 7568,8653 C 7568,8660 7568,8670 7578,8670 7588,8670 7588,8660 7588,8653 L 7588,8515 Z"/>
        </g>
       </g>
       <g class="com.sun.star.drawing.ClosedBezierShape">
        <g id="id17">
         <rect class="BoundingBox" stroke="none" fill="none" x="7919" y="8575" width="56" height="56"/>
         <path fill="rgb(255,99,33)" stroke="none" d="M 7974,8603 C 7974,8588 7961,8576 7947,8576 7932,8576 7920,8588 7920,8603 7920,8617 7932,8630 7947,8630 7961,8630 7974,8617 7974,8603 Z"/>
        </g>
       </g>
       <g class="com.sun.star.drawing.ClosedBezierShape">
        <g id="id18">
         <rect class="BoundingBox" stroke="none" fill="none" x="8056" y="8575" width="56" height="56"/>
         <path fill="rgb(255,99,33)" stroke="none" d="M 8110,8603 C 8110,8588 8098,8576 8083,8576 8069,8576 8056,8588 8056,8603 8056,8617 8069,8630 8083,8630 8098,8630 8110,8617 8110,8603 Z"/>
        </g>
       </g>
       <g class="com.sun.star.drawing.ClosedBezierShape">
        <g id="id19">
         <rect class="BoundingBox" stroke="none" fill="none" x="8193" y="8575" width="55" height="56"/>
         <path fill="rgb(255,99,33)" stroke="none" d="M 8247,8603 C 8247,8588 8234,8576 8220,8576 8205,8576 8193,8588 8193,8603 8193,8617 8205,8630 8220,8630 8234,8630 8247,8617 8247,8603 Z"/>
        </g>
       </g>
       <g class="com.sun.star.drawing.ClosedBezierShape">
        <g id="id20">
         <rect class="BoundingBox" stroke="none" fill="none" x="8424" y="8340" width="331" height="332"/>
         <path fill="rgb(255,99,33)" stroke="none" d="M 8600,8515 L 8737,8515 C 8744,8515 8753,8515 8753,8505 8753,8495 8744,8495 8737,8495 L 8600,8495 8600,8358 C 8600,8350 8600,8341 8590,8341 8579,8341 8579,8350 8579,8358 L 8579,8495 8442,8495 C 8434,8495 8425,8495 8425,8505 8425,8515 8434,8515 8442,8515 L 8579,8515 8579,8653 C 8579,8660 8579,8670 8590,8670 8600,8670 8600,8660 8600,8653 L 8600,8515 Z"/>
        </g>
       </g>
       <g class="com.sun.star.drawing.ClosedBezierShape">
        <g id="id21">
         <rect class="BoundingBox" stroke="none" fill="none" x="8906" y="8275" width="340" height="356"/>
         <path fill="rgb(255,99,33)" stroke="none" d="M 8977,8573 C 8958,8605 8939,8613 8917,8614 8911,8614 8907,8614 8907,8624 8907,8626 8909,8630 8913,8630 8927,8630 8941,8627 8956,8627 8971,8627 8989,8630 9005,8630 9007,8630 9014,8630 9014,8620 9014,8614 9010,8614 9006,8614 8995,8613 8983,8608 8983,8596 8983,8591 8986,8585 8991,8578 L 9027,8515 9152,8515 C 9153,8526 9160,8593 9160,8597 9160,8613 9134,8614 9124,8614 9117,8614 9111,8614 9111,8624 9111,8630 9118,8630 9119,8630 9139,8630 9161,8627 9181,8627 9193,8627 9223,8630 9236,8630 9239,8630 9245,8630 9245,8620 9245,8614 9240,8614 9234,8614 9203,8614 9203,8611 9202,8596 L 9172,8288 C 9171,8278 9171,8276 9162,8276 9154,8276 9153,8279 9150,8284 L 8977,8573 Z M 9036,8500 L 9134,8337 9150,8500 9036,8500 Z"/>
        </g>
       </g>
       <g class="com.sun.star.drawing.ClosedBezierShape">
        <g id="id22">
         <rect class="BoundingBox" stroke="none" fill="none" x="9283" y="8462" width="173" height="247"/>
         <path fill="rgb(255,99,33)" stroke="none" d="M 9367,8473 C 9367,8473 9368,8468 9368,8467 9368,8466 9367,8463 9362,8463 9356,8463 9327,8465 9318,8466 9315,8466 9311,8467 9311,8474 9311,8480 9315,8480 9320,8480 9335,8480 9335,8482 9335,8484 9335,8486 9335,8489 9334,8492 L 9286,8688 C 9284,8694 9284,8695 9284,8696 9284,8700 9288,8707 9296,8707 9305,8707 9310,8699 9312,8692 9312,8690 9328,8630 9329,8625 9353,8627 9374,8635 9374,8653 9374,8654 9374,8657 9372,8660 9371,8666 9371,8667 9371,8671 9371,8696 9392,8707 9407,8707 9442,8707 9452,8654 9452,8653 9452,8649 9448,8649 9446,8649 9442,8649 9441,8651 9440,8658 9435,8672 9426,8697 9408,8697 9399,8697 9397,8688 9397,8679 9397,8673 9397,8672 9398,8663 9399,8662 9400,8657 9400,8652 9400,8622 9359,8616 9344,8616 9355,8610 9367,8598 9374,8593 9390,8576 9408,8560 9427,8560 9432,8560 9436,8561 9439,8565 9424,8567 9421,8578 9421,8584 9421,8592 9427,8597 9435,8597 9444,8597 9454,8589 9454,8575 9454,8564 9446,8550 9427,8550 9408,8550 9390,8565 9372,8580 9358,8595 9347,8605 9332,8612 L 9367,8473 Z"/>
        </g>
       </g>
       <g class="com.sun.star.drawing.ClosedBezierShape">
        <g id="id23">
         <rect class="BoundingBox" stroke="none" fill="none" x="9528" y="8259" width="117" height="494"/>
         <path fill="rgb(255,99,33)" stroke="none" d="M 9644,8505 C 9644,8467 9638,8408 9611,8352 9581,8291 9538,8259 9533,8259 9530,8259 9528,8261 9528,8263 9528,8266 9528,8267 9537,8276 9586,8324 9614,8402 9614,8505 9614,8589 9596,8677 9535,8738 9528,8745 9528,8746 9528,8747 9528,8751 9530,8752 9533,8752 9538,8752 9583,8718 9612,8655 9638,8602 9644,8547 9644,8505 Z"/>
        </g>
       </g>
       <g class="com.sun.star.drawing.ClosedBezierShape">
        <g id="id24">
         <rect class="BoundingBox" stroke="none" fill="none" x="9868" y="8315" width="303" height="383"/>
         <path fill="rgb(255,99,33)" stroke="none" d="M 10161,8336 C 10167,8333 10170,8331 10170,8325 10170,8319 10167,8315 10161,8315 10158,8315 10153,8317 10152,8318 L 9879,8447 C 9870,8451 9869,8454 9869,8458 9869,8463 9872,8466 9879,8468 L 10152,8597 C 10158,8601 10159,8601 10161,8601 10165,8601 10170,8596 10170,8591 10170,8586 10169,8584 10160,8579 L 9902,8458 10161,8336 Z M 10153,8697 C 10161,8697 10170,8697 10170,8687 10170,8677 10160,8677 10153,8677 L 9887,8677 C 9879,8677 9869,8677 9869,8687 9869,8697 9878,8697 9885,8697 L 10153,8697 Z"/>
        </g>
       </g>
       <g class="com.sun.star.drawing.ClosedBezierShape">
        <g id="id25">
         <rect class="BoundingBox" stroke="none" fill="none" x="10372" y="8300" width="199" height="331"/>
         <path fill="rgb(255,99,33)" stroke="none" d="M 10411,8592 L 10463,8540 C 10541,8472 10570,8446 10570,8397 10570,8340 10526,8300 10466,8300 10410,8300 10373,8346 10373,8390 10373,8417 10397,8417 10398,8417 10407,8417 10424,8411 10424,8391 10424,8379 10415,8365 10398,8365 10394,8365 10394,8365 10392,8367 10403,8334 10430,8316 10459,8316 10504,8316 10525,8355 10525,8397 10525,8436 10500,8475 10473,8505 L 10378,8611 C 10373,8616 10373,8617 10373,8630 L 10556,8630 10570,8543 10557,8543 C 10555,8558 10552,8580 10547,8587 10543,8592 10510,8592 10500,8592 L 10411,8592 Z"/>
        </g>
       </g>
       <g class="com.sun.star.drawing.ClosedBezierShape">
        <g id="id26">
         <rect class="BoundingBox" stroke="none" fill="none" x="10617" y="8281" width="353" height="360"/>
         <path fill="rgb(255,99,33)" stroke="none" d="M 10969,8286 C 10969,8285 10967,8281 10963,8281 10962,8281 10961,8281 10955,8287 L 10922,8325 C 10917,8318 10894,8281 10839,8281 10729,8281 10618,8390 10618,8505 10618,8586 10676,8640 10751,8640 10795,8640 10832,8621 10859,8597 10905,8557 10913,8512 10913,8511 10913,8507 10908,8507 10907,8507 10904,8507 10901,8507 10900,8511 10896,8526 10885,8560 10851,8589 10816,8616 10785,8625 10759,8625 10715,8625 10663,8599 10663,8522 10663,8494 10673,8415 10722,8356 10752,8322 10799,8297 10843,8297 10894,8297 10923,8335 10923,8392 10923,8411 10922,8412 10922,8417 10922,8423 10926,8423 10928,8423 10935,8423 10935,8421 10937,8412 L 10969,8286 Z"/>
        </g>
       </g>
       <g class="com.sun.star.drawing.ClosedBezierShape">
        <g id="id27">
         <rect class="BoundingBox" stroke="none" fill="none" x="5352" y="9282" width="117" height="495"/>
         <path fill="rgb(255,99,33)" stroke="none" d="M 5468,9771 C 5468,9770 5468,9769 5459,9760 5397,9698 5382,9605 5382,9529 5382,9444 5401,9358 5461,9296 5468,9291 5468,9289 5468,9287 5468,9284 5466,9283 5462,9283 5458,9283 5413,9316 5384,9379 5358,9433 5353,9488 5353,9529 5353,9568 5358,9628 5385,9684 5415,9744 5458,9776 5462,9776 5466,9776 5468,9774 5468,9771 Z"/>
        </g>
       </g>
       <g class="com.sun.star.drawing.ClosedBezierShape">
        <g id="id28">
         <rect class="BoundingBox" stroke="none" fill="none" x="5512" y="9299" width="340" height="356"/>
         <path fill="rgb(255,99,33)" stroke="none" d="M 5583,9596 C 5564,9629 5545,9637 5523,9638 5517,9638 5513,9638 5513,9648 5513,9650 5515,9653 5519,9653 5533,9653 5547,9651 5562,9651 5578,9651 5596,9653 5611,9653 5614,9653 5620,9653 5620,9643 5620,9638 5616,9638 5612,9638 5601,9637 5589,9632 5589,9620 5589,9614 5592,9609 5597,9602 L 5634,9539 5758,9539 C 5758,9549 5766,9616 5766,9621 5766,9637 5740,9638 5730,9638 5723,9638 5718,9638 5718,9648 5718,9653 5724,9653 5726,9653 5746,9653 5767,9651 5787,9651 5799,9651 5830,9653 5842,9653 5845,9653 5851,9653 5851,9643 5851,9638 5847,9638 5840,9638 5810,9638 5810,9634 5808,9620 L 5778,9312 C 5777,9302 5777,9300 5768,9300 5760,9300 5758,9303 5756,9307 L 5583,9596 Z M 5643,9524 L 5740,9361 5756,9524 5643,9524 Z"/>
        </g>
       </g>
       <g class="com.sun.star.drawing.ClosedBezierShape">
        <g id="id29">
         <rect class="BoundingBox" stroke="none" fill="none" x="5901" y="9496" width="128" height="232"/>
         <path fill="rgb(255,99,33)" stroke="none" d="M 5980,9507 C 5980,9497 5979,9497 5970,9497 5947,9518 5916,9519 5901,9519 L 5901,9531 C 5909,9531 5933,9531 5952,9521 L 5952,9698 C 5952,9709 5952,9714 5917,9714 L 5904,9714 5904,9726 C 5910,9726 5953,9725 5965,9725 5976,9725 6020,9726 6028,9726 L 6028,9714 6015,9714 C 5980,9714 5980,9709 5980,9698 L 5980,9507 Z"/>
        </g>
       </g>
       <g class="com.sun.star.drawing.ClosedBezierShape">
        <g id="id30">
         <rect class="BoundingBox" stroke="none" fill="none" x="6221" y="9365" width="330" height="331"/>
         <path fill="rgb(255,99,33)" stroke="none" d="M 6396,9540 L 6534,9540 C 6541,9540 6550,9540 6550,9530 6550,9520 6541,9520 6534,9520 L 6396,9520 6396,9382 C 6396,9375 6396,9366 6386,9366 6376,9366 6376,9375 6376,9382 L 6376,9520 6239,9520 C 6231,9520 6222,9520 6222,9530 6222,9540 6231,9540 6239,9540 L 6376,9540 6376,9678 C 6376,9685 6376,9695 6386,9695 6396,9695 6396,9685 6396,9678 L 6396,9540 Z"/>
        </g>
       </g>
       <g class="com.sun.star.drawing.ClosedBezierShape">
        <g id="id31">
         <rect class="BoundingBox" stroke="none" fill="none" x="6703" y="9299" width="340" height="356"/>
         <path fill="rgb(255,99,33)" stroke="none" d="M 6774,9596 C 6755,9629 6736,9637 6713,9638 6708,9638 6703,9638 6703,9648 6703,9650 6706,9653 6710,9653 6724,9653 6738,9651 6753,9651 6768,9651 6786,9653 6802,9653 6804,9653 6811,9653 6811,9643 6811,9638 6806,9638 6803,9638 6792,9637 6780,9632 6780,9620 6780,9614 6783,9609 6786,9602 L 6824,9539 6949,9539 C 6949,9549 6956,9616 6956,9621 6956,9637 6931,9638 6921,9638 6914,9638 6908,9638 6908,9648 6908,9653 6915,9653 6916,9653 6936,9653 6958,9651 6978,9651 6990,9651 7020,9653 7033,9653 7036,9653 7042,9653 7042,9643 7042,9638 7037,9638 7030,9638 7000,9638 7000,9634 6999,9620 L 6969,9312 C 6968,9302 6968,9300 6959,9300 6951,9300 6949,9303 6946,9307 L 6774,9596 Z M 6833,9524 L 6931,9361 6946,9524 6833,9524 Z"/>
        </g>
       </g>
       <g class="com.sun.star.drawing.ClosedBezierShape">
        <g id="id32">
         <rect class="BoundingBox" stroke="none" fill="none" x="7077" y="9496" width="155" height="232"/>
         <path fill="rgb(255,99,33)" stroke="none" d="M 7231,9664 L 7219,9664 C 7217,9671 7214,9692 7210,9695 7207,9697 7181,9697 7176,9697 L 7112,9697 C 7148,9665 7160,9656 7182,9639 7207,9619 7231,9597 7231,9564 7231,9522 7194,9497 7149,9497 7107,9497 7077,9527 7077,9558 7077,9576 7092,9578 7095,9578 7104,9578 7114,9572 7114,9559 7114,9554 7112,9541 7094,9541 7104,9517 7128,9509 7145,9509 7179,9509 7197,9536 7197,9564 7197,9594 7176,9618 7165,9631 L 7081,9713 C 7077,9716 7077,9717 7077,9726 L 7221,9726 7231,9664 Z"/>
        </g>
       </g>
       <g class="com.sun.star.drawing.ClosedBezierShape">
        <g id="id33">
         <rect class="BoundingBox" stroke="none" fill="none" x="7413" y="9365" width="330" height="331"/>
         <path fill="rgb(255,99,33)" stroke="none" d="M 7588,9540 L 7726,9540 C 7733,9540 7742,9540 7742,9530 7742,9520 7733,9520 7726,9520 L 7588,9520 7588,9382 C 7588,9375 7588,9366 7578,9366 7568,9366 7568,9375 7568,9382 L 7568,9520 7430,9520 C 7422,9520 7413,9520 7413,9530 7413,9540 7422,9540 7430,9540 L 7568,9540 7568,9678 C 7568,9685 7568,9695 7578,9695 7588,9695 7588,9685 7588,9678 L 7588,9540 Z"/>
        </g>
       </g>
       <g class="com.sun.star.drawing.ClosedBezierShape">
        <g id="id34">
         <rect class="BoundingBox" stroke="none" fill="none" x="7919" y="9599" width="56" height="56"/>
         <path fill="rgb(255,99,33)" stroke="none" d="M 7974,9627 C 7974,9612 7961,9600 7947,9600 7932,9600 7920,9612 7920,9627 7920,9641 7932,9653 7947,9653 7961,9653 7974,9641 7974,9627 Z"/>
        </g>
       </g>
       <g class="com.sun.star.drawing.ClosedBezierShape">
        <g id="id35">
         <rect class="BoundingBox" stroke="none" fill="none" x="8056" y="9599" width="56" height="56"/>
         <path fill="rgb(255,99,33)" stroke="none" d="M 8110,9627 C 8110,9612 8098,9600 8083,9600 8069,9600 8056,9612 8056,9627 8056,9641 8069,9653 8083,9653 8098,9653 8110,9641 8110,9627 Z"/>
        </g>
       </g>
       <g class="com.sun.star.drawing.ClosedBezierShape">
        <g id="id36">
         <rect class="BoundingBox" stroke="none" fill="none" x="8193" y="9599" width="55" height="56"/>
         <path fill="rgb(255,99,33)" stroke="none" d="M 8247,9627 C 8247,9612 8234,9600 8220,9600 8205,9600 8193,9612 8193,9627 8193,9641 8205,9653 8220,9653 8234,9653 8247,9641 8247,9627 Z"/>
        </g>
       </g>
       <g class="com.sun.star.drawing.ClosedBezierShape">
        <g id="id37">
         <rect class="BoundingBox" stroke="none" fill="none" x="8424" y="9365" width="331" height="331"/>
         <path fill="rgb(255,99,33)" stroke="none" d="M 8600,9540 L 8737,9540 C 8744,9540 8753,9540 8753,9530 8753,9520 8744,9520 8737,9520 L 8600,9520 8600,9382 C 8600,9375 8600,9366 8590,9366 8579,9366 8579,9375 8579,9382 L 8579,9520 8442,9520 C 8434,9520 8425,9520 8425,9530 8425,9540 8434,9540 8442,9540 L 8579,9540 8579,9678 C 8579,9685 8579,9695 8590,9695 8600,9695 8600,9685 8600,9678 L 8600,9540 Z"/>
        </g>
       </g>
       <g class="com.sun.star.drawing.ClosedBezierShape">
        <g id="id38">
         <rect class="BoundingBox" stroke="none" fill="none" x="8906" y="9299" width="340" height="356"/>
         <path fill="rgb(255,99,33)" stroke="none" d="M 8977,9596 C 8958,9629 8939,9637 8917,9638 8911,9638 8907,9638 8907,9648 8907,9650 8909,9653 8913,9653 8927,9653 8941,9651 8956,9651 8971,9651 8989,9653 9005,9653 9007,9653 9014,9653 9014,9643 9014,9638 9010,9638 9006,9638 8995,9637 8983,9632 8983,9620 8983,9614 8986,9609 8991,9602 L 9027,9539 9152,9539 C 9153,9549 9160,9616 9160,9621 9160,9637 9134,9638 9124,9638 9117,9638 9111,9638 9111,9648 9111,9653 9118,9653 9119,9653 9139,9653 9161,9651 9181,9651 9193,9651 9223,9653 9236,9653 9239,9653 9245,9653 9245,9643 9245,9638 9240,9638 9234,9638 9203,9638 9203,9634 9202,9620 L 9172,9312 C 9171,9302 9171,9300 9162,9300 9154,9300 9153,9303 9150,9307 L 8977,9596 Z M 9036,9524 L 9134,9361 9150,9524 9036,9524 Z"/>
        </g>
       </g>
       <g class="com.sun.star.drawing.ClosedBezierShape">
        <g id="id39">
         <rect class="BoundingBox" stroke="none" fill="none" x="9283" y="9486" width="173" height="245"/>
         <path fill="rgb(255,99,33)" stroke="none" d="M 9367,9497 C 9367,9497 9368,9492 9368,9491 9368,9490 9367,9487 9362,9487 9356,9487 9327,9489 9318,9490 9315,9490 9311,9491 9311,9498 9311,9503 9315,9503 9320,9503 9335,9503 9335,9506 9335,9508 9335,9510 9335,9512 9334,9516 L 9286,9712 C 9284,9717 9284,9718 9284,9720 9284,9724 9288,9730 9296,9730 9305,9730 9310,9723 9312,9715 9312,9714 9328,9653 9329,9649 9353,9651 9374,9659 9374,9677 9374,9678 9374,9680 9372,9684 9371,9689 9371,9690 9371,9695 9371,9720 9392,9730 9407,9730 9442,9730 9452,9678 9452,9677 9452,9672 9448,9672 9446,9672 9442,9672 9441,9675 9440,9681 9435,9696 9426,9721 9408,9721 9399,9721 9397,9712 9397,9703 9397,9697 9397,9696 9398,9687 9399,9686 9400,9680 9400,9676 9400,9646 9359,9640 9344,9640 9355,9633 9367,9622 9374,9616 9390,9600 9408,9584 9427,9584 9432,9584 9436,9585 9439,9588 9424,9591 9421,9602 9421,9608 9421,9615 9427,9621 9435,9621 9444,9621 9454,9613 9454,9599 9454,9587 9446,9574 9427,9574 9408,9574 9390,9588 9372,9604 9358,9619 9347,9629 9332,9636 L 9367,9497 Z"/>
        </g>
       </g>
       <g class="com.sun.star.drawing.ClosedBezierShape">
        <g id="id40">
         <rect class="BoundingBox" stroke="none" fill="none" x="9528" y="9282" width="117" height="495"/>
         <path fill="rgb(255,99,33)" stroke="none" d="M 9644,9529 C 9644,9491 9638,9432 9611,9376 9581,9315 9538,9283 9533,9283 9530,9283 9528,9285 9528,9287 9528,9289 9528,9291 9537,9300 9586,9348 9614,9426 9614,9529 9614,9613 9596,9700 9535,9762 9528,9769 9528,9770 9528,9771 9528,9774 9530,9776 9533,9776 9538,9776 9583,9742 9612,9679 9638,9625 9644,9571 9644,9529 Z"/>
        </g>
       </g>
       <g class="com.sun.star.drawing.ClosedBezierShape">
        <g id="id41">
         <rect class="BoundingBox" stroke="none" fill="none" x="9868" y="9338" width="303" height="384"/>
         <path fill="rgb(255,99,33)" stroke="none" d="M 10161,9360 C 10167,9357 10170,9354 10170,9349 10170,9343 10167,9339 10161,9339 10158,9339 10153,9341 10152,9342 L 9879,9471 C 9870,9474 9869,9478 9869,9482 9869,9487 9872,9490 9879,9492 L 10152,9621 C 10158,9624 10159,9624 10161,9624 10165,9624 10170,9620 10170,9614 10170,9610 10169,9608 10160,9603 L 9902,9482 10161,9360 Z M 10153,9721 C 10161,9721 10170,9721 10170,9711 10170,9700 10160,9700 10153,9700 L 9887,9700 C 9879,9700 9869,9700 9869,9711 9869,9721 9878,9721 9885,9721 L 10153,9721 Z"/>
        </g>
       </g>
       <g class="com.sun.star.drawing.ClosedBezierShape">
        <g id="id42">
         <rect class="BoundingBox" stroke="none" fill="none" x="10886" y="8991" width="166" height="331"/>
         <path fill="rgb(255,99,33)" stroke="none" d="M 10989,9004 C 10989,8993 10989,8992 10976,8992 10946,9023 10902,9023 10887,9023 L 10887,9039 C 10897,9039 10926,9039 10952,9025 L 10952,9282 C 10952,9300 10951,9305 10906,9305 L 10890,9305 10890,9321 C 10907,9319 10951,9319 10970,9319 10990,9319 11032,9319 11050,9321 L 11050,9305 11035,9305 C 10990,9305 10989,9300 10989,9282 L 10989,9004 Z"/>
        </g>
       </g>
       <g class="com.sun.star.drawing.PolyPolygonShape">
        <g id="id43">
         <rect class="BoundingBox" stroke="none" fill="none" x="10406" y="9519" width="1122" height="23"/>
         <path fill="rgb(255,99,33)" stroke="none" d="M 10966,9540 L 10406,9540 10406,9519 11526,9519 11526,9540 10966,9540 Z"/>
        </g>
       </g>
       <g class="com.sun.star.drawing.ClosedBezierShape">
        <g id="id44">
         <rect class="BoundingBox" stroke="none" fill="none" x="10434" y="9647" width="226" height="351"/>
         <path fill="rgb(255,99,33)" stroke="none" d="M 10549,9653 C 10549,9652 10549,9648 10543,9648 10532,9648 10495,9652 10482,9652 10478,9653 10472,9653 10472,9662 10472,9668 10477,9668 10485,9668 10508,9668 10509,9672 10509,9677 L 10508,9687 10437,9972 C 10434,9978 10434,9979 10434,9982 10434,9994 10444,9996 10449,9996 10456,9996 10462,9992 10466,9985 10468,9982 10490,9890 10494,9877 10510,9879 10551,9886 10551,9919 10551,9922 10551,9924 10549,9930 10549,9936 10547,9941 10547,9947 10547,9976 10566,9996 10592,9996 10608,9996 10620,9988 10631,9969 10644,9948 10649,9921 10649,9920 10649,9914 10645,9914 10644,9914 10638,9914 10638,9917 10637,9923 10627,9960 10616,9985 10593,9985 10584,9985 10578,9979 10578,9961 10578,9954 10580,9942 10582,9935 10583,9926 10583,9923 10583,9919 10583,9886 10553,9873 10510,9867 10526,9858 10542,9843 10553,9830 10577,9805 10599,9783 10624,9783 10627,9783 10627,9783 10628,9783 10634,9784 10635,9784 10638,9788 10639,9788 10639,9789 10640,9789 10617,9791 10612,9810 10612,9816 10612,9824 10618,9834 10631,9834 10644,9834 10658,9823 10658,9804 10658,9789 10647,9772 10625,9772 10611,9772 10588,9777 10553,9816 10535,9835 10516,9854 10498,9862 L 10549,9653 Z"/>
        </g>
       </g>
       <g class="com.sun.star.drawing.ClosedBezierShape">
        <g id="id45">
         <rect class="BoundingBox" stroke="none" fill="none" x="10828" y="9856" width="303" height="23"/>
         <path fill="rgb(255,99,33)" stroke="none" d="M 11113,9877 C 11121,9877 11130,9877 11130,9866 11130,9856 11121,9856 11113,9856 L 10845,9856 C 10837,9856 10829,9856 10829,9866 10829,9877 10837,9877 10845,9877 L 11113,9877 Z"/>
        </g>
       </g>
       <g class="com.sun.star.drawing.ClosedBezierShape">
        <g id="id46">
         <rect class="BoundingBox" stroke="none" fill="none" x="11323" y="9661" width="166" height="331"/>
         <path fill="rgb(255,99,33)" stroke="none" d="M 11426,9674 C 11426,9662 11426,9661 11413,9661 11383,9693 11339,9693 11324,9693 L 11324,9708 C 11334,9708 11363,9708 11389,9695 L 11389,9951 C 11389,9969 11387,9975 11343,9975 L 11327,9975 11327,9991 C 11344,9988 11387,9988 11406,9988 11427,9988 11469,9988 11487,9991 L 11487,9975 11471,9975 C 11427,9975 11426,9969 11426,9951 L 11426,9674 Z"/>
        </g>
       </g>
       <g class="com.sun.star.drawing.ClosedBezierShape">
        <g id="id47">
         <rect class="BoundingBox" stroke="none" fill="none" x="11609" y="9305" width="352" height="360"/>
         <path fill="rgb(255,99,33)" stroke="none" d="M 11960,9310 C 11960,9308 11959,9305 11954,9305 11953,9305 11952,9305 11946,9311 L 11913,9349 C 11908,9342 11885,9305 11830,9305 11720,9305 11609,9414 11609,9529 11609,9610 11667,9664 11743,9664 11786,9664 11823,9644 11850,9622 11896,9581 11904,9536 11904,9535 11904,9530 11899,9530 11898,9530 11895,9530 11893,9530 11891,9535 11887,9549 11876,9584 11842,9613 11807,9640 11776,9649 11751,9649 11707,9649 11654,9623 11654,9546 11654,9518 11664,9438 11713,9380 11744,9345 11791,9321 11834,9321 11885,9321 11914,9359 11914,9416 11914,9435 11913,9436 11913,9441 11913,9446 11917,9446 11919,9446 11926,9446 11926,9445 11928,9436 L 11960,9310 Z"/>
        </g>
       </g>
       <g class="com.sun.star.drawing.ClosedBezierShape">
        <g id="id48">
         <rect class="BoundingBox" stroke="none" fill="none" x="9185" y="10566" width="491" height="350"/>
         <path fill="rgb(255,99,33)" stroke="none" d="M 9611,10623 C 9623,10602 9635,10584 9666,10582 9670,10581 9675,10581 9675,10572 9675,10570 9673,10566 9669,10566 9657,10566 9644,10567 9631,10567 9614,10567 9596,10566 9580,10566 9577,10566 9571,10566 9571,10575 9571,10581 9575,10582 9577,10582 9590,10582 9607,10586 9607,10601 9607,10607 9604,10610 9601,10617 L 9468,10850 9450,10604 C 9449,10595 9448,10582 9483,10582 9492,10582 9497,10582 9497,10572 9497,10566 9491,10566 9490,10566 9470,10566 9450,10567 9430,10567 9418,10567 9389,10566 9378,10566 9375,10566 9368,10566 9368,10576 9368,10582 9374,10582 9380,10582 9402,10582 9405,10584 9406,10594 L 9409,10632 9284,10850 9266,10600 C 9266,10593 9266,10582 9303,10582 9309,10582 9313,10582 9313,10572 9313,10566 9307,10566 9306,10566 9287,10566 9266,10567 9246,10567 9229,10567 9211,10566 9194,10566 9192,10566 9185,10566 9185,10575 9185,10582 9190,10582 9198,10582 9222,10582 9222,10586 9223,10600 L 9246,10901 C 9247,10910 9247,10915 9254,10915 9259,10915 9262,10911 9266,10903 L 9411,10653 9430,10901 C 9430,10912 9431,10915 9437,10915 9443,10915 9446,10909 9449,10905 L 9611,10623 Z"/>
        </g>
       </g>
       <g class="com.sun.star.drawing.ClosedBezierShape">
        <g id="id49">
         <rect class="BoundingBox" stroke="none" fill="none" x="9868" y="10588" width="303" height="384"/>
         <path fill="rgb(255,99,33)" stroke="none" d="M 10161,10610 C 10167,10607 10170,10604 10170,10599 10170,10593 10167,10589 10161,10589 10158,10589 10153,10591 10152,10592 L 9879,10721 C 9870,10724 9869,10728 9869,10732 9869,10737 9872,10740 9879,10743 L 10152,10871 C 10158,10874 10159,10874 10161,10874 10165,10874 10170,10870 10170,10864 10170,10860 10169,10857 10160,10853 L 9902,10732 10161,10610 Z M 10153,10971 C 10161,10971 10170,10971 10170,10961 10170,10950 10160,10950 10153,10950 L 9887,10950 C 9879,10950 9869,10950 9869,10961 9869,10971 9878,10971 9885,10971 L 10153,10971 Z"/>
        </g>
       </g>
       <g class="com.sun.star.drawing.ClosedBezierShape">
        <g id="id50">
         <rect class="BoundingBox" stroke="none" fill="none" x="10434" y="10228" width="226" height="350"/>
         <path fill="rgb(255,99,33)" stroke="none" d="M 10549,10234 C 10549,10232 10549,10228 10543,10228 10532,10228 10495,10232 10482,10232 10478,10234 10472,10234 10472,10243 10472,10248 10477,10248 10485,10248 10508,10248 10509,10253 10509,10257 L 10508,10267 10437,10552 C 10434,10558 10434,10560 10434,10562 10434,10574 10444,10576 10449,10576 10456,10576 10462,10572 10466,10565 10468,10562 10490,10470 10494,10458 10510,10459 10551,10467 10551,10499 10551,10502 10551,10505 10549,10510 10549,10516 10547,10521 10547,10527 10547,10556 10566,10576 10592,10576 10608,10576 10620,10569 10631,10549 10644,10528 10649,10501 10649,10500 10649,10495 10645,10495 10644,10495 10638,10495 10638,10497 10637,10504 10627,10541 10616,10565 10593,10565 10584,10565 10578,10560 10578,10542 10578,10534 10580,10523 10582,10515 10583,10506 10583,10504 10583,10499 10583,10467 10553,10453 10510,10448 10526,10439 10542,10423 10553,10411 10577,10385 10599,10364 10624,10364 10627,10364 10627,10364 10628,10364 10634,10365 10635,10365 10638,10368 10639,10368 10639,10369 10640,10369 10617,10371 10612,10390 10612,10396 10612,10404 10618,10414 10631,10414 10644,10414 10658,10403 10658,10384 10658,10369 10647,10352 10625,10352 10611,10352 10588,10357 10553,10396 10535,10415 10516,10434 10498,10442 L 10549,10234 Z"/>
        </g>
       </g>
       <g class="com.sun.star.drawing.ClosedBezierShape">
        <g id="id51">
         <rect class="BoundingBox" stroke="none" fill="none" x="10828" y="10436" width="303" height="23"/>
         <path fill="rgb(255,99,33)" stroke="none" d="M 11113,10458 C 11121,10458 11130,10458 11130,10446 11130,10436 11121,10436 11113,10436 L 10845,10436 C 10837,10436 10829,10436 10829,10446 10829,10458 10837,10458 10845,10458 L 11113,10458 Z"/>
        </g>
       </g>
       <g class="com.sun.star.drawing.ClosedBezierShape">
        <g id="id52">
         <rect class="BoundingBox" stroke="none" fill="none" x="11323" y="10241" width="166" height="331"/>
         <path fill="rgb(255,99,33)" stroke="none" d="M 11426,10254 C 11426,10243 11426,10241 11413,10241 11383,10273 11339,10273 11324,10273 L 11324,10289 C 11334,10289 11363,10289 11389,10275 L 11389,10532 C 11389,10549 11387,10555 11343,10555 L 11327,10555 11327,10571 C 11344,10569 11387,10569 11406,10569 11427,10569 11469,10569 11487,10571 L 11487,10555 11471,10555 C 11427,10555 11426,10549 11426,10532 L 11426,10254 Z"/>
        </g>
       </g>
       <g class="com.sun.star.drawing.ClosedBezierShape">
        <g id="id53">
         <rect class="BoundingBox" stroke="none" fill="none" x="11662" y="10281" width="331" height="332"/>
         <path fill="rgb(255,99,33)" stroke="none" d="M 11838,10457 L 11975,10457 C 11982,10457 11991,10457 11991,10446 11991,10436 11982,10436 11975,10436 L 11838,10436 11838,10299 C 11838,10291 11838,10282 11828,10282 11818,10282 11818,10291 11818,10299 L 11818,10436 11680,10436 C 11672,10436 11663,10436 11663,10446 11663,10457 11672,10457 11680,10457 L 11818,10457 11818,10594 C 11818,10601 11818,10611 11828,10611 11838,10611 11838,10601 11838,10594 L 11838,10457 Z"/>
        </g>
       </g>
       <g class="com.sun.star.drawing.ClosedBezierShape">
        <g id="id54">
         <rect class="BoundingBox" stroke="none" fill="none" x="12171" y="10241" width="166" height="331"/>
         <path fill="rgb(255,99,33)" stroke="none" d="M 12273,10254 C 12273,10243 12273,10241 12261,10241 12231,10273 12187,10273 12171,10273 L 12171,10289 C 12182,10289 12211,10289 12236,10275 L 12236,10532 C 12236,10549 12235,10555 12191,10555 L 12175,10555 12175,10571 C 12192,10569 12235,10569 12254,10569 12275,10569 12317,10569 12335,10571 L 12335,10555 12319,10555 C 12275,10555 12273,10549 12273,10532 L 12273,10254 Z"/>
        </g>
       </g>
       <g class="com.sun.star.drawing.PolyPolygonShape">
        <g id="id55">
         <rect class="BoundingBox" stroke="none" fill="none" x="10406" y="10768" width="1970" height="24"/>
         <path fill="rgb(255,99,33)" stroke="none" d="M 11390,10790 L 10406,10790 10406,10769 12374,10769 12374,10790 11390,10790 Z"/>
        </g>
       </g>
       <g class="com.sun.star.drawing.ClosedBezierShape">
        <g id="id56">
         <rect class="BoundingBox" stroke="none" fill="none" x="10857" y="10897" width="226" height="351"/>
         <path fill="rgb(255,99,33)" stroke="none" d="M 10972,10903 C 10972,10902 10972,10898 10966,10898 10955,10898 10918,10901 10906,10902 10901,10903 10896,10903 10896,10912 10896,10918 10900,10918 10908,10918 10932,10918 10933,10922 10933,10927 L 10932,10937 10860,11221 C 10858,11228 10858,11229 10858,11232 10858,11243 10868,11246 10872,11246 10879,11246 10886,11242 10889,11235 10891,11230 10914,11140 10917,11127 10934,11129 10974,11136 10974,11169 10974,11172 10974,11174 10972,11180 10972,11186 10971,11191 10971,11197 10971,11226 10990,11246 11016,11246 11030,11246 11044,11238 11055,11219 11067,11198 11073,11171 11073,11170 11073,11164 11068,11164 11067,11164 11062,11164 11062,11167 11060,11173 11050,11210 11039,11235 11017,11235 11008,11235 11001,11229 11001,11211 11001,11204 11003,11192 11006,11185 11007,11176 11007,11173 11007,11169 11007,11136 10976,11123 10934,11117 10950,11108 10965,11093 10976,11080 11000,11055 11022,11033 11047,11033 11050,11033 11050,11033 11051,11033 11057,11034 11058,11034 11062,11038 11063,11038 11063,11039 11064,11039 11040,11041 11036,11060 11036,11066 11036,11074 11041,11084 11055,11084 11067,11084 11082,11073 11082,11053 11082,11039 11070,11022 11048,11022 11035,11022 11011,11027 10976,11066 10958,11085 10939,11104 10922,11112 L 10972,10903 Z"/>
        </g>
       </g>
       <g class="com.sun.star.drawing.ClosedBezierShape">
        <g id="id57">
         <rect class="BoundingBox" stroke="none" fill="none" x="11251" y="11106" width="304" height="23"/>
         <path fill="rgb(255,99,33)" stroke="none" d="M 11536,11127 C 11544,11127 11553,11127 11553,11116 11553,11106 11544,11106 11536,11106 L 11269,11106 C 11261,11106 11252,11106 11252,11116 11252,11127 11261,11127 11269,11127 L 11536,11127 Z"/>
        </g>
       </g>
       <g class="com.sun.star.drawing.ClosedBezierShape">
        <g id="id58">
         <rect class="BoundingBox" stroke="none" fill="none" x="11746" y="10911" width="166" height="331"/>
         <path fill="rgb(255,99,33)" stroke="none" d="M 11849,10924 C 11849,10912 11849,10911 11837,10911 11806,10943 11763,10943 11747,10943 L 11747,10958 C 11757,10958 11786,10958 11812,10945 L 11812,11201 C 11812,11219 11811,11225 11766,11225 L 11750,11225 11750,11241 C 11767,11238 11811,11238 11830,11238 11850,11238 11893,11238 11911,11241 L 11911,11225 11895,11225 C 11850,11225 11849,11219 11849,11201 L 11849,10924 Z"/>
        </g>
       </g>
       <g class="com.sun.star.drawing.ClosedBezierShape">
        <g id="id59">
         <rect class="BoundingBox" stroke="none" fill="none" x="12457" y="10555" width="352" height="360"/>
         <path fill="rgb(255,99,33)" stroke="none" d="M 12808,10560 C 12808,10558 12807,10555 12802,10555 12801,10555 12800,10555 12794,10561 L 12761,10599 C 12756,10592 12733,10555 12678,10555 12568,10555 12457,10664 12457,10779 12457,10860 12515,10913 12590,10913 12634,10913 12671,10894 12698,10871 12744,10831 12752,10786 12752,10785 12752,10780 12747,10780 12746,10780 12743,10780 12740,10780 12739,10785 12735,10799 12724,10834 12690,10863 12655,10890 12624,10899 12598,10899 12555,10899 12502,10873 12502,10796 12502,10768 12512,10688 12561,10630 12592,10595 12639,10571 12682,10571 12733,10571 12762,10609 12762,10666 12762,10685 12761,10686 12761,10691 12761,10696 12765,10696 12767,10696 12774,10696 12774,10695 12776,10686 L 12808,10560 Z"/>
        </g>
       </g>
       <g class="com.sun.star.drawing.ClosedBezierShape">
        <g id="id60">
         <rect class="BoundingBox" stroke="none" fill="none" x="9185" y="11816" width="491" height="350"/>
         <path fill="rgb(255,99,33)" stroke="none" d="M 9611,11873 C 9623,11852 9635,11834 9666,11832 9670,11831 9675,11831 9675,11822 9675,11820 9673,11816 9669,11816 9657,11816 9644,11817 9631,11817 9614,11817 9596,11816 9580,11816 9577,11816 9571,11816 9571,11825 9571,11831 9575,11832 9577,11832 9590,11832 9607,11836 9607,11851 9607,11857 9604,11860 9601,11867 L 9468,12100 9450,11854 C 9449,11845 9448,11832 9483,11832 9492,11832 9497,11832 9497,11822 9497,11816 9491,11816 9490,11816 9470,11816 9450,11817 9430,11817 9418,11817 9389,11816 9378,11816 9375,11816 9368,11816 9368,11826 9368,11832 9374,11832 9380,11832 9402,11832 9405,11834 9406,11844 L 9409,11882 9284,12100 9266,11850 C 9266,11843 9266,11832 9303,11832 9309,11832 9313,11832 9313,11822 9313,11816 9307,11816 9306,11816 9287,11816 9266,11817 9246,11817 9229,11817 9211,11816 9194,11816 9192,11816 9185,11816 9185,11825 9185,11832 9190,11832 9198,11832 9222,11832 9222,11836 9223,11850 L 9246,12151 C 9247,12160 9247,12165 9254,12165 9259,12165 9262,12161 9266,12153 L 9411,11902 9430,12151 C 9430,12162 9431,12165 9437,12165 9443,12165 9446,12159 9449,12154 L 9611,11873 Z"/>
        </g>
       </g>
       <g class="com.sun.star.drawing.ClosedBezierShape">
        <g id="id61">
         <rect class="BoundingBox" stroke="none" fill="none" x="9868" y="11838" width="303" height="384"/>
         <path fill="rgb(255,99,33)" stroke="none" d="M 10161,11859 C 10167,11857 10170,11854 10170,11849 10170,11843 10167,11839 10161,11839 10158,11839 10153,11841 10152,11842 L 9879,11971 C 9870,11974 9869,11978 9869,11982 9869,11986 9872,11990 9879,11992 L 10152,12121 C 10158,12124 10159,12124 10161,12124 10165,12124 10170,12120 10170,12114 10170,12110 10169,12107 10160,12103 L 9902,11982 10161,11859 Z M 10153,12221 C 10161,12221 10170,12221 10170,12210 10170,12200 10160,12200 10153,12200 L 9887,12200 C 9879,12200 9869,12200 9869,12210 9869,12221 9878,12221 9885,12221 L 10153,12221 Z"/>
        </g>
       </g>
       <g class="com.sun.star.drawing.ClosedBezierShape">
        <g id="id62">
         <rect class="BoundingBox" stroke="none" fill="none" x="10857" y="11477" width="226" height="351"/>
         <path fill="rgb(255,99,33)" stroke="none" d="M 10972,11484 C 10972,11482 10972,11478 10966,11478 10955,11478 10918,11482 10906,11482 10901,11484 10896,11484 10896,11493 10896,11499 10900,11499 10908,11499 10932,11499 10933,11503 10933,11507 L 10932,11517 10860,11802 C 10858,11808 10858,11810 10858,11812 10858,11824 10868,11826 10872,11826 10879,11826 10886,11822 10889,11815 10891,11812 10914,11720 10917,11708 10934,11709 10974,11717 10974,11749 10974,11752 10974,11755 10972,11760 10972,11766 10971,11771 10971,11777 10971,11806 10990,11826 11016,11826 11030,11826 11044,11818 11055,11799 11067,11778 11073,11751 11073,11750 11073,11745 11068,11745 11067,11745 11062,11745 11062,11747 11060,11754 11050,11790 11039,11815 11017,11815 11008,11815 11001,11810 11001,11792 11001,11784 11003,11773 11006,11765 11007,11756 11007,11754 11007,11749 11007,11717 10976,11703 10934,11698 10950,11689 10965,11673 10976,11661 11000,11635 11022,11613 11047,11613 11050,11613 11050,11613 11051,11613 11057,11615 11058,11615 11062,11618 11063,11618 11063,11619 11064,11620 11040,11621 11036,11640 11036,11646 11036,11654 11041,11664 11055,11664 11067,11664 11082,11653 11082,11634 11082,11619 11070,11602 11048,11602 11035,11602 11011,11607 10976,11646 10958,11665 10939,11684 10922,11692 L 10972,11484 Z"/>
        </g>
       </g>
       <g class="com.sun.star.drawing.PolyPolygonShape">
        <g id="id63">
         <rect class="BoundingBox" stroke="none" fill="none" x="10406" y="12018" width="1122" height="24"/>
         <path fill="rgb(255,99,33)" stroke="none" d="M 10966,12040 L 10406,12040 10406,12019 11526,12019 11526,12040 10966,12040 Z"/>
        </g>
       </g>
       <g class="com.sun.star.drawing.ClosedBezierShape">
        <g id="id64">
         <rect class="BoundingBox" stroke="none" fill="none" x="10434" y="12147" width="226" height="351"/>
         <path fill="rgb(255,99,33)" stroke="none" d="M 10549,12153 C 10549,12152 10549,12148 10543,12148 10532,12148 10495,12152 10482,12152 10478,12153 10472,12153 10472,12162 10472,12168 10477,12168 10485,12168 10508,12168 10509,12172 10509,12177 L 10508,12187 10437,12471 C 10434,12478 10434,12479 10434,12482 10434,12494 10444,12496 10449,12496 10456,12496 10462,12492 10466,12485 10468,12482 10490,12390 10494,12377 10510,12378 10551,12386 10551,12419 10551,12422 10551,12424 10549,12430 10549,12436 10547,12441 10547,12447 10547,12476 10566,12496 10592,12496 10608,12496 10620,12488 10631,12469 10644,12448 10649,12421 10649,12420 10649,12414 10645,12414 10644,12414 10638,12414 10638,12417 10637,12423 10627,12460 10616,12485 10593,12485 10584,12485 10578,12479 10578,12461 10578,12454 10580,12442 10582,12434 10583,12426 10583,12423 10583,12419 10583,12386 10553,12373 10510,12367 10526,12358 10542,12343 10553,12330 10577,12305 10599,12283 10624,12283 10627,12283 10627,12283 10628,12283 10634,12284 10635,12284 10638,12288 10639,12288 10639,12289 10640,12289 10617,12291 10612,12310 10612,12316 10612,12324 10618,12334 10631,12334 10644,12334 10658,12322 10658,12303 10658,12289 10647,12272 10625,12272 10611,12272 10588,12277 10553,12316 10535,12335 10516,12354 10498,12362 L 10549,12153 Z"/>
        </g>
       </g>
       <g class="com.sun.star.drawing.ClosedBezierShape">
        <g id="id65">
         <rect class="BoundingBox" stroke="none" fill="none" x="10828" y="12356" width="303" height="23"/>
         <path fill="rgb(255,99,33)" stroke="none" d="M 11113,12377 C 11121,12377 11130,12377 11130,12366 11130,12356 11121,12356 11113,12356 L 10845,12356 C 10837,12356 10829,12356 10829,12366 10829,12377 10837,12377 10845,12377 L 11113,12377 Z"/>
        </g>
       </g>
       <g class="com.sun.star.drawing.ClosedBezierShape">
        <g id="id66">
         <rect class="BoundingBox" stroke="none" fill="none" x="11323" y="12161" width="166" height="331"/>
         <path fill="rgb(255,99,33)" stroke="none" d="M 11426,12174 C 11426,12162 11426,12161 11413,12161 11383,12193 11339,12193 11324,12193 L 11324,12208 C 11334,12208 11363,12208 11389,12195 L 11389,12451 C 11389,12469 11387,12475 11343,12475 L 11327,12475 11327,12490 C 11344,12488 11387,12488 11406,12488 11427,12488 11469,12488 11487,12490 L 11487,12475 11471,12475 C 11427,12475 11426,12469 11426,12451 L 11426,12174 Z"/>
        </g>
       </g>
       <g class="com.sun.star.drawing.ClosedBezierShape">
        <g id="id67">
         <rect class="BoundingBox" stroke="none" fill="none" x="11609" y="11805" width="352" height="360"/>
         <path fill="rgb(255,99,33)" stroke="none" d="M 11960,11810 C 11960,11808 11959,11805 11954,11805 11953,11805 11952,11805 11946,11811 L 11913,11849 C 11908,11842 11885,11805 11830,11805 11720,11805 11609,11914 11609,12029 11609,12110 11667,12163 11743,12163 11786,12163 11823,12144 11850,12121 11896,12081 11904,12036 11904,12035 11904,12030 11899,12030 11898,12030 11895,12030 11893,12030 11891,12035 11887,12049 11876,12084 11842,12113 11807,12140 11776,12149 11751,12149 11707,12149 11654,12123 11654,12046 11654,12018 11664,11938 11713,11880 11744,11845 11791,11821 11834,11821 11885,11821 11914,11859 11914,11916 11914,11935 11913,11936 11913,11941 11913,11946 11917,11946 11919,11946 11926,11946 11926,11945 11928,11936 L 11960,11810 Z"/>
        </g>
       </g>
       <g class="com.sun.star.drawing.ClosedBezierShape">
        <g id="id68">
         <rect class="BoundingBox" stroke="none" fill="none" x="9191" y="13054" width="352" height="361"/>
         <path fill="rgb(255,99,33)" stroke="none" d="M 9542,13059 C 9542,13058 9540,13055 9536,13055 9535,13055 9534,13055 9528,13061 L 9495,13099 C 9490,13092 9467,13055 9412,13055 9302,13055 9191,13164 9191,13279 9191,13360 9249,13413 9324,13413 9368,13413 9405,13394 9432,13371 9478,13331 9486,13286 9486,13285 9486,13280 9481,13280 9480,13280 9477,13280 9474,13280 9473,13285 9469,13299 9458,13334 9424,13363 9389,13390 9358,13399 9332,13399 9288,13399 9236,13373 9236,13296 9236,13268 9246,13188 9295,13130 9325,13095 9372,13071 9416,13071 9467,13071 9496,13109 9496,13166 9496,13185 9495,13186 9495,13191 9495,13196 9499,13196 9501,13196 9508,13196 9508,13195 9510,13186 L 9542,13059 Z"/>
        </g>
       </g>
       <g class="com.sun.star.drawing.ClosedBezierShape">
        <g id="id69">
         <rect class="BoundingBox" stroke="none" fill="none" x="9569" y="13005" width="89" height="181"/>
         <path fill="rgb(255,99,33)" stroke="none" d="M 9654,13036 C 9657,13030 9657,13027 9657,13025 9657,13014 9648,13006 9637,13006 9623,13006 9619,13017 9618,13023 L 9572,13173 C 9571,13173 9570,13177 9570,13177 9570,13182 9581,13185 9583,13185 9585,13185 9586,13185 9589,13179 L 9654,13036 Z"/>
        </g>
       </g>
       <g class="com.sun.star.drawing.ClosedBezierShape">
        <g id="id70">
         <rect class="BoundingBox" stroke="none" fill="none" x="9868" y="13088" width="303" height="384"/>
         <path fill="rgb(255,99,33)" stroke="none" d="M 10161,13110 C 10167,13107 10170,13104 10170,13099 10170,13093 10167,13089 10161,13089 10158,13089 10153,13091 10152,13092 L 9879,13221 C 9870,13224 9869,13227 9869,13232 9869,13236 9872,13240 9879,13243 L 10152,13371 C 10158,13374 10159,13374 10161,13374 10165,13374 10170,13370 10170,13364 10170,13360 10169,13357 10160,13353 L 9902,13232 10161,13110 Z M 10153,13471 C 10161,13471 10170,13471 10170,13460 10170,13450 10160,13450 10153,13450 L 9887,13450 C 9879,13450 9869,13450 9869,13460 9869,13471 9878,13471 9885,13471 L 10153,13471 Z"/>
        </g>
       </g>
       <g class="com.sun.star.drawing.ClosedBezierShape">
        <g id="id71">
         <rect class="BoundingBox" stroke="none" fill="none" x="10857" y="12727" width="226" height="351"/>
         <path fill="rgb(255,99,33)" stroke="none" d="M 10972,12734 C 10972,12732 10972,12728 10966,12728 10955,12728 10918,12731 10906,12732 10901,12734 10896,12734 10896,12742 10896,12748 10900,12748 10908,12748 10932,12748 10933,12753 10933,12757 L 10932,12767 10860,13052 C 10858,13058 10858,13059 10858,13062 10858,13074 10868,13076 10872,13076 10879,13076 10886,13072 10889,13065 10891,13062 10914,12970 10917,12958 10934,12959 10974,12966 10974,12999 10974,13002 10974,13005 10972,13010 10972,13016 10971,13021 10971,13027 10971,13056 10990,13076 11016,13076 11030,13076 11044,13068 11055,13049 11067,13028 11073,13001 11073,13000 11073,12995 11068,12995 11067,12995 11062,12995 11062,12997 11060,13003 11050,13040 11039,13065 11017,13065 11008,13065 11001,13059 11001,13042 11001,13034 11003,13023 11006,13015 11007,13006 11007,13003 11007,12999 11007,12966 10976,12953 10934,12947 10950,12938 10965,12923 10976,12910 11000,12885 11022,12863 11047,12863 11050,12863 11050,12863 11051,12863 11057,12865 11058,12865 11062,12868 11063,12868 11063,12869 11064,12869 11040,12871 11036,12890 11036,12896 11036,12904 11041,12914 11055,12914 11067,12914 11082,12903 11082,12884 11082,12869 11070,12852 11048,12852 11035,12852 11011,12857 10976,12896 10958,12915 10939,12934 10922,12942 L 10972,12734 Z"/>
        </g>
       </g>
       <g class="com.sun.star.drawing.PolyPolygonShape">
        <g id="id72">
         <rect class="BoundingBox" stroke="none" fill="none" x="10406" y="13268" width="1122" height="24"/>
         <path fill="rgb(255,99,33)" stroke="none" d="M 10966,13290 L 10406,13290 10406,13269 11526,13269 11526,13290 10966,13290 Z"/>
        </g>
       </g>
       <g class="com.sun.star.drawing.ClosedBezierShape">
        <g id="id73">
         <rect class="BoundingBox" stroke="none" fill="none" x="10434" y="13397" width="226" height="351"/>
         <path fill="rgb(255,99,33)" stroke="none" d="M 10549,13403 C 10549,13402 10549,13398 10543,13398 10532,13398 10495,13402 10482,13402 10478,13403 10472,13403 10472,13412 10472,13419 10477,13419 10485,13419 10508,13419 10509,13422 10509,13427 L 10508,13437 10437,13721 C 10434,13728 10434,13729 10434,13731 10434,13744 10444,13746 10449,13746 10456,13746 10462,13742 10466,13735 10468,13731 10490,13640 10494,13627 10510,13628 10551,13636 10551,13669 10551,13673 10551,13674 10549,13680 10549,13686 10547,13691 10547,13697 10547,13726 10566,13746 10592,13746 10608,13746 10620,13738 10631,13719 10644,13698 10649,13671 10649,13670 10649,13664 10645,13664 10644,13664 10638,13664 10638,13667 10637,13673 10627,13710 10616,13735 10593,13735 10584,13735 10578,13729 10578,13711 10578,13703 10580,13692 10582,13684 10583,13675 10583,13673 10583,13669 10583,13636 10553,13623 10510,13617 10526,13608 10542,13593 10553,13580 10577,13555 10599,13533 10624,13533 10627,13533 10627,13533 10628,13533 10634,13534 10635,13534 10638,13538 10639,13538 10639,13539 10640,13540 10617,13541 10612,13560 10612,13566 10612,13574 10618,13584 10631,13584 10644,13584 10658,13572 10658,13553 10658,13539 10647,13522 10625,13522 10611,13522 10588,13527 10553,13566 10535,13585 10516,13604 10498,13612 L 10549,13403 Z"/>
        </g>
       </g>
       <g class="com.sun.star.drawing.ClosedBezierShape">
        <g id="id74">
         <rect class="BoundingBox" stroke="none" fill="none" x="10828" y="13606" width="303" height="23"/>
         <path fill="rgb(255,99,33)" stroke="none" d="M 11113,13627 C 11121,13627 11130,13627 11130,13616 11130,13606 11121,13606 11113,13606 L 10845,13606 C 10837,13606 10829,13606 10829,13616 10829,13627 10837,13627 10845,13627 L 11113,13627 Z"/>
        </g>
       </g>
       <g class="com.sun.star.drawing.ClosedBezierShape">
        <g id="id75">
         <rect class="BoundingBox" stroke="none" fill="none" x="11323" y="13411" width="166" height="331"/>
         <path fill="rgb(255,99,33)" stroke="none" d="M 11426,13423 C 11426,13412 11426,13411 11413,13411 11383,13443 11339,13443 11324,13443 L 11324,13458 C 11334,13458 11363,13458 11389,13445 L 11389,13701 C 11389,13719 11387,13725 11343,13725 L 11327,13725 11327,13740 C 11344,13738 11387,13738 11406,13738 11427,13738 11469,13738 11487,13740 L 11487,13725 11471,13725 C 11427,13725 11426,13719 11426,13701 L 11426,13423 Z"/>
        </g>
       </g>
       <g class="com.sun.star.drawing.ClosedBezierShape">
        <g id="id76">
         <rect class="BoundingBox" stroke="none" fill="none" x="11609" y="13054" width="352" height="361"/>
         <path fill="rgb(255,99,33)" stroke="none" d="M 11960,13059 C 11960,13058 11959,13055 11954,13055 11953,13055 11952,13055 11946,13061 L 11913,13099 C 11908,13092 11885,13055 11830,13055 11720,13055 11609,13164 11609,13279 11609,13360 11667,13413 11743,13413 11786,13413 11823,13394 11850,13371 11896,13331 11904,13286 11904,13285 11904,13280 11899,13280 11898,13280 11895,13280 11893,13280 11891,13285 11887,13299 11876,13334 11842,13363 11807,13390 11776,13399 11751,13399 11707,13399 11654,13373 11654,13296 11654,13268 11664,13188 11713,13130 11744,13095 11791,13071 11834,13071 11885,13071 11914,13109 11914,13166 11914,13185 11913,13186 11913,13191 11913,13196 11917,13196 11919,13196 11926,13196 11926,13195 11928,13186 L 11960,13059 Z"/>
        </g>
       </g>
       <g class="com.sun.star.drawing.ClosedBezierShape">
        <g id="id77">
         <rect class="BoundingBox" stroke="none" fill="none" x="9329" y="14304" width="353" height="361"/>
         <path fill="rgb(255,99,33)" stroke="none" d="M 9680,14309 C 9680,14308 9679,14305 9675,14305 9674,14305 9673,14305 9667,14311 L 9633,14349 C 9629,14342 9605,14305 9551,14305 9441,14305 9330,14414 9330,14529 9330,14610 9388,14663 9463,14663 9507,14663 9544,14644 9571,14621 9617,14580 9624,14536 9624,14535 9624,14530 9620,14530 9619,14530 9616,14530 9613,14530 9612,14535 9608,14549 9596,14584 9563,14613 9528,14640 9497,14649 9471,14649 9427,14649 9375,14623 9375,14546 9375,14518 9385,14438 9434,14380 9464,14345 9511,14321 9555,14321 9605,14321 9635,14359 9635,14416 9635,14435 9633,14436 9633,14440 9633,14446 9638,14446 9640,14446 9647,14446 9647,14445 9649,14436 L 9680,14309 Z"/>
        </g>
       </g>
       <g class="com.sun.star.drawing.ClosedBezierShape">
        <g id="id78">
         <rect class="BoundingBox" stroke="none" fill="none" x="9868" y="14338" width="303" height="384"/>
         <path fill="rgb(255,99,33)" stroke="none" d="M 10161,14492 C 10168,14490 10170,14486 10170,14482 10170,14476 10169,14474 10161,14471 L 9889,14342 C 9881,14339 9880,14339 9879,14339 9873,14339 9869,14343 9869,14349 9869,14354 9873,14356 9878,14359 L 10137,14481 9879,14603 C 9869,14607 9869,14612 9869,14614 9869,14620 9873,14624 9879,14624 9880,14624 9881,14624 9888,14621 L 10161,14492 Z M 10153,14720 C 10161,14720 10170,14720 10170,14710 10170,14700 10160,14700 10153,14700 L 9887,14700 C 9879,14700 9869,14700 9869,14710 9869,14720 9878,14720 9885,14720 L 10153,14720 Z"/>
        </g>
       </g>
       <g class="com.sun.star.drawing.ClosedBezierShape">
        <g id="id79">
         <rect class="BoundingBox" stroke="none" fill="none" x="10434" y="13977" width="226" height="351"/>
         <path fill="rgb(255,99,33)" stroke="none" d="M 10549,13983 C 10549,13982 10549,13978 10543,13978 10532,13978 10495,13982 10482,13982 10478,13983 10472,13983 10472,13992 10472,13999 10477,13999 10485,13999 10508,13999 10509,14003 10509,14007 L 10508,14017 10437,14302 C 10434,14308 10434,14309 10434,14312 10434,14324 10444,14326 10449,14326 10456,14326 10462,14322 10466,14315 10468,14312 10490,14220 10494,14207 10510,14209 10551,14216 10551,14249 10551,14252 10551,14255 10549,14260 10549,14266 10547,14271 10547,14277 10547,14306 10566,14326 10592,14326 10608,14326 10620,14318 10631,14299 10644,14278 10649,14251 10649,14250 10649,14244 10645,14244 10644,14244 10638,14244 10638,14247 10637,14253 10627,14290 10616,14315 10593,14315 10584,14315 10578,14309 10578,14291 10578,14284 10580,14272 10582,14265 10583,14256 10583,14253 10583,14249 10583,14216 10553,14203 10510,14197 10526,14188 10542,14173 10553,14160 10577,14135 10599,14113 10624,14113 10627,14113 10627,14113 10628,14113 10634,14115 10635,14115 10638,14118 10639,14118 10639,14119 10640,14119 10617,14121 10612,14140 10612,14146 10612,14154 10618,14164 10631,14164 10644,14164 10658,14153 10658,14134 10658,14119 10647,14102 10625,14102 10611,14102 10588,14107 10553,14146 10535,14165 10516,14184 10498,14192 L 10549,13983 Z"/>
        </g>
       </g>
       <g class="com.sun.star.drawing.ClosedBezierShape">
        <g id="id80">
         <rect class="BoundingBox" stroke="none" fill="none" x="10828" y="14186" width="303" height="23"/>
         <path fill="rgb(255,99,33)" stroke="none" d="M 11113,14207 C 11121,14207 11130,14207 11130,14196 11130,14186 11121,14186 11113,14186 L 10845,14186 C 10837,14186 10829,14186 10829,14196 10829,14207 10837,14207 10845,14207 L 11113,14207 Z"/>
        </g>
       </g>
       <g class="com.sun.star.drawing.ClosedBezierShape">
        <g id="id81">
         <rect class="BoundingBox" stroke="none" fill="none" x="11323" y="13991" width="166" height="331"/>
         <path fill="rgb(255,99,33)" stroke="none" d="M 11426,14004 C 11426,13992 11426,13991 11413,13991 11383,14023 11339,14023 11324,14023 L 11324,14038 C 11334,14038 11363,14038 11389,14025 L 11389,14281 C 11389,14299 11387,14305 11343,14305 L 11327,14305 11327,14321 C 11344,14318 11387,14318 11406,14318 11427,14318 11469,14318 11487,14321 L 11487,14305 11471,14305 C 11427,14305 11426,14299 11426,14281 L 11426,14004 Z"/>
        </g>
       </g>
       <g class="com.sun.star.drawing.PolyPolygonShape">
        <g id="id82">
         <rect class="BoundingBox" stroke="none" fill="none" x="10406" y="14518" width="1122" height="24"/>
         <path fill="rgb(255,99,33)" stroke="none" d="M 10966,14540 L 10406,14540 10406,14519 11526,14519 11526,14540 10966,14540 Z"/>
        </g>
       </g>
       <g class="com.sun.star.drawing.ClosedBezierShape">
        <g id="id83">
         <rect class="BoundingBox" stroke="none" fill="none" x="10857" y="14647" width="226" height="350"/>
         <path fill="rgb(255,99,33)" stroke="none" d="M 10972,14653 C 10972,14652 10972,14648 10966,14648 10955,14648 10918,14652 10906,14652 10901,14653 10896,14653 10896,14662 10896,14668 10900,14668 10908,14668 10932,14668 10933,14672 10933,14677 L 10932,14687 10860,14971 C 10858,14978 10858,14979 10858,14981 10858,14994 10868,14996 10872,14996 10879,14996 10886,14992 10889,14985 10891,14981 10914,14890 10917,14877 10934,14878 10974,14886 10974,14919 10974,14922 10974,14924 10972,14930 10972,14936 10971,14941 10971,14947 10971,14976 10990,14996 11016,14996 11030,14996 11044,14988 11055,14969 11067,14948 11073,14921 11073,14920 11073,14914 11068,14914 11067,14914 11062,14914 11062,14916 11060,14923 11050,14960 11039,14985 11017,14985 11008,14985 11001,14979 11001,14961 11001,14953 11003,14942 11006,14934 11007,14925 11007,14923 11007,14919 11007,14886 10976,14873 10934,14867 10950,14858 10965,14843 10976,14830 11000,14804 11022,14783 11047,14783 11050,14783 11050,14783 11051,14783 11057,14784 11058,14784 11062,14788 11063,14788 11063,14789 11064,14789 11040,14791 11036,14810 11036,14816 11036,14824 11041,14834 11055,14834 11067,14834 11082,14822 11082,14803 11082,14789 11070,14772 11048,14772 11035,14772 11011,14776 10976,14816 10958,14835 10939,14854 10922,14862 L 10972,14653 Z"/>
        </g>
       </g>
       <g class="com.sun.star.drawing.ClosedBezierShape">
        <g id="id84">
         <rect class="BoundingBox" stroke="none" fill="none" x="11609" y="14304" width="352" height="361"/>
         <path fill="rgb(255,99,33)" stroke="none" d="M 11960,14309 C 11960,14308 11959,14305 11954,14305 11953,14305 11952,14305 11946,14311 L 11913,14349 C 11908,14342 11885,14305 11830,14305 11720,14305 11609,14414 11609,14529 11609,14610 11667,14663 11743,14663 11786,14663 11823,14644 11850,14621 11896,14580 11904,14536 11904,14535 11904,14530 11899,14530 11898,14530 11895,14530 11893,14530 11891,14535 11887,14549 11876,14584 11842,14613 11807,14640 11776,14649 11751,14649 11707,14649 11654,14623 11654,14546 11654,14518 11664,14438 11713,14380 11744,14345 11791,14321 11834,14321 11885,14321 11914,14359 11914,14416 11914,14435 11913,14436 11913,14440 11913,14446 11917,14446 11919,14446 11926,14446 11926,14445 11928,14436 L 11960,14309 Z"/>
        </g>
       </g>
       <g class="com.sun.star.drawing.ClosedBezierShape">
        <g id="id85">
         <rect class="BoundingBox" stroke="none" fill="none" x="11987" y="14255" width="90" height="181"/>
         <path fill="rgb(255,99,33)" stroke="none" d="M 12072,14286 C 12075,14280 12075,14277 12075,14275 12075,14263 12065,14256 12055,14256 12042,14256 12037,14267 12036,14272 L 11990,14423 C 11989,14423 11988,14427 11988,14427 11988,14432 11999,14435 12001,14435 12003,14435 12005,14435 12007,14429 L 12072,14286 Z"/>
        </g>
       </g>
      </g>
     </g>
    </g>
   </g>
  </g>
 </g>
</svg>